<svg width="957" height="326" viewBox="0 0 957 326" fill="none" xmlns="http://www.w3.org/2000/svg">
<rect width="956" height="325" transform="translate(0.5 0.00384521)" fill="#121212"/>
<rect width="296" height="296" transform="translate(15.5 11.5428)" fill="#121212"/>
<path d="M35.548 29.4243C35.724 29.4243 35.8787 29.4216 36.012 29.4163C36.1507 29.4056 36.2653 29.3896 36.356 29.3683V28.1283C36.3027 28.1016 36.2147 28.0803 36.092 28.0643C35.9747 28.043 35.8307 28.0323 35.66 28.0323C35.548 28.0323 35.428 28.0403 35.3 28.0563C35.1773 28.0723 35.0627 28.107 34.956 28.1603C34.8547 28.2083 34.7693 28.2776 34.7 28.3683C34.6307 28.4536 34.596 28.5683 34.596 28.7123C34.596 28.979 34.6813 29.1656 34.852 29.2723C35.0227 29.3736 35.2547 29.4243 35.548 29.4243ZM35.484 25.6963C35.7827 25.6963 36.0333 25.7363 36.236 25.8163C36.444 25.891 36.6093 26.0003 36.732 26.1443C36.86 26.283 36.9507 26.451 37.004 26.6483C37.0573 26.8403 37.084 27.0536 37.084 27.2883V29.8883C37.02 29.899 36.9293 29.915 36.812 29.9363C36.7 29.9523 36.572 29.9683 36.428 29.9843C36.284 30.0003 36.1267 30.0136 35.956 30.0243C35.7907 30.0403 35.6253 30.0483 35.46 30.0483C35.2253 30.0483 35.0093 30.0243 34.812 29.9763C34.6147 29.9283 34.444 29.8536 34.3 29.7523C34.156 29.6456 34.044 29.507 33.964 29.3363C33.884 29.1656 33.844 28.9603 33.844 28.7203C33.844 28.491 33.8893 28.2936 33.98 28.1283C34.076 27.963 34.204 27.8296 34.364 27.7283C34.524 27.627 34.7107 27.5523 34.924 27.5043C35.1373 27.4563 35.3613 27.4323 35.596 27.4323C35.6707 27.4323 35.748 27.4376 35.828 27.4483C35.908 27.4536 35.9827 27.4643 36.052 27.4803C36.1267 27.491 36.1907 27.5016 36.244 27.5123C36.2973 27.523 36.3347 27.531 36.356 27.5363V27.3283C36.356 27.2056 36.3427 27.0856 36.316 26.9683C36.2893 26.8456 36.2413 26.739 36.172 26.6483C36.1027 26.5523 36.0067 26.4776 35.884 26.4243C35.7667 26.3656 35.612 26.3363 35.42 26.3363C35.1747 26.3363 34.9587 26.355 34.772 26.3923C34.5907 26.4243 34.4547 26.459 34.364 26.4963L34.276 25.8803C34.372 25.8376 34.532 25.7976 34.756 25.7603C34.98 25.7176 35.2227 25.6963 35.484 25.6963ZM40.3677 30.0403C39.909 30.0296 39.5837 29.931 39.3917 29.7443C39.1997 29.5576 39.1037 29.267 39.1037 28.8723V23.8803L39.8477 23.7523V28.7523C39.8477 28.875 39.8584 28.9763 39.8797 29.0563C39.901 29.1363 39.9357 29.2003 39.9837 29.2483C40.0317 29.2963 40.0957 29.3336 40.1757 29.3603C40.2557 29.3816 40.3544 29.4003 40.4717 29.4163L40.3677 30.0403ZM42.8512 29.9603H42.1072V25.8003H42.8512V29.9603ZM42.4752 25.0483C42.3419 25.0483 42.2272 25.0056 42.1312 24.9203C42.0405 24.8296 41.9952 24.7096 41.9952 24.5603C41.9952 24.411 42.0405 24.2936 42.1312 24.2083C42.2272 24.1176 42.3419 24.0723 42.4752 24.0723C42.6085 24.0723 42.7205 24.1176 42.8112 24.2083C42.9072 24.2936 42.9552 24.411 42.9552 24.5603C42.9552 24.7096 42.9072 24.8296 42.8112 24.9203C42.7205 25.0056 42.6085 25.0483 42.4752 25.0483ZM47.5386 29.5443C47.4746 29.587 47.3493 29.643 47.1626 29.7123C46.9813 29.7763 46.768 29.8083 46.5226 29.8083C46.272 29.8083 46.0346 29.7683 45.8106 29.6883C45.592 29.6083 45.4 29.4856 45.2346 29.3203C45.0693 29.1496 44.9386 28.939 44.8426 28.6883C44.7466 28.4376 44.6986 28.139 44.6986 27.7923C44.6986 27.4883 44.744 27.211 44.8346 26.9603C44.9253 26.7043 45.056 26.4856 45.2266 26.3043C45.4026 26.1176 45.616 25.9736 45.8666 25.8723C46.1173 25.7656 46.4 25.7123 46.7146 25.7123C47.0613 25.7123 47.3626 25.739 47.6186 25.7923C47.88 25.8403 48.0986 25.8856 48.2746 25.9283V29.6403C48.2746 30.2803 48.1093 30.7443 47.7786 31.0323C47.448 31.3203 46.9466 31.4643 46.2746 31.4643C46.0133 31.4643 45.7653 31.443 45.5306 31.4003C45.3013 31.3576 45.1013 31.307 44.9306 31.2483L45.0666 30.6003C45.216 30.659 45.3973 30.7096 45.6106 30.7523C45.8293 30.8003 46.056 30.8243 46.2906 30.8243C46.7333 30.8243 47.0506 30.7363 47.2426 30.5603C47.44 30.3843 47.5386 30.1043 47.5386 29.7203V29.5443ZM47.5306 26.4563C47.456 26.435 47.3546 26.4163 47.2266 26.4003C47.104 26.379 46.936 26.3683 46.7226 26.3683C46.3226 26.3683 46.0133 26.499 45.7946 26.7603C45.5813 27.0216 45.4746 27.3683 45.4746 27.8003C45.4746 28.0403 45.504 28.2456 45.5626 28.4163C45.6266 28.587 45.7093 28.7283 45.8106 28.8403C45.9173 28.9523 46.0373 29.035 46.1706 29.0883C46.3093 29.1416 46.4506 29.1683 46.5946 29.1683C46.792 29.1683 46.9733 29.1416 47.1386 29.0883C47.304 29.0296 47.4346 28.963 47.5306 28.8883V26.4563ZM50.3556 25.9203C50.5263 25.8776 50.753 25.8323 51.0356 25.7843C51.3183 25.7363 51.6436 25.7123 52.0116 25.7123C52.3423 25.7123 52.617 25.7603 52.8356 25.8563C53.0543 25.947 53.2276 26.0776 53.3556 26.2483C53.489 26.4136 53.5823 26.6136 53.6356 26.8483C53.689 27.083 53.7156 27.3416 53.7156 27.6243V29.9603H52.9716V27.7843C52.9716 27.5283 52.953 27.3096 52.9156 27.1283C52.8836 26.947 52.8276 26.8003 52.7476 26.6883C52.6676 26.5763 52.561 26.4963 52.4276 26.4483C52.2943 26.395 52.129 26.3683 51.9316 26.3683C51.8516 26.3683 51.769 26.371 51.6836 26.3763C51.5983 26.3816 51.5156 26.3896 51.4356 26.4003C51.361 26.4056 51.2916 26.4136 51.2276 26.4243C51.169 26.435 51.1263 26.443 51.0996 26.4483V29.9603H50.3556V25.9203ZM57.1174 29.9603V27.7363C56.7494 27.1656 56.4027 26.603 56.0774 26.0483C55.752 25.4936 55.4454 24.9496 55.1574 24.4163H56.0694C56.272 24.8536 56.4987 25.299 56.7494 25.7523C57 26.2003 57.2587 26.6323 57.5254 27.0483C57.7867 26.6323 58.0427 26.2003 58.2934 25.7523C58.544 25.299 58.7734 24.8536 58.9814 24.4163H59.8454C59.5574 24.9496 59.2507 25.4936 58.9254 26.0483C58.6 26.5976 58.256 27.155 57.8934 27.7203V29.9603H57.1174ZM61.9059 29.5283C61.9059 29.6723 61.8579 29.7976 61.7619 29.9043C61.6659 30.011 61.5353 30.0643 61.3699 30.0643C61.2046 30.0643 61.0739 30.011 60.9779 29.9043C60.8819 29.7976 60.8339 29.6723 60.8339 29.5283C60.8339 29.3843 60.8819 29.259 60.9779 29.1523C61.0739 29.0456 61.2046 28.9923 61.3699 28.9923C61.5353 28.9923 61.6659 29.0456 61.7619 29.1523C61.8579 29.259 61.9059 29.3843 61.9059 29.5283ZM61.9059 26.3363C61.9059 26.4803 61.8579 26.6056 61.7619 26.7123C61.6659 26.819 61.5353 26.8723 61.3699 26.8723C61.2046 26.8723 61.0739 26.819 60.9779 26.7123C60.8819 26.6056 60.8339 26.4803 60.8339 26.3363C60.8339 26.1923 60.8819 26.067 60.9779 25.9603C61.0739 25.8536 61.2046 25.8003 61.3699 25.8003C61.5353 25.8003 61.6659 25.8536 61.7619 25.9603C61.8579 26.067 61.9059 26.1923 61.9059 26.3363ZM67.1423 25.8003H68.7183V26.4243H67.1423V28.3443C67.1423 28.5523 67.1583 28.7256 67.1903 28.8643C67.2223 28.9976 67.2703 29.1043 67.3343 29.1843C67.3983 29.259 67.4783 29.3123 67.5743 29.3443C67.6703 29.3763 67.7823 29.3923 67.9103 29.3923C68.1343 29.3923 68.3129 29.3683 68.4463 29.3203C68.5849 29.267 68.6809 29.2296 68.7343 29.2083L68.8783 29.8243C68.8036 29.8616 68.6729 29.907 68.4863 29.9603C68.2996 30.019 68.0863 30.0483 67.8463 30.0483C67.5636 30.0483 67.3289 30.0136 67.1423 29.9443C66.9609 29.8696 66.8143 29.7603 66.7023 29.6163C66.5903 29.4723 66.5103 29.2963 66.4623 29.0883C66.4196 28.875 66.3983 28.6296 66.3983 28.3523V24.6403L67.1423 24.5123V25.8003ZM74.0276 27.8803C74.0276 28.211 73.9796 28.5096 73.8836 28.7763C73.7876 29.043 73.6516 29.2723 73.4756 29.4643C73.305 29.6563 73.0996 29.8056 72.8596 29.9123C72.6196 30.0136 72.3583 30.0643 72.0756 30.0643C71.793 30.0643 71.5316 30.0136 71.2916 29.9123C71.0516 29.8056 70.8436 29.6563 70.6676 29.4643C70.497 29.2723 70.3636 29.043 70.2676 28.7763C70.1716 28.5096 70.1236 28.211 70.1236 27.8803C70.1236 27.555 70.1716 27.259 70.2676 26.9923C70.3636 26.7203 70.497 26.4883 70.6676 26.2963C70.8436 26.1043 71.0516 25.9576 71.2916 25.8563C71.5316 25.7496 71.793 25.6963 72.0756 25.6963C72.3583 25.6963 72.6196 25.7496 72.8596 25.8563C73.0996 25.9576 73.305 26.1043 73.4756 26.2963C73.6516 26.4883 73.7876 26.7203 73.8836 26.9923C73.9796 27.259 74.0276 27.555 74.0276 27.8803ZM73.2516 27.8803C73.2516 27.411 73.145 27.0403 72.9316 26.7683C72.7236 26.491 72.4383 26.3523 72.0756 26.3523C71.713 26.3523 71.425 26.491 71.2116 26.7683C71.0036 27.0403 70.8996 27.411 70.8996 27.8803C70.8996 28.3496 71.0036 28.723 71.2116 29.0003C71.425 29.2723 71.713 29.4083 72.0756 29.4083C72.4383 29.4083 72.7236 29.2723 72.9316 29.0003C73.145 28.723 73.2516 28.3496 73.2516 27.8803ZM78.7624 27.8883C78.7624 27.403 78.6424 27.0296 78.4024 26.7683C78.1624 26.507 77.8424 26.3763 77.4424 26.3763C77.2184 26.3763 77.0424 26.3843 76.9144 26.4003C76.7917 26.4163 76.693 26.435 76.6184 26.4563V29.0803C76.709 29.155 76.8397 29.227 77.0104 29.2963C77.181 29.3656 77.3677 29.4003 77.5704 29.4003C77.7837 29.4003 77.965 29.363 78.1144 29.2883C78.269 29.2083 78.3944 29.1016 78.4904 28.9683C78.5864 28.8296 78.6557 28.6696 78.6984 28.4883C78.741 28.3016 78.7624 28.1016 78.7624 27.8883ZM79.5384 27.8883C79.5384 28.203 79.4957 28.4936 79.4104 28.7603C79.3304 29.027 79.2104 29.2563 79.0504 29.4483C78.8904 29.6403 78.693 29.7896 78.4584 29.8963C78.229 30.003 77.965 30.0563 77.6664 30.0563C77.4264 30.0563 77.213 30.0243 77.0264 29.9603C76.845 29.8963 76.709 29.835 76.6184 29.7763V31.4403H75.8744V25.9283C76.0504 25.8856 76.269 25.8403 76.5304 25.7923C76.797 25.739 77.1037 25.7123 77.4504 25.7123C77.7704 25.7123 78.0584 25.763 78.3144 25.8643C78.5704 25.9656 78.789 26.1096 78.9704 26.2963C79.1517 26.483 79.2904 26.7123 79.3864 26.9843C79.4877 27.251 79.5384 27.5523 79.5384 27.8883ZM82.1693 29.0483C82.1746 29.091 82.1773 29.1336 82.1773 29.1763C82.1773 29.2136 82.1773 29.2536 82.1773 29.2963C82.1773 29.6323 82.1266 29.963 82.0253 30.2883C81.9293 30.619 81.796 30.9336 81.6253 31.2323L81.0493 31.0483C81.1826 30.7763 81.2706 30.499 81.3133 30.2163C81.356 29.939 81.3773 29.6776 81.3773 29.4323C81.3773 29.363 81.3746 29.2963 81.3693 29.2323C81.3693 29.1683 81.3666 29.107 81.3613 29.0483H82.1693ZM82.2653 26.3363C82.2653 26.4803 82.2173 26.6056 82.1213 26.7123C82.0253 26.819 81.8946 26.8723 81.7293 26.8723C81.564 26.8723 81.4333 26.819 81.3373 26.7123C81.2413 26.6056 81.1933 26.4803 81.1933 26.3363C81.1933 26.1923 81.2413 26.067 81.3373 25.9603C81.4333 25.8536 81.564 25.8003 81.7293 25.8003C81.8946 25.8003 82.0253 25.8536 82.1213 25.9603C82.2173 26.067 82.2653 26.1923 82.2653 26.3363ZM88.2136 29.4243C88.3896 29.4243 88.5443 29.4216 88.6776 29.4163C88.8163 29.4056 88.931 29.3896 89.0216 29.3683V28.1283C88.9683 28.1016 88.8803 28.0803 88.7576 28.0643C88.6403 28.043 88.4963 28.0323 88.3256 28.0323C88.2136 28.0323 88.0936 28.0403 87.9656 28.0563C87.843 28.0723 87.7283 28.107 87.6216 28.1603C87.5203 28.2083 87.435 28.2776 87.3656 28.3683C87.2963 28.4536 87.2616 28.5683 87.2616 28.7123C87.2616 28.979 87.347 29.1656 87.5176 29.2723C87.6883 29.3736 87.9203 29.4243 88.2136 29.4243ZM88.1496 25.6963C88.4483 25.6963 88.699 25.7363 88.9016 25.8163C89.1096 25.891 89.275 26.0003 89.3976 26.1443C89.5256 26.283 89.6163 26.451 89.6696 26.6483C89.723 26.8403 89.7496 27.0536 89.7496 27.2883V29.8883C89.6856 29.899 89.595 29.915 89.4776 29.9363C89.3656 29.9523 89.2376 29.9683 89.0936 29.9843C88.9496 30.0003 88.7923 30.0136 88.6216 30.0243C88.4563 30.0403 88.291 30.0483 88.1256 30.0483C87.891 30.0483 87.675 30.0243 87.4776 29.9763C87.2803 29.9283 87.1096 29.8536 86.9656 29.7523C86.8216 29.6456 86.7096 29.507 86.6296 29.3363C86.5496 29.1656 86.5096 28.9603 86.5096 28.7203C86.5096 28.491 86.555 28.2936 86.6456 28.1283C86.7416 27.963 86.8696 27.8296 87.0296 27.7283C87.1896 27.627 87.3763 27.5523 87.5896 27.5043C87.803 27.4563 88.027 27.4323 88.2616 27.4323C88.3363 27.4323 88.4136 27.4376 88.4936 27.4483C88.5736 27.4536 88.6483 27.4643 88.7176 27.4803C88.7923 27.491 88.8563 27.5016 88.9096 27.5123C88.963 27.523 89.0003 27.531 89.0216 27.5363V27.3283C89.0216 27.2056 89.0083 27.0856 88.9816 26.9683C88.955 26.8456 88.907 26.739 88.8376 26.6483C88.7683 26.5523 88.6723 26.4776 88.5496 26.4243C88.4323 26.3656 88.2776 26.3363 88.0856 26.3363C87.8403 26.3363 87.6243 26.355 87.4376 26.3923C87.2563 26.4243 87.1203 26.459 87.0296 26.4963L86.9416 25.8803C87.0376 25.8376 87.1976 25.7976 87.4216 25.7603C87.6456 25.7176 87.8883 25.6963 88.1496 25.6963ZM93.0333 30.0403C92.5746 30.0296 92.2493 29.931 92.0573 29.7443C91.8653 29.5576 91.7693 29.267 91.7693 28.8723V23.8803L92.5133 23.7523V28.7523C92.5133 28.875 92.524 28.9763 92.5453 29.0563C92.5666 29.1363 92.6013 29.2003 92.6493 29.2483C92.6973 29.2963 92.7613 29.3336 92.8413 29.3603C92.9213 29.3816 93.02 29.4003 93.1373 29.4163L93.0333 30.0403ZM95.5168 29.9603H94.7728V25.8003H95.5168V29.9603ZM95.1408 25.0483C95.0075 25.0483 94.8928 25.0056 94.7968 24.9203C94.7061 24.8296 94.6608 24.7096 94.6608 24.5603C94.6608 24.411 94.7061 24.2936 94.7968 24.2083C94.8928 24.1176 95.0075 24.0723 95.1408 24.0723C95.2741 24.0723 95.3861 24.1176 95.4768 24.2083C95.5728 24.2936 95.6208 24.411 95.6208 24.5603C95.6208 24.7096 95.5728 24.8296 95.4768 24.9203C95.3861 25.0056 95.2741 25.0483 95.1408 25.0483ZM100.204 29.5443C100.14 29.587 100.015 29.643 99.8282 29.7123C99.6469 29.7763 99.4336 29.8083 99.1882 29.8083C98.9376 29.8083 98.7002 29.7683 98.4762 29.6883C98.2576 29.6083 98.0656 29.4856 97.9002 29.3203C97.7349 29.1496 97.6042 28.939 97.5082 28.6883C97.4122 28.4376 97.3642 28.139 97.3642 27.7923C97.3642 27.4883 97.4096 27.211 97.5002 26.9603C97.5909 26.7043 97.7216 26.4856 97.8922 26.3043C98.0682 26.1176 98.2816 25.9736 98.5322 25.8723C98.7829 25.7656 99.0656 25.7123 99.3802 25.7123C99.7269 25.7123 100.028 25.739 100.284 25.7923C100.546 25.8403 100.764 25.8856 100.94 25.9283V29.6403C100.94 30.2803 100.775 30.7443 100.444 31.0323C100.114 31.3203 99.6122 31.4643 98.9402 31.4643C98.6789 31.4643 98.4309 31.443 98.1962 31.4003C97.9669 31.3576 97.7669 31.307 97.5962 31.2483L97.7322 30.6003C97.8816 30.659 98.0629 30.7096 98.2762 30.7523C98.4949 30.8003 98.7216 30.8243 98.9562 30.8243C99.3989 30.8243 99.7162 30.7363 99.9082 30.5603C100.106 30.3843 100.204 30.1043 100.204 29.7203V29.5443ZM100.196 26.4563C100.122 26.435 100.02 26.4163 99.8922 26.4003C99.7696 26.379 99.6016 26.3683 99.3882 26.3683C98.9882 26.3683 98.6789 26.499 98.4602 26.7603C98.2469 27.0216 98.1402 27.3683 98.1402 27.8003C98.1402 28.0403 98.1696 28.2456 98.2282 28.4163C98.2922 28.587 98.3749 28.7283 98.4762 28.8403C98.5829 28.9523 98.7029 29.035 98.8362 29.0883C98.9749 29.1416 99.1162 29.1683 99.2602 29.1683C99.4576 29.1683 99.6389 29.1416 99.8042 29.0883C99.9696 29.0296 100.1 28.963 100.196 28.8883V26.4563ZM103.021 25.9203C103.192 25.8776 103.419 25.8323 103.701 25.7843C103.984 25.7363 104.309 25.7123 104.677 25.7123C105.008 25.7123 105.283 25.7603 105.501 25.8563C105.72 25.947 105.893 26.0776 106.021 26.2483C106.155 26.4136 106.248 26.6136 106.301 26.8483C106.355 27.083 106.381 27.3416 106.381 27.6243V29.9603H105.637V27.7843C105.637 27.5283 105.619 27.3096 105.581 27.1283C105.549 26.947 105.493 26.8003 105.413 26.6883C105.333 26.5763 105.227 26.4963 105.093 26.4483C104.96 26.395 104.795 26.3683 104.597 26.3683C104.517 26.3683 104.435 26.371 104.349 26.3763C104.264 26.3816 104.181 26.3896 104.101 26.4003C104.027 26.4056 103.957 26.4136 103.893 26.4243C103.835 26.435 103.792 26.443 103.765 26.4483V29.9603H103.021V25.9203ZM111.791 29.9603C111.711 29.8003 111.615 29.6243 111.503 29.4323C111.391 29.235 111.268 29.0323 111.135 28.8243C111.002 28.611 110.863 28.4003 110.719 28.1923C110.575 27.979 110.436 27.779 110.303 27.5923C110.17 27.779 110.031 27.979 109.887 28.1923C109.743 28.4003 109.604 28.611 109.471 28.8243C109.343 29.0323 109.22 29.235 109.103 29.4323C108.991 29.6243 108.895 29.8003 108.815 29.9603H107.959C108.199 29.491 108.476 29.0136 108.791 28.5283C109.111 28.043 109.45 27.5443 109.807 27.0323L108.031 24.4163H108.927L110.295 26.4803L111.647 24.4163H112.535L110.791 27.0003C111.154 27.5176 111.495 28.0216 111.815 28.5123C112.135 29.003 112.418 29.4856 112.663 29.9603H111.791ZM115.142 29.5283C115.142 29.6723 115.094 29.7976 114.998 29.9043C114.902 30.011 114.771 30.0643 114.606 30.0643C114.441 30.0643 114.31 30.011 114.214 29.9043C114.118 29.7976 114.07 29.6723 114.07 29.5283C114.07 29.3843 114.118 29.259 114.214 29.1523C114.31 29.0456 114.441 28.9923 114.606 28.9923C114.771 28.9923 114.902 29.0456 114.998 29.1523C115.094 29.259 115.142 29.3843 115.142 29.5283ZM115.142 26.3363C115.142 26.4803 115.094 26.6056 114.998 26.7123C114.902 26.819 114.771 26.8723 114.606 26.8723C114.441 26.8723 114.31 26.819 114.214 26.7123C114.118 26.6056 114.07 26.4803 114.07 26.3363C114.07 26.1923 114.118 26.067 114.214 25.9603C114.31 25.8536 114.441 25.8003 114.606 25.8003C114.771 25.8003 114.902 25.8536 114.998 25.9603C115.094 26.067 115.142 26.1923 115.142 26.3363ZM120.93 30.0403C120.472 30.0296 120.146 29.931 119.954 29.7443C119.762 29.5576 119.666 29.267 119.666 28.8723V23.8803L120.41 23.7523V28.7523C120.41 28.875 120.421 28.9763 120.442 29.0563C120.464 29.1363 120.498 29.2003 120.546 29.2483C120.594 29.2963 120.658 29.3336 120.738 29.3603C120.818 29.3816 120.917 29.4003 121.034 29.4163L120.93 30.0403ZM122.438 27.8883C122.438 27.5203 122.491 27.2003 122.598 26.9283C122.704 26.651 122.846 26.4216 123.022 26.2403C123.198 26.059 123.4 25.923 123.63 25.8323C123.859 25.7416 124.094 25.6963 124.334 25.6963C124.894 25.6963 125.323 25.8723 125.622 26.2243C125.92 26.571 126.07 27.1016 126.07 27.8163C126.07 27.8483 126.07 27.891 126.07 27.9443C126.07 27.9923 126.067 28.0376 126.062 28.0803H123.214C123.246 28.5123 123.371 28.8403 123.59 29.0643C123.808 29.2883 124.15 29.4003 124.614 29.4003C124.875 29.4003 125.094 29.379 125.27 29.3363C125.451 29.2883 125.587 29.243 125.678 29.2003L125.782 29.8243C125.691 29.8723 125.531 29.923 125.302 29.9763C125.078 30.0296 124.822 30.0563 124.534 30.0563C124.171 30.0563 123.856 30.003 123.59 29.8963C123.328 29.7843 123.112 29.6323 122.942 29.4403C122.771 29.2483 122.643 29.0216 122.558 28.7603C122.478 28.4936 122.438 28.203 122.438 27.8883ZM125.294 27.4803C125.299 27.1443 125.214 26.8696 125.038 26.6563C124.867 26.4376 124.63 26.3283 124.326 26.3283C124.155 26.3283 124.003 26.363 123.87 26.4323C123.742 26.4963 123.632 26.5816 123.542 26.6883C123.451 26.795 123.379 26.9176 123.326 27.0563C123.278 27.195 123.246 27.3363 123.23 27.4803H125.294ZM129.562 23.7523C129.781 23.7523 129.968 23.7683 130.122 23.8003C130.282 23.8323 130.394 23.8616 130.458 23.8883L130.322 24.5283C130.258 24.4963 130.168 24.467 130.05 24.4403C129.933 24.4083 129.789 24.3923 129.618 24.3923C129.272 24.3923 129.029 24.4883 128.89 24.6803C128.752 24.867 128.682 25.1203 128.682 25.4403V25.8003H130.282V26.4243H128.682V29.9603H127.938V25.4243C127.938 24.891 128.069 24.4803 128.33 24.1923C128.592 23.899 129.002 23.7523 129.562 23.7523ZM132.52 25.8003H134.096V26.4243H132.52V28.3443C132.52 28.5523 132.536 28.7256 132.568 28.8643C132.6 28.9976 132.648 29.1043 132.712 29.1843C132.776 29.259 132.856 29.3123 132.952 29.3443C133.048 29.3763 133.16 29.3923 133.288 29.3923C133.512 29.3923 133.691 29.3683 133.824 29.3203C133.963 29.267 134.059 29.2296 134.112 29.2083L134.256 29.8243C134.182 29.8616 134.051 29.907 133.864 29.9603C133.678 30.019 133.464 30.0483 133.224 30.0483C132.942 30.0483 132.707 30.0136 132.52 29.9443C132.339 29.8696 132.192 29.7603 132.08 29.6163C131.968 29.4723 131.888 29.2963 131.84 29.0883C131.798 28.875 131.776 28.6296 131.776 28.3523V24.6403L132.52 24.5123V25.8003ZM136.627 29.0483C136.632 29.091 136.635 29.1336 136.635 29.1763C136.635 29.2136 136.635 29.2536 136.635 29.2963C136.635 29.6323 136.584 29.963 136.483 30.2883C136.387 30.619 136.254 30.9336 136.083 31.2323L135.507 31.0483C135.64 30.7763 135.728 30.499 135.771 30.2163C135.814 29.939 135.835 29.6776 135.835 29.4323C135.835 29.363 135.832 29.2963 135.827 29.2323C135.827 29.1683 135.824 29.107 135.819 29.0483H136.627ZM136.723 26.3363C136.723 26.4803 136.675 26.6056 136.579 26.7123C136.483 26.819 136.352 26.8723 136.187 26.8723C136.022 26.8723 135.891 26.819 135.795 26.7123C135.699 26.6056 135.651 26.4803 135.651 26.3363C135.651 26.1923 135.699 26.067 135.795 25.9603C135.891 25.8536 136.022 25.8003 136.187 25.8003C136.352 25.8003 136.483 25.8536 136.579 25.9603C136.675 26.067 136.723 26.1923 136.723 26.3363Z" fill="white"/>
<rect x="163" y="164.271" width="84.976" height="95.7721" stroke="#FF0000"/>
<path d="M178.827 260.543H166.824L201.54 165.997H213.358L248.074 260.543H236.071L207.818 180.955H207.08L178.827 260.543ZM183.259 223.611H231.639V233.767H183.259V223.611Z" fill="white"/>
<rect x="34.0914" y="36.0428" width="255" height="255" stroke="white"/>
<line x1="162.091" y1="35.5428" x2="162.091" y2="291.726" stroke="#D6D6D6" stroke-dasharray="2 2"/>
<line x1="33.5" y1="163.134" x2="289.683" y2="163.134" stroke="#D6D6D6" stroke-dasharray="2 2"/>
<path d="M167.442 42.0817C167.398 41.9937 167.344 41.8957 167.28 41.7877C167.216 41.6797 167.146 41.5697 167.07 41.4577C166.994 41.3417 166.916 41.2277 166.836 41.1157C166.756 41.0037 166.678 40.8977 166.602 40.7977C166.526 40.8977 166.448 41.0057 166.368 41.1217C166.288 41.2337 166.21 41.3477 166.134 41.4637C166.062 41.5757 165.994 41.6857 165.93 41.7937C165.866 41.9017 165.812 41.9977 165.768 42.0817H165.192C165.332 41.8097 165.498 41.5337 165.69 41.2537C165.886 40.9697 166.08 40.6997 166.272 40.4437L165.24 38.9617H165.87L166.614 40.0537L167.364 38.9617H167.958L166.95 40.4077C167.142 40.6677 167.338 40.9437 167.538 41.2357C167.742 41.5237 167.914 41.8057 168.054 42.0817H167.442Z" fill="white"/>
<path d="M37.3638 172.619C37.4078 172.639 37.4638 172.657 37.5318 172.673C37.6038 172.693 37.6738 172.703 37.7418 172.703C37.9618 172.703 38.1338 172.653 38.2578 172.553C38.3818 172.457 38.4938 172.299 38.5938 172.079C38.3418 171.599 38.1058 171.091 37.8858 170.555C37.6698 170.015 37.4898 169.469 37.3458 168.917H37.9458C37.9898 169.097 38.0418 169.291 38.1018 169.499C38.1658 169.707 38.2358 169.921 38.3118 170.141C38.3878 170.361 38.4698 170.581 38.5578 170.801C38.6458 171.021 38.7378 171.233 38.8338 171.437C38.9858 171.017 39.1178 170.601 39.2298 170.189C39.3418 169.777 39.4478 169.353 39.5478 168.917H40.1238C39.9798 169.505 39.8198 170.071 39.6438 170.615C39.4678 171.155 39.2778 171.661 39.0738 172.133C38.9938 172.313 38.9098 172.467 38.8218 172.595C38.7378 172.727 38.6438 172.835 38.5398 172.919C38.4358 173.003 38.3178 173.065 38.1858 173.105C38.0578 173.145 37.9118 173.165 37.7478 173.165C37.7038 173.165 37.6578 173.161 37.6098 173.153C37.5618 173.149 37.5138 173.141 37.4658 173.129C37.4218 173.121 37.3798 173.111 37.3398 173.099C37.3038 173.087 37.2778 173.077 37.2618 173.069L37.3638 172.619Z" fill="white"/>
<line x1="163.875" y1="164.14" x2="248.851" y2="260.212" stroke="#FF0000"/>
<line x1="163.126" y1="260.167" x2="248.102" y2="164.14" stroke="#FF0000"/>
<path d="M169 163.537C169 160.775 166.761 158.537 164 158.537H161C158.239 158.537 156 160.775 156 163.537V164.537C156 167.298 158.239 169.537 161 169.537H164C166.761 169.537 169 167.298 169 164.537V163.537Z" fill="#FF0000"/>
<path d="M159.851 163.761C159.851 163.286 159.92 162.867 160.059 162.505C160.203 162.142 160.395 161.841 160.635 161.601C160.88 161.355 161.163 161.171 161.483 161.049C161.808 160.926 162.152 160.865 162.515 160.865C162.872 160.865 163.208 160.926 163.523 161.049C163.843 161.171 164.123 161.355 164.363 161.601C164.603 161.841 164.792 162.142 164.931 162.505C165.075 162.867 165.147 163.286 165.147 163.761C165.147 164.235 165.075 164.654 164.931 165.017C164.792 165.379 164.603 165.683 164.363 165.929C164.123 166.169 163.843 166.35 163.523 166.473C163.208 166.595 162.872 166.657 162.515 166.657C162.152 166.657 161.808 166.595 161.483 166.473C161.163 166.35 160.88 166.169 160.635 165.929C160.395 165.683 160.203 165.379 160.059 165.017C159.92 164.654 159.851 164.235 159.851 163.761ZM160.667 163.761C160.667 164.097 160.709 164.403 160.795 164.681C160.88 164.953 161 165.185 161.155 165.377C161.315 165.569 161.507 165.718 161.731 165.825C161.96 165.926 162.216 165.977 162.499 165.977C162.781 165.977 163.035 165.926 163.259 165.825C163.483 165.718 163.672 165.569 163.827 165.377C163.987 165.185 164.109 164.953 164.195 164.681C164.28 164.403 164.323 164.097 164.323 163.761C164.323 163.425 164.28 163.121 164.195 162.849C164.109 162.571 163.987 162.337 163.827 162.145C163.672 161.953 163.483 161.806 163.259 161.705C163.035 161.598 162.781 161.545 162.499 161.545C162.216 161.545 161.96 161.598 161.731 161.705C161.507 161.806 161.315 161.953 161.155 162.145C161 162.337 160.88 162.571 160.795 162.849C160.709 163.121 160.667 163.425 160.667 163.761Z" fill="black"/>
<rect width="296" height="296" transform="translate(330.5 11.5428)" fill="#121212"/>
<path d="M350.548 29.4243C350.724 29.4243 350.879 29.4216 351.012 29.4163C351.151 29.4056 351.265 29.3896 351.356 29.3683V28.1283C351.303 28.1016 351.215 28.0803 351.092 28.0643C350.975 28.043 350.831 28.0323 350.66 28.0323C350.548 28.0323 350.428 28.0403 350.3 28.0563C350.177 28.0723 350.063 28.107 349.956 28.1603C349.855 28.2083 349.769 28.2776 349.7 28.3683C349.631 28.4536 349.596 28.5683 349.596 28.7123C349.596 28.979 349.681 29.1656 349.852 29.2723C350.023 29.3736 350.255 29.4243 350.548 29.4243ZM350.484 25.6963C350.783 25.6963 351.033 25.7363 351.236 25.8163C351.444 25.891 351.609 26.0003 351.732 26.1443C351.86 26.283 351.951 26.451 352.004 26.6483C352.057 26.8403 352.084 27.0536 352.084 27.2883V29.8883C352.02 29.899 351.929 29.915 351.812 29.9363C351.7 29.9523 351.572 29.9683 351.428 29.9843C351.284 30.0003 351.127 30.0136 350.956 30.0243C350.791 30.0403 350.625 30.0483 350.46 30.0483C350.225 30.0483 350.009 30.0243 349.812 29.9763C349.615 29.9283 349.444 29.8536 349.3 29.7523C349.156 29.6456 349.044 29.507 348.964 29.3363C348.884 29.1656 348.844 28.9603 348.844 28.7203C348.844 28.491 348.889 28.2936 348.98 28.1283C349.076 27.963 349.204 27.8296 349.364 27.7283C349.524 27.627 349.711 27.5523 349.924 27.5043C350.137 27.4563 350.361 27.4323 350.596 27.4323C350.671 27.4323 350.748 27.4376 350.828 27.4483C350.908 27.4536 350.983 27.4643 351.052 27.4803C351.127 27.491 351.191 27.5016 351.244 27.5123C351.297 27.523 351.335 27.531 351.356 27.5363V27.3283C351.356 27.2056 351.343 27.0856 351.316 26.9683C351.289 26.8456 351.241 26.739 351.172 26.6483C351.103 26.5523 351.007 26.4776 350.884 26.4243C350.767 26.3656 350.612 26.3363 350.42 26.3363C350.175 26.3363 349.959 26.355 349.772 26.3923C349.591 26.4243 349.455 26.459 349.364 26.4963L349.276 25.8803C349.372 25.8376 349.532 25.7976 349.756 25.7603C349.98 25.7176 350.223 25.6963 350.484 25.6963ZM355.368 30.0403C354.909 30.0296 354.584 29.931 354.392 29.7443C354.2 29.5576 354.104 29.267 354.104 28.8723V23.8803L354.848 23.7523V28.7523C354.848 28.875 354.858 28.9763 354.88 29.0563C354.901 29.1363 354.936 29.2003 354.984 29.2483C355.032 29.2963 355.096 29.3336 355.176 29.3603C355.256 29.3816 355.354 29.4003 355.472 29.4163L355.368 30.0403ZM357.851 29.9603H357.107V25.8003H357.851V29.9603ZM357.475 25.0483C357.342 25.0483 357.227 25.0056 357.131 24.9203C357.041 24.8296 356.995 24.7096 356.995 24.5603C356.995 24.411 357.041 24.2936 357.131 24.2083C357.227 24.1176 357.342 24.0723 357.475 24.0723C357.609 24.0723 357.721 24.1176 357.811 24.2083C357.907 24.2936 357.955 24.411 357.955 24.5603C357.955 24.7096 357.907 24.8296 357.811 24.9203C357.721 25.0056 357.609 25.0483 357.475 25.0483ZM362.539 29.5443C362.475 29.587 362.349 29.643 362.163 29.7123C361.981 29.7763 361.768 29.8083 361.523 29.8083C361.272 29.8083 361.035 29.7683 360.811 29.6883C360.592 29.6083 360.4 29.4856 360.235 29.3203C360.069 29.1496 359.939 28.939 359.843 28.6883C359.747 28.4376 359.699 28.139 359.699 27.7923C359.699 27.4883 359.744 27.211 359.835 26.9603C359.925 26.7043 360.056 26.4856 360.227 26.3043C360.403 26.1176 360.616 25.9736 360.867 25.8723C361.117 25.7656 361.4 25.7123 361.715 25.7123C362.061 25.7123 362.363 25.739 362.619 25.7923C362.88 25.8403 363.099 25.8856 363.275 25.9283V29.6403C363.275 30.2803 363.109 30.7443 362.779 31.0323C362.448 31.3203 361.947 31.4643 361.275 31.4643C361.013 31.4643 360.765 31.443 360.531 31.4003C360.301 31.3576 360.101 31.307 359.931 31.2483L360.067 30.6003C360.216 30.659 360.397 30.7096 360.611 30.7523C360.829 30.8003 361.056 30.8243 361.291 30.8243C361.733 30.8243 362.051 30.7363 362.243 30.5603C362.44 30.3843 362.539 30.1043 362.539 29.7203V29.5443ZM362.531 26.4563C362.456 26.435 362.355 26.4163 362.227 26.4003C362.104 26.379 361.936 26.3683 361.723 26.3683C361.323 26.3683 361.013 26.499 360.795 26.7603C360.581 27.0216 360.475 27.3683 360.475 27.8003C360.475 28.0403 360.504 28.2456 360.563 28.4163C360.627 28.587 360.709 28.7283 360.811 28.8403C360.917 28.9523 361.037 29.035 361.171 29.0883C361.309 29.1416 361.451 29.1683 361.595 29.1683C361.792 29.1683 361.973 29.1416 362.139 29.0883C362.304 29.0296 362.435 28.963 362.531 28.8883V26.4563ZM365.356 25.9203C365.526 25.8776 365.753 25.8323 366.036 25.7843C366.318 25.7363 366.644 25.7123 367.012 25.7123C367.342 25.7123 367.617 25.7603 367.836 25.8563C368.054 25.947 368.228 26.0776 368.356 26.2483C368.489 26.4136 368.582 26.6136 368.636 26.8483C368.689 27.083 368.716 27.3416 368.716 27.6243V29.9603H367.972V27.7843C367.972 27.5283 367.953 27.3096 367.916 27.1283C367.884 26.947 367.828 26.8003 367.748 26.6883C367.668 26.5763 367.561 26.4963 367.428 26.4483C367.294 26.395 367.129 26.3683 366.932 26.3683C366.852 26.3683 366.769 26.371 366.684 26.3763C366.598 26.3816 366.516 26.3896 366.436 26.4003C366.361 26.4056 366.292 26.4136 366.228 26.4243C366.169 26.435 366.126 26.443 366.1 26.4483V29.9603H365.356V25.9203ZM372.117 29.9603V27.7363C371.749 27.1656 371.403 26.603 371.077 26.0483C370.752 25.4936 370.445 24.9496 370.157 24.4163H371.069C371.272 24.8536 371.499 25.299 371.749 25.7523C372 26.2003 372.259 26.6323 372.525 27.0483C372.787 26.6323 373.043 26.2003 373.293 25.7523C373.544 25.299 373.773 24.8536 373.981 24.4163H374.845C374.557 24.9496 374.251 25.4936 373.925 26.0483C373.6 26.5976 373.256 27.155 372.893 27.7203V29.9603H372.117ZM376.906 29.5283C376.906 29.6723 376.858 29.7976 376.762 29.9043C376.666 30.011 376.535 30.0643 376.37 30.0643C376.205 30.0643 376.074 30.011 375.978 29.9043C375.882 29.7976 375.834 29.6723 375.834 29.5283C375.834 29.3843 375.882 29.259 375.978 29.1523C376.074 29.0456 376.205 28.9923 376.37 28.9923C376.535 28.9923 376.666 29.0456 376.762 29.1523C376.858 29.259 376.906 29.3843 376.906 29.5283ZM376.906 26.3363C376.906 26.4803 376.858 26.6056 376.762 26.7123C376.666 26.819 376.535 26.8723 376.37 26.8723C376.205 26.8723 376.074 26.819 375.978 26.7123C375.882 26.6056 375.834 26.4803 375.834 26.3363C375.834 26.1923 375.882 26.067 375.978 25.9603C376.074 25.8536 376.205 25.8003 376.37 25.8003C376.535 25.8003 376.666 25.8536 376.762 25.9603C376.858 26.067 376.906 26.1923 376.906 26.3363ZM383.254 30.0563C382.918 30.0563 382.622 30.003 382.366 29.8963C382.116 29.7896 381.902 29.6403 381.726 29.4483C381.556 29.2563 381.428 29.0296 381.342 28.7683C381.257 28.5016 381.214 28.2083 381.214 27.8883C381.214 27.5683 381.26 27.275 381.35 27.0083C381.446 26.7416 381.58 26.5123 381.75 26.3203C381.921 26.123 382.129 25.971 382.374 25.8643C382.625 25.7523 382.902 25.6963 383.206 25.6963C383.393 25.6963 383.58 25.7123 383.766 25.7443C383.953 25.7763 384.132 25.827 384.302 25.8963L384.134 26.5283C384.022 26.475 383.892 26.4323 383.742 26.4003C383.598 26.3683 383.444 26.3523 383.278 26.3523C382.862 26.3523 382.542 26.483 382.318 26.7443C382.1 27.0056 381.99 27.387 381.99 27.8883C381.99 28.1123 382.014 28.3176 382.062 28.5043C382.116 28.691 382.196 28.851 382.302 28.9843C382.414 29.1176 382.556 29.2216 382.726 29.2963C382.897 29.3656 383.105 29.4003 383.35 29.4003C383.548 29.4003 383.726 29.3816 383.886 29.3443C384.046 29.307 384.172 29.267 384.262 29.2243L384.366 29.8483C384.324 29.875 384.262 29.9016 384.182 29.9283C384.102 29.9496 384.012 29.9683 383.91 29.9843C383.809 30.0056 383.7 30.0216 383.582 30.0323C383.47 30.0483 383.361 30.0563 383.254 30.0563ZM385.733 27.8883C385.733 27.5203 385.786 27.2003 385.893 26.9283C386 26.651 386.141 26.4216 386.317 26.2403C386.493 26.059 386.696 25.923 386.925 25.8323C387.154 25.7416 387.389 25.6963 387.629 25.6963C388.189 25.6963 388.618 25.8723 388.917 26.2243C389.216 26.571 389.365 27.1016 389.365 27.8163C389.365 27.8483 389.365 27.891 389.365 27.9443C389.365 27.9923 389.362 28.0376 389.357 28.0803H386.509C386.541 28.5123 386.666 28.8403 386.885 29.0643C387.104 29.2883 387.445 29.4003 387.909 29.4003C388.17 29.4003 388.389 29.379 388.565 29.3363C388.746 29.2883 388.882 29.243 388.973 29.2003L389.077 29.8243C388.986 29.8723 388.826 29.923 388.597 29.9763C388.373 30.0296 388.117 30.0563 387.829 30.0563C387.466 30.0563 387.152 30.003 386.885 29.8963C386.624 29.7843 386.408 29.6323 386.237 29.4403C386.066 29.2483 385.938 29.0216 385.853 28.7603C385.773 28.4936 385.733 28.203 385.733 27.8883ZM388.589 27.4803C388.594 27.1443 388.509 26.8696 388.333 26.6563C388.162 26.4376 387.925 26.3283 387.621 26.3283C387.45 26.3283 387.298 26.363 387.165 26.4323C387.037 26.4963 386.928 26.5816 386.837 26.6883C386.746 26.795 386.674 26.9176 386.621 27.0563C386.573 27.195 386.541 27.3363 386.525 27.4803H388.589ZM391.234 25.9203C391.404 25.8776 391.631 25.8323 391.914 25.7843C392.196 25.7363 392.522 25.7123 392.89 25.7123C393.22 25.7123 393.495 25.7603 393.714 25.8563C393.932 25.947 394.106 26.0776 394.234 26.2483C394.367 26.4136 394.46 26.6136 394.514 26.8483C394.567 27.083 394.594 27.3416 394.594 27.6243V29.9603H393.85V27.7843C393.85 27.5283 393.831 27.3096 393.794 27.1283C393.762 26.947 393.706 26.8003 393.626 26.6883C393.546 26.5763 393.439 26.4963 393.306 26.4483C393.172 26.395 393.007 26.3683 392.81 26.3683C392.73 26.3683 392.647 26.371 392.562 26.3763C392.476 26.3816 392.394 26.3896 392.314 26.4003C392.239 26.4056 392.17 26.4136 392.106 26.4243C392.047 26.435 392.004 26.443 391.978 26.4483V29.9603H391.234V25.9203ZM397.323 25.8003H398.899V26.4243H397.323V28.3443C397.323 28.5523 397.339 28.7256 397.371 28.8643C397.403 28.9976 397.451 29.1043 397.515 29.1843C397.579 29.259 397.659 29.3123 397.755 29.3443C397.851 29.3763 397.963 29.3923 398.091 29.3923C398.315 29.3923 398.494 29.3683 398.627 29.3203C398.766 29.267 398.862 29.2296 398.915 29.2083L399.059 29.8243C398.985 29.8616 398.854 29.907 398.667 29.9603C398.481 30.019 398.267 30.0483 398.027 30.0483C397.745 30.0483 397.51 30.0136 397.323 29.9443C397.142 29.8696 396.995 29.7603 396.883 29.6163C396.771 29.4723 396.691 29.2963 396.643 29.0883C396.601 28.875 396.579 28.6296 396.579 28.3523V24.6403L397.323 24.5123V25.8003ZM400.336 27.8883C400.336 27.5203 400.389 27.2003 400.496 26.9283C400.603 26.651 400.744 26.4216 400.92 26.2403C401.096 26.059 401.299 25.923 401.528 25.8323C401.757 25.7416 401.992 25.6963 402.232 25.6963C402.792 25.6963 403.221 25.8723 403.52 26.2243C403.819 26.571 403.968 27.1016 403.968 27.8163C403.968 27.8483 403.968 27.891 403.968 27.9443C403.968 27.9923 403.965 28.0376 403.96 28.0803H401.112C401.144 28.5123 401.269 28.8403 401.488 29.0643C401.707 29.2883 402.048 29.4003 402.512 29.4003C402.773 29.4003 402.992 29.379 403.168 29.3363C403.349 29.2883 403.485 29.243 403.576 29.2003L403.68 29.8243C403.589 29.8723 403.429 29.923 403.2 29.9763C402.976 30.0296 402.72 30.0563 402.432 30.0563C402.069 30.0563 401.755 30.003 401.488 29.8963C401.227 29.7843 401.011 29.6323 400.84 29.4403C400.669 29.2483 400.541 29.0216 400.456 28.7603C400.376 28.4936 400.336 28.203 400.336 27.8883ZM403.192 27.4803C403.197 27.1443 403.112 26.8696 402.936 26.6563C402.765 26.4376 402.528 26.3283 402.224 26.3283C402.053 26.3283 401.901 26.363 401.768 26.4323C401.64 26.4963 401.531 26.5816 401.44 26.6883C401.349 26.795 401.277 26.9176 401.224 27.0563C401.176 27.195 401.144 27.3363 401.128 27.4803H403.192ZM407.373 25.7123C407.437 25.7123 407.509 25.7176 407.589 25.7283C407.674 25.7336 407.757 25.7443 407.837 25.7603C407.917 25.771 407.989 25.7843 408.053 25.8003C408.122 25.811 408.173 25.8216 408.205 25.8323L408.077 26.4803C408.018 26.459 407.92 26.435 407.781 26.4083C407.648 26.3763 407.474 26.3603 407.261 26.3603C407.122 26.3603 406.984 26.3763 406.845 26.4083C406.712 26.435 406.624 26.4536 406.581 26.4643V29.9603H405.837V25.9763C406.013 25.9123 406.232 25.8536 406.493 25.8003C406.754 25.7416 407.048 25.7123 407.373 25.7123ZM410.507 29.0483C410.512 29.091 410.515 29.1336 410.515 29.1763C410.515 29.2136 410.515 29.2536 410.515 29.2963C410.515 29.6323 410.464 29.963 410.363 30.2883C410.267 30.619 410.133 30.9336 409.963 31.2323L409.387 31.0483C409.52 30.7763 409.608 30.499 409.651 30.2163C409.693 29.939 409.715 29.6776 409.715 29.4323C409.715 29.363 409.712 29.2963 409.707 29.2323C409.707 29.1683 409.704 29.107 409.699 29.0483H410.507ZM410.603 26.3363C410.603 26.4803 410.555 26.6056 410.459 26.7123C410.363 26.819 410.232 26.8723 410.067 26.8723C409.901 26.8723 409.771 26.819 409.675 26.7123C409.579 26.6056 409.531 26.4803 409.531 26.3363C409.531 26.1923 409.579 26.067 409.675 25.9603C409.771 25.8536 409.901 25.8003 410.067 25.8003C410.232 25.8003 410.363 25.8536 410.459 25.9603C410.555 26.067 410.603 26.1923 410.603 26.3363ZM416.551 29.4243C416.727 29.4243 416.882 29.4216 417.015 29.4163C417.154 29.4056 417.268 29.3896 417.359 29.3683V28.1283C417.306 28.1016 417.218 28.0803 417.095 28.0643C416.978 28.043 416.834 28.0323 416.663 28.0323C416.551 28.0323 416.431 28.0403 416.303 28.0563C416.18 28.0723 416.066 28.107 415.959 28.1603C415.858 28.2083 415.772 28.2776 415.703 28.3683C415.634 28.4536 415.599 28.5683 415.599 28.7123C415.599 28.979 415.684 29.1656 415.855 29.2723C416.026 29.3736 416.258 29.4243 416.551 29.4243ZM416.487 25.6963C416.786 25.6963 417.036 25.7363 417.239 25.8163C417.447 25.891 417.612 26.0003 417.735 26.1443C417.863 26.283 417.954 26.451 418.007 26.6483C418.06 26.8403 418.087 27.0536 418.087 27.2883V29.8883C418.023 29.899 417.932 29.915 417.815 29.9363C417.703 29.9523 417.575 29.9683 417.431 29.9843C417.287 30.0003 417.13 30.0136 416.959 30.0243C416.794 30.0403 416.628 30.0483 416.463 30.0483C416.228 30.0483 416.012 30.0243 415.815 29.9763C415.618 29.9283 415.447 29.8536 415.303 29.7523C415.159 29.6456 415.047 29.507 414.967 29.3363C414.887 29.1656 414.847 28.9603 414.847 28.7203C414.847 28.491 414.892 28.2936 414.983 28.1283C415.079 27.963 415.207 27.8296 415.367 27.7283C415.527 27.627 415.714 27.5523 415.927 27.5043C416.14 27.4563 416.364 27.4323 416.599 27.4323C416.674 27.4323 416.751 27.4376 416.831 27.4483C416.911 27.4536 416.986 27.4643 417.055 27.4803C417.13 27.491 417.194 27.5016 417.247 27.5123C417.3 27.523 417.338 27.531 417.359 27.5363V27.3283C417.359 27.2056 417.346 27.0856 417.319 26.9683C417.292 26.8456 417.244 26.739 417.175 26.6483C417.106 26.5523 417.01 26.4776 416.887 26.4243C416.77 26.3656 416.615 26.3363 416.423 26.3363C416.178 26.3363 415.962 26.355 415.775 26.3923C415.594 26.4243 415.458 26.459 415.367 26.4963L415.279 25.8803C415.375 25.8376 415.535 25.7976 415.759 25.7603C415.983 25.7176 416.226 25.6963 416.487 25.6963ZM421.371 30.0403C420.912 30.0296 420.587 29.931 420.395 29.7443C420.203 29.5576 420.107 29.267 420.107 28.8723V23.8803L420.851 23.7523V28.7523C420.851 28.875 420.861 28.9763 420.883 29.0563C420.904 29.1363 420.939 29.2003 420.987 29.2483C421.035 29.2963 421.099 29.3336 421.179 29.3603C421.259 29.3816 421.357 29.4003 421.475 29.4163L421.371 30.0403ZM423.854 29.9603H423.11V25.8003H423.854V29.9603ZM423.478 25.0483C423.345 25.0483 423.23 25.0056 423.134 24.9203C423.044 24.8296 422.998 24.7096 422.998 24.5603C422.998 24.411 423.044 24.2936 423.134 24.2083C423.23 24.1176 423.345 24.0723 423.478 24.0723C423.612 24.0723 423.724 24.1176 423.814 24.2083C423.91 24.2936 423.958 24.411 423.958 24.5603C423.958 24.7096 423.91 24.8296 423.814 24.9203C423.724 25.0056 423.612 25.0483 423.478 25.0483ZM428.542 29.5443C428.478 29.587 428.352 29.643 428.166 29.7123C427.984 29.7763 427.771 29.8083 427.526 29.8083C427.275 29.8083 427.038 29.7683 426.814 29.6883C426.595 29.6083 426.403 29.4856 426.238 29.3203C426.072 29.1496 425.942 28.939 425.846 28.6883C425.75 28.4376 425.702 28.139 425.702 27.7923C425.702 27.4883 425.747 27.211 425.838 26.9603C425.928 26.7043 426.059 26.4856 426.23 26.3043C426.406 26.1176 426.619 25.9736 426.87 25.8723C427.12 25.7656 427.403 25.7123 427.718 25.7123C428.064 25.7123 428.366 25.739 428.622 25.7923C428.883 25.8403 429.102 25.8856 429.278 25.9283V29.6403C429.278 30.2803 429.112 30.7443 428.782 31.0323C428.451 31.3203 427.95 31.4643 427.278 31.4643C427.016 31.4643 426.768 31.443 426.534 31.4003C426.304 31.3576 426.104 31.307 425.934 31.2483L426.07 30.6003C426.219 30.659 426.4 30.7096 426.614 30.7523C426.832 30.8003 427.059 30.8243 427.294 30.8243C427.736 30.8243 428.054 30.7363 428.246 30.5603C428.443 30.3843 428.542 30.1043 428.542 29.7203V29.5443ZM428.534 26.4563C428.459 26.435 428.358 26.4163 428.23 26.4003C428.107 26.379 427.939 26.3683 427.726 26.3683C427.326 26.3683 427.016 26.499 426.798 26.7603C426.584 27.0216 426.478 27.3683 426.478 27.8003C426.478 28.0403 426.507 28.2456 426.566 28.4163C426.63 28.587 426.712 28.7283 426.814 28.8403C426.92 28.9523 427.04 29.035 427.174 29.0883C427.312 29.1416 427.454 29.1683 427.598 29.1683C427.795 29.1683 427.976 29.1416 428.142 29.0883C428.307 29.0296 428.438 28.963 428.534 28.8883V26.4563ZM431.359 25.9203C431.529 25.8776 431.756 25.8323 432.039 25.7843C432.321 25.7363 432.647 25.7123 433.015 25.7123C433.345 25.7123 433.62 25.7603 433.839 25.8563C434.057 25.947 434.231 26.0776 434.359 26.2483C434.492 26.4136 434.585 26.6136 434.639 26.8483C434.692 27.083 434.719 27.3416 434.719 27.6243V29.9603H433.975V27.7843C433.975 27.5283 433.956 27.3096 433.919 27.1283C433.887 26.947 433.831 26.8003 433.751 26.6883C433.671 26.5763 433.564 26.4963 433.431 26.4483C433.297 26.395 433.132 26.3683 432.935 26.3683C432.855 26.3683 432.772 26.371 432.687 26.3763C432.601 26.3816 432.519 26.3896 432.439 26.4003C432.364 26.4056 432.295 26.4136 432.231 26.4243C432.172 26.435 432.129 26.443 432.103 26.4483V29.9603H431.359V25.9203ZM440.129 29.9603C440.049 29.8003 439.953 29.6243 439.841 29.4323C439.729 29.235 439.606 29.0323 439.473 28.8243C439.339 28.611 439.201 28.4003 439.057 28.1923C438.913 27.979 438.774 27.779 438.641 27.5923C438.507 27.779 438.369 27.979 438.225 28.1923C438.081 28.4003 437.942 28.611 437.809 28.8243C437.681 29.0323 437.558 29.235 437.441 29.4323C437.329 29.6243 437.233 29.8003 437.153 29.9603H436.297C436.537 29.491 436.814 29.0136 437.129 28.5283C437.449 28.043 437.787 27.5443 438.145 27.0323L436.369 24.4163H437.265L438.633 26.4803L439.985 24.4163H440.873L439.129 27.0003C439.491 27.5176 439.833 28.0216 440.153 28.5123C440.473 29.003 440.755 29.4856 441.001 29.9603H440.129ZM443.479 29.5283C443.479 29.6723 443.431 29.7976 443.335 29.9043C443.239 30.011 443.109 30.0643 442.943 30.0643C442.778 30.0643 442.647 30.011 442.551 29.9043C442.455 29.7976 442.407 29.6723 442.407 29.5283C442.407 29.3843 442.455 29.259 442.551 29.1523C442.647 29.0456 442.778 28.9923 442.943 28.9923C443.109 28.9923 443.239 29.0456 443.335 29.1523C443.431 29.259 443.479 29.3843 443.479 29.5283ZM443.479 26.3363C443.479 26.4803 443.431 26.6056 443.335 26.7123C443.239 26.819 443.109 26.8723 442.943 26.8723C442.778 26.8723 442.647 26.819 442.551 26.7123C442.455 26.6056 442.407 26.4803 442.407 26.3363C442.407 26.1923 442.455 26.067 442.551 25.9603C442.647 25.8536 442.778 25.8003 442.943 25.8003C443.109 25.8003 443.239 25.8536 443.335 25.9603C443.431 26.067 443.479 26.1923 443.479 26.3363ZM449.828 30.0563C449.492 30.0563 449.196 30.003 448.94 29.8963C448.689 29.7896 448.476 29.6403 448.3 29.4483C448.129 29.2563 448.001 29.0296 447.916 28.7683C447.83 28.5016 447.788 28.2083 447.788 27.8883C447.788 27.5683 447.833 27.275 447.924 27.0083C448.02 26.7416 448.153 26.5123 448.324 26.3203C448.494 26.123 448.702 25.971 448.948 25.8643C449.198 25.7523 449.476 25.6963 449.78 25.6963C449.966 25.6963 450.153 25.7123 450.34 25.7443C450.526 25.7763 450.705 25.827 450.876 25.8963L450.708 26.5283C450.596 26.475 450.465 26.4323 450.316 26.4003C450.172 26.3683 450.017 26.3523 449.852 26.3523C449.436 26.3523 449.116 26.483 448.892 26.7443C448.673 27.0056 448.564 27.387 448.564 27.8883C448.564 28.1123 448.588 28.3176 448.636 28.5043C448.689 28.691 448.769 28.851 448.876 28.9843C448.988 29.1176 449.129 29.2216 449.3 29.2963C449.47 29.3656 449.678 29.4003 449.924 29.4003C450.121 29.4003 450.3 29.3816 450.46 29.3443C450.62 29.307 450.745 29.267 450.836 29.2243L450.94 29.8483C450.897 29.875 450.836 29.9016 450.756 29.9283C450.676 29.9496 450.585 29.9683 450.484 29.9843C450.382 30.0056 450.273 30.0216 450.156 30.0323C450.044 30.0483 449.934 30.0563 449.828 30.0563ZM452.306 27.8883C452.306 27.5203 452.36 27.2003 452.466 26.9283C452.573 26.651 452.714 26.4216 452.89 26.2403C453.066 26.059 453.269 25.923 453.498 25.8323C453.728 25.7416 453.962 25.6963 454.202 25.6963C454.762 25.6963 455.192 25.8723 455.49 26.2243C455.789 26.571 455.938 27.1016 455.938 27.8163C455.938 27.8483 455.938 27.891 455.938 27.9443C455.938 27.9923 455.936 28.0376 455.93 28.0803H453.082C453.114 28.5123 453.24 28.8403 453.458 29.0643C453.677 29.2883 454.018 29.4003 454.482 29.4003C454.744 29.4003 454.962 29.379 455.138 29.3363C455.32 29.2883 455.456 29.243 455.546 29.2003L455.65 29.8243C455.56 29.8723 455.4 29.923 455.17 29.9763C454.946 30.0296 454.69 30.0563 454.402 30.0563C454.04 30.0563 453.725 30.003 453.458 29.8963C453.197 29.7843 452.981 29.6323 452.81 29.4403C452.64 29.2483 452.512 29.0216 452.426 28.7603C452.346 28.4936 452.306 28.203 452.306 27.8883ZM455.162 27.4803C455.168 27.1443 455.082 26.8696 454.906 26.6563C454.736 26.4376 454.498 26.3283 454.194 26.3283C454.024 26.3283 453.872 26.363 453.738 26.4323C453.61 26.4963 453.501 26.5816 453.41 26.6883C453.32 26.795 453.248 26.9176 453.194 27.0563C453.146 27.195 453.114 27.3363 453.098 27.4803H455.162ZM457.807 25.9203C457.978 25.8776 458.205 25.8323 458.487 25.7843C458.77 25.7363 459.095 25.7123 459.463 25.7123C459.794 25.7123 460.069 25.7603 460.287 25.8563C460.506 25.947 460.679 26.0776 460.807 26.2483C460.941 26.4136 461.034 26.6136 461.087 26.8483C461.141 27.083 461.167 27.3416 461.167 27.6243V29.9603H460.423V27.7843C460.423 27.5283 460.405 27.3096 460.367 27.1283C460.335 26.947 460.279 26.8003 460.199 26.6883C460.119 26.5763 460.013 26.4963 459.879 26.4483C459.746 26.395 459.581 26.3683 459.383 26.3683C459.303 26.3683 459.221 26.371 459.135 26.3763C459.05 26.3816 458.967 26.3896 458.887 26.4003C458.813 26.4056 458.743 26.4136 458.679 26.4243C458.621 26.435 458.578 26.443 458.551 26.4483V29.9603H457.807V25.9203ZM463.897 25.8003H465.473V26.4243H463.897V28.3443C463.897 28.5523 463.913 28.7256 463.945 28.8643C463.977 28.9976 464.025 29.1043 464.089 29.1843C464.153 29.259 464.233 29.3123 464.329 29.3443C464.425 29.3763 464.537 29.3923 464.665 29.3923C464.889 29.3923 465.068 29.3683 465.201 29.3203C465.34 29.267 465.436 29.2296 465.489 29.2083L465.633 29.8243C465.558 29.8616 465.428 29.907 465.241 29.9603C465.054 30.019 464.841 30.0483 464.601 30.0483C464.318 30.0483 464.084 30.0136 463.897 29.9443C463.716 29.8696 463.569 29.7603 463.457 29.6163C463.345 29.4723 463.265 29.2963 463.217 29.0883C463.174 28.875 463.153 28.6296 463.153 28.3523V24.6403L463.897 24.5123V25.8003ZM466.91 27.8883C466.91 27.5203 466.963 27.2003 467.07 26.9283C467.176 26.651 467.318 26.4216 467.494 26.2403C467.67 26.059 467.872 25.923 468.102 25.8323C468.331 25.7416 468.566 25.6963 468.806 25.6963C469.366 25.6963 469.795 25.8723 470.094 26.2243C470.392 26.571 470.542 27.1016 470.542 27.8163C470.542 27.8483 470.542 27.891 470.542 27.9443C470.542 27.9923 470.539 28.0376 470.534 28.0803H467.686C467.718 28.5123 467.843 28.8403 468.062 29.0643C468.28 29.2883 468.622 29.4003 469.086 29.4003C469.347 29.4003 469.566 29.379 469.742 29.3363C469.923 29.2883 470.059 29.243 470.15 29.2003L470.254 29.8243C470.163 29.8723 470.003 29.923 469.774 29.9763C469.55 30.0296 469.294 30.0563 469.006 30.0563C468.643 30.0563 468.328 30.003 468.062 29.8963C467.8 29.7843 467.584 29.6323 467.414 29.4403C467.243 29.2483 467.115 29.0216 467.03 28.7603C466.95 28.4936 466.91 28.203 466.91 27.8883ZM469.766 27.4803C469.771 27.1443 469.686 26.8696 469.51 26.6563C469.339 26.4376 469.102 26.3283 468.798 26.3283C468.627 26.3283 468.475 26.363 468.342 26.4323C468.214 26.4963 468.104 26.5816 468.014 26.6883C467.923 26.795 467.851 26.9176 467.798 27.0563C467.75 27.195 467.718 27.3363 467.702 27.4803H469.766ZM473.946 25.7123C474.01 25.7123 474.082 25.7176 474.162 25.7283C474.248 25.7336 474.33 25.7443 474.41 25.7603C474.49 25.771 474.562 25.7843 474.626 25.8003C474.696 25.811 474.746 25.8216 474.778 25.8323L474.65 26.4803C474.592 26.459 474.493 26.435 474.354 26.4083C474.221 26.3763 474.048 26.3603 473.834 26.3603C473.696 26.3603 473.557 26.3763 473.418 26.4083C473.285 26.435 473.197 26.4536 473.154 26.4643V29.9603H472.41V25.9763C472.586 25.9123 472.805 25.8536 473.066 25.8003C473.328 25.7416 473.621 25.7123 473.946 25.7123ZM477.08 29.0483C477.086 29.091 477.088 29.1336 477.088 29.1763C477.088 29.2136 477.088 29.2536 477.088 29.2963C477.088 29.6323 477.038 29.963 476.936 30.2883C476.84 30.619 476.707 30.9336 476.536 31.2323L475.96 31.0483C476.094 30.7763 476.182 30.499 476.224 30.2163C476.267 29.939 476.288 29.6776 476.288 29.4323C476.288 29.363 476.286 29.2963 476.28 29.2323C476.28 29.1683 476.278 29.107 476.272 29.0483H477.08ZM477.176 26.3363C477.176 26.4803 477.128 26.6056 477.032 26.7123C476.936 26.819 476.806 26.8723 476.64 26.8723C476.475 26.8723 476.344 26.819 476.248 26.7123C476.152 26.6056 476.104 26.4803 476.104 26.3363C476.104 26.1923 476.152 26.067 476.248 25.9603C476.344 25.8536 476.475 25.8003 476.64 25.8003C476.806 25.8003 476.936 25.8536 477.032 25.9603C477.128 26.067 477.176 26.1923 477.176 26.3363Z" fill="white"/>
<rect x="434.5" y="114.679" width="84.976" height="95.7721" stroke="#FF0000"/>
<path d="M450.327 210.951H438.324L473.04 116.406H484.858L519.574 210.951H507.571L479.318 131.363H478.58L450.327 210.951ZM454.759 174.02H503.139V184.176H454.759V174.02Z" fill="white"/>
<rect x="351" y="35.86" width="255" height="255" stroke="white"/>
<line x1="479" y1="35.36" x2="479" y2="291.543" stroke="#D6D6D6" stroke-dasharray="2 2"/>
<line x1="350.409" y1="162.951" x2="606.591" y2="162.951" stroke="#D6D6D6" stroke-dasharray="2 2"/>
<path d="M484.35 41.8989C484.306 41.8109 484.252 41.7129 484.188 41.6049C484.124 41.4969 484.054 41.3869 483.978 41.2749C483.902 41.1589 483.824 41.0449 483.744 40.9329C483.664 40.8209 483.586 40.7149 483.51 40.6149C483.434 40.7149 483.356 40.8229 483.276 40.9389C483.196 41.0509 483.118 41.1649 483.042 41.2809C482.97 41.3929 482.902 41.5029 482.838 41.6109C482.774 41.7189 482.72 41.8149 482.676 41.8989H482.1C482.24 41.6269 482.406 41.3509 482.598 41.0709C482.794 40.7869 482.988 40.5169 483.18 40.2609L482.148 38.7789H482.778L483.522 39.8709L484.272 38.7789H484.866L483.858 40.2249C484.05 40.4849 484.246 40.7609 484.446 41.0529C484.65 41.3409 484.822 41.6229 484.962 41.8989H484.35Z" fill="white"/>
<path d="M354.272 172.436C354.316 172.456 354.372 172.474 354.44 172.49C354.512 172.51 354.582 172.52 354.65 172.52C354.87 172.52 355.042 172.47 355.166 172.37C355.29 172.274 355.402 172.116 355.502 171.896C355.25 171.416 355.014 170.908 354.794 170.372C354.578 169.832 354.398 169.286 354.254 168.734H354.854C354.898 168.914 354.95 169.108 355.01 169.316C355.074 169.524 355.144 169.738 355.22 169.958C355.296 170.178 355.378 170.398 355.466 170.618C355.554 170.838 355.646 171.05 355.742 171.254C355.894 170.834 356.026 170.418 356.138 170.006C356.25 169.594 356.356 169.17 356.456 168.734H357.032C356.888 169.322 356.728 169.888 356.552 170.432C356.376 170.972 356.186 171.478 355.982 171.95C355.902 172.13 355.818 172.284 355.73 172.412C355.646 172.544 355.552 172.652 355.448 172.736C355.344 172.82 355.226 172.882 355.094 172.922C354.966 172.962 354.82 172.982 354.656 172.982C354.612 172.982 354.566 172.978 354.518 172.97C354.47 172.966 354.422 172.958 354.374 172.946C354.33 172.938 354.288 172.928 354.248 172.916C354.212 172.904 354.186 172.894 354.17 172.886L354.272 172.436Z" fill="white"/>
<line x1="435.375" y1="114.198" x2="520.351" y2="210.27" stroke="#FF0000"/>
<line x1="434.626" y1="210.225" x2="519.602" y2="114.198" stroke="#FF0000"/>
<path d="M484 163.537C484 160.775 481.761 158.537 479 158.537H476C473.239 158.537 471 160.775 471 163.537V164.537C471 167.298 473.239 169.537 476 169.537H479C481.761 169.537 484 167.298 484 164.537V163.537Z" fill="#FF0000"/>
<path d="M474.851 163.761C474.851 163.286 474.92 162.867 475.059 162.505C475.203 162.142 475.395 161.841 475.635 161.601C475.88 161.355 476.163 161.171 476.483 161.049C476.808 160.926 477.152 160.865 477.515 160.865C477.872 160.865 478.208 160.926 478.523 161.049C478.843 161.171 479.123 161.355 479.363 161.601C479.603 161.841 479.792 162.142 479.931 162.505C480.075 162.867 480.147 163.286 480.147 163.761C480.147 164.235 480.075 164.654 479.931 165.017C479.792 165.379 479.603 165.683 479.363 165.929C479.123 166.169 478.843 166.35 478.523 166.473C478.208 166.595 477.872 166.657 477.515 166.657C477.152 166.657 476.808 166.595 476.483 166.473C476.163 166.35 475.88 166.169 475.635 165.929C475.395 165.683 475.203 165.379 475.059 165.017C474.92 164.654 474.851 164.235 474.851 163.761ZM475.667 163.761C475.667 164.097 475.709 164.403 475.795 164.681C475.88 164.953 476 165.185 476.155 165.377C476.315 165.569 476.507 165.718 476.731 165.825C476.96 165.926 477.216 165.977 477.499 165.977C477.781 165.977 478.035 165.926 478.259 165.825C478.483 165.718 478.672 165.569 478.827 165.377C478.987 165.185 479.109 164.953 479.195 164.681C479.28 164.403 479.323 164.097 479.323 163.761C479.323 163.425 479.28 163.121 479.195 162.849C479.109 162.571 478.987 162.337 478.827 162.145C478.672 161.953 478.483 161.806 478.259 161.705C478.035 161.598 477.781 161.545 477.499 161.545C477.216 161.545 476.96 161.598 476.731 161.705C476.507 161.806 476.315 161.953 476.155 162.145C476 162.337 475.88 162.571 475.795 162.849C475.709 163.121 475.667 163.425 475.667 163.761Z" fill="black"/>
<rect width="296" height="296" transform="translate(645.5 15.0428)" fill="#121212"/>
<path d="M665.548 32.9243C665.724 32.9243 665.879 32.9216 666.012 32.9163C666.151 32.9056 666.265 32.8896 666.356 32.8683V31.6283C666.303 31.6016 666.215 31.5803 666.092 31.5643C665.975 31.543 665.831 31.5323 665.66 31.5323C665.548 31.5323 665.428 31.5403 665.3 31.5563C665.177 31.5723 665.063 31.607 664.956 31.6603C664.855 31.7083 664.769 31.7776 664.7 31.8683C664.631 31.9536 664.596 32.0683 664.596 32.2123C664.596 32.479 664.681 32.6656 664.852 32.7723C665.023 32.8736 665.255 32.9243 665.548 32.9243ZM665.484 29.1963C665.783 29.1963 666.033 29.2363 666.236 29.3163C666.444 29.391 666.609 29.5003 666.732 29.6443C666.86 29.783 666.951 29.951 667.004 30.1483C667.057 30.3403 667.084 30.5536 667.084 30.7883V33.3883C667.02 33.399 666.929 33.415 666.812 33.4363C666.7 33.4523 666.572 33.4683 666.428 33.4843C666.284 33.5003 666.127 33.5136 665.956 33.5243C665.791 33.5403 665.625 33.5483 665.46 33.5483C665.225 33.5483 665.009 33.5243 664.812 33.4763C664.615 33.4283 664.444 33.3536 664.3 33.2523C664.156 33.1456 664.044 33.007 663.964 32.8363C663.884 32.6656 663.844 32.4603 663.844 32.2203C663.844 31.991 663.889 31.7936 663.98 31.6283C664.076 31.463 664.204 31.3296 664.364 31.2283C664.524 31.127 664.711 31.0523 664.924 31.0043C665.137 30.9563 665.361 30.9323 665.596 30.9323C665.671 30.9323 665.748 30.9376 665.828 30.9483C665.908 30.9536 665.983 30.9643 666.052 30.9803C666.127 30.991 666.191 31.0016 666.244 31.0123C666.297 31.023 666.335 31.031 666.356 31.0363V30.8283C666.356 30.7056 666.343 30.5856 666.316 30.4683C666.289 30.3456 666.241 30.239 666.172 30.1483C666.103 30.0523 666.007 29.9776 665.884 29.9243C665.767 29.8656 665.612 29.8363 665.42 29.8363C665.175 29.8363 664.959 29.855 664.772 29.8923C664.591 29.9243 664.455 29.959 664.364 29.9963L664.276 29.3803C664.372 29.3376 664.532 29.2976 664.756 29.2603C664.98 29.2176 665.223 29.1963 665.484 29.1963ZM670.368 33.5403C669.909 33.5296 669.584 33.431 669.392 33.2443C669.2 33.0576 669.104 32.767 669.104 32.3723V27.3803L669.848 27.2523V32.2523C669.848 32.375 669.858 32.4763 669.88 32.5563C669.901 32.6363 669.936 32.7003 669.984 32.7483C670.032 32.7963 670.096 32.8336 670.176 32.8603C670.256 32.8816 670.354 32.9003 670.472 32.9163L670.368 33.5403ZM672.851 33.4603H672.107V29.3003H672.851V33.4603ZM672.475 28.5483C672.342 28.5483 672.227 28.5056 672.131 28.4203C672.041 28.3296 671.995 28.2096 671.995 28.0603C671.995 27.911 672.041 27.7936 672.131 27.7083C672.227 27.6176 672.342 27.5723 672.475 27.5723C672.609 27.5723 672.721 27.6176 672.811 27.7083C672.907 27.7936 672.955 27.911 672.955 28.0603C672.955 28.2096 672.907 28.3296 672.811 28.4203C672.721 28.5056 672.609 28.5483 672.475 28.5483ZM677.539 33.0443C677.475 33.087 677.349 33.143 677.163 33.2123C676.981 33.2763 676.768 33.3083 676.523 33.3083C676.272 33.3083 676.035 33.2683 675.811 33.1883C675.592 33.1083 675.4 32.9856 675.235 32.8203C675.069 32.6496 674.939 32.439 674.843 32.1883C674.747 31.9376 674.699 31.639 674.699 31.2923C674.699 30.9883 674.744 30.711 674.835 30.4603C674.925 30.2043 675.056 29.9856 675.227 29.8043C675.403 29.6176 675.616 29.4736 675.867 29.3723C676.117 29.2656 676.4 29.2123 676.715 29.2123C677.061 29.2123 677.363 29.239 677.619 29.2923C677.88 29.3403 678.099 29.3856 678.275 29.4283V33.1403C678.275 33.7803 678.109 34.2443 677.779 34.5323C677.448 34.8203 676.947 34.9643 676.275 34.9643C676.013 34.9643 675.765 34.943 675.531 34.9003C675.301 34.8576 675.101 34.807 674.931 34.7483L675.067 34.1003C675.216 34.159 675.397 34.2096 675.611 34.2523C675.829 34.3003 676.056 34.3243 676.291 34.3243C676.733 34.3243 677.051 34.2363 677.243 34.0603C677.44 33.8843 677.539 33.6043 677.539 33.2203V33.0443ZM677.531 29.9563C677.456 29.935 677.355 29.9163 677.227 29.9003C677.104 29.879 676.936 29.8683 676.723 29.8683C676.323 29.8683 676.013 29.999 675.795 30.2603C675.581 30.5216 675.475 30.8683 675.475 31.3003C675.475 31.5403 675.504 31.7456 675.563 31.9163C675.627 32.087 675.709 32.2283 675.811 32.3403C675.917 32.4523 676.037 32.535 676.171 32.5883C676.309 32.6416 676.451 32.6683 676.595 32.6683C676.792 32.6683 676.973 32.6416 677.139 32.5883C677.304 32.5296 677.435 32.463 677.531 32.3883V29.9563ZM680.356 29.4203C680.526 29.3776 680.753 29.3323 681.036 29.2843C681.318 29.2363 681.644 29.2123 682.012 29.2123C682.342 29.2123 682.617 29.2603 682.836 29.3563C683.054 29.447 683.228 29.5776 683.356 29.7483C683.489 29.9136 683.582 30.1136 683.636 30.3483C683.689 30.583 683.716 30.8416 683.716 31.1243V33.4603H682.972V31.2843C682.972 31.0283 682.953 30.8096 682.916 30.6283C682.884 30.447 682.828 30.3003 682.748 30.1883C682.668 30.0763 682.561 29.9963 682.428 29.9483C682.294 29.895 682.129 29.8683 681.932 29.8683C681.852 29.8683 681.769 29.871 681.684 29.8763C681.598 29.8816 681.516 29.8896 681.436 29.9003C681.361 29.9056 681.292 29.9136 681.228 29.9243C681.169 29.935 681.126 29.943 681.1 29.9483V33.4603H680.356V29.4203ZM687.117 33.4603V31.2363C686.749 30.6656 686.403 30.103 686.077 29.5483C685.752 28.9936 685.445 28.4496 685.157 27.9163H686.069C686.272 28.3536 686.499 28.799 686.749 29.2523C687 29.7003 687.259 30.1323 687.525 30.5483C687.787 30.1323 688.043 29.7003 688.293 29.2523C688.544 28.799 688.773 28.3536 688.981 27.9163H689.845C689.557 28.4496 689.251 28.9936 688.925 29.5483C688.6 30.0976 688.256 30.655 687.893 31.2203V33.4603H687.117ZM691.906 33.0283C691.906 33.1723 691.858 33.2976 691.762 33.4043C691.666 33.511 691.535 33.5643 691.37 33.5643C691.205 33.5643 691.074 33.511 690.978 33.4043C690.882 33.2976 690.834 33.1723 690.834 33.0283C690.834 32.8843 690.882 32.759 690.978 32.6523C691.074 32.5456 691.205 32.4923 691.37 32.4923C691.535 32.4923 691.666 32.5456 691.762 32.6523C691.858 32.759 691.906 32.8843 691.906 33.0283ZM691.906 29.8363C691.906 29.9803 691.858 30.1056 691.762 30.2123C691.666 30.319 691.535 30.3723 691.37 30.3723C691.205 30.3723 691.074 30.319 690.978 30.2123C690.882 30.1056 690.834 29.9803 690.834 29.8363C690.834 29.6923 690.882 29.567 690.978 29.4603C691.074 29.3536 691.205 29.3003 691.37 29.3003C691.535 29.3003 691.666 29.3536 691.762 29.4603C691.858 29.567 691.906 29.6923 691.906 29.8363ZM697.19 29.4843C697.281 29.4256 697.417 29.3643 697.598 29.3003C697.785 29.2363 697.998 29.2043 698.238 29.2043C698.537 29.2043 698.801 29.2576 699.03 29.3643C699.265 29.471 699.462 29.6203 699.622 29.8123C699.782 30.0043 699.902 30.2336 699.982 30.5003C700.068 30.767 700.11 31.0603 700.11 31.3803C700.11 31.7163 700.06 32.0203 699.958 32.2923C699.862 32.559 699.724 32.7856 699.542 32.9723C699.361 33.159 699.142 33.303 698.886 33.4043C698.63 33.5056 698.342 33.5563 698.022 33.5563C697.676 33.5563 697.369 33.5323 697.102 33.4843C696.836 33.4363 696.617 33.3883 696.446 33.3403V27.3803L697.19 27.2523V29.4843ZM697.19 32.8123C697.265 32.8336 697.369 32.855 697.502 32.8763C697.641 32.8923 697.812 32.9003 698.014 32.9003C698.414 32.9003 698.734 32.7696 698.974 32.5083C699.214 32.2416 699.334 31.8656 699.334 31.3803C699.334 31.167 699.313 30.967 699.27 30.7803C699.228 30.5936 699.158 30.4336 699.062 30.3003C698.966 30.1616 698.841 30.055 698.686 29.9803C698.537 29.9003 698.356 29.8603 698.142 29.8603C697.94 29.8603 697.753 29.895 697.582 29.9643C697.412 30.0336 697.281 30.1056 697.19 30.1803V32.8123ZM705.629 31.3803C705.629 31.711 705.581 32.0096 705.485 32.2763C705.389 32.543 705.253 32.7723 705.077 32.9643C704.907 33.1563 704.701 33.3056 704.461 33.4123C704.221 33.5136 703.96 33.5643 703.677 33.5643C703.395 33.5643 703.133 33.5136 702.893 33.4123C702.653 33.3056 702.445 33.1563 702.269 32.9643C702.099 32.7723 701.965 32.543 701.869 32.2763C701.773 32.0096 701.725 31.711 701.725 31.3803C701.725 31.055 701.773 30.759 701.869 30.4923C701.965 30.2203 702.099 29.9883 702.269 29.7963C702.445 29.6043 702.653 29.4576 702.893 29.3563C703.133 29.2496 703.395 29.1963 703.677 29.1963C703.96 29.1963 704.221 29.2496 704.461 29.3563C704.701 29.4576 704.907 29.6043 705.077 29.7963C705.253 29.9883 705.389 30.2203 705.485 30.4923C705.581 30.759 705.629 31.055 705.629 31.3803ZM704.853 31.3803C704.853 30.911 704.747 30.5403 704.533 30.2683C704.325 29.991 704.04 29.8523 703.677 29.8523C703.315 29.8523 703.027 29.991 702.813 30.2683C702.605 30.5403 702.501 30.911 702.501 31.3803C702.501 31.8496 702.605 32.223 702.813 32.5003C703.027 32.7723 703.315 32.9083 703.677 32.9083C704.04 32.9083 704.325 32.7723 704.533 32.5003C704.747 32.223 704.853 31.8496 704.853 31.3803ZM708.172 29.3003H709.748V29.9243H708.172V31.8443C708.172 32.0523 708.188 32.2256 708.22 32.3643C708.252 32.4976 708.3 32.6043 708.364 32.6843C708.428 32.759 708.508 32.8123 708.604 32.8443C708.7 32.8763 708.812 32.8923 708.94 32.8923C709.164 32.8923 709.343 32.8683 709.476 32.8203C709.615 32.767 709.711 32.7296 709.764 32.7083L709.908 33.3243C709.833 33.3616 709.703 33.407 709.516 33.4603C709.329 33.519 709.116 33.5483 708.876 33.5483C708.593 33.5483 708.359 33.5136 708.172 33.4443C707.991 33.3696 707.844 33.2603 707.732 33.1163C707.62 32.9723 707.54 32.7963 707.492 32.5883C707.449 32.375 707.428 32.1296 707.428 31.8523V28.1403L708.172 28.0123V29.3003ZM712.191 29.3003H713.767V29.9243H712.191V31.8443C712.191 32.0523 712.207 32.2256 712.239 32.3643C712.271 32.4976 712.319 32.6043 712.383 32.6843C712.447 32.759 712.527 32.8123 712.623 32.8443C712.719 32.8763 712.831 32.8923 712.959 32.8923C713.183 32.8923 713.361 32.8683 713.495 32.8203C713.633 32.767 713.729 32.7296 713.783 32.7083L713.927 33.3243C713.852 33.3616 713.721 33.407 713.535 33.4603C713.348 33.519 713.135 33.5483 712.895 33.5483C712.612 33.5483 712.377 33.5136 712.191 33.4443C712.009 33.3696 711.863 33.2603 711.751 33.1163C711.639 32.9723 711.559 32.7963 711.511 32.5883C711.468 32.375 711.447 32.1296 711.447 31.8523V28.1403L712.191 28.0123V29.3003ZM719.076 31.3803C719.076 31.711 719.028 32.0096 718.932 32.2763C718.836 32.543 718.7 32.7723 718.524 32.9643C718.353 33.1563 718.148 33.3056 717.908 33.4123C717.668 33.5136 717.407 33.5643 717.124 33.5643C716.841 33.5643 716.58 33.5136 716.34 33.4123C716.1 33.3056 715.892 33.1563 715.716 32.9643C715.545 32.7723 715.412 32.543 715.316 32.2763C715.22 32.0096 715.172 31.711 715.172 31.3803C715.172 31.055 715.22 30.759 715.316 30.4923C715.412 30.2203 715.545 29.9883 715.716 29.7963C715.892 29.6043 716.1 29.4576 716.34 29.3563C716.58 29.2496 716.841 29.1963 717.124 29.1963C717.407 29.1963 717.668 29.2496 717.908 29.3563C718.148 29.4576 718.353 29.6043 718.524 29.7963C718.7 29.9883 718.836 30.2203 718.932 30.4923C719.028 30.759 719.076 31.055 719.076 31.3803ZM718.3 31.3803C718.3 30.911 718.193 30.5403 717.98 30.2683C717.772 29.991 717.487 29.8523 717.124 29.8523C716.761 29.8523 716.473 29.991 716.26 30.2683C716.052 30.5403 715.948 30.911 715.948 31.3803C715.948 31.8496 716.052 32.223 716.26 32.5003C716.473 32.7723 716.761 32.9083 717.124 32.9083C717.487 32.9083 717.772 32.7723 717.98 32.5003C718.193 32.223 718.3 31.8496 718.3 31.3803ZM720.923 29.4203C721.093 29.3776 721.317 29.3323 721.595 29.2843C721.877 29.2363 722.203 29.2123 722.571 29.2123C722.837 29.2123 723.061 29.2496 723.243 29.3243C723.424 29.3936 723.576 29.4976 723.699 29.6363C723.736 29.6096 723.795 29.5723 723.875 29.5243C723.955 29.4763 724.053 29.431 724.171 29.3883C724.288 29.3403 724.419 29.3003 724.563 29.2683C724.707 29.231 724.861 29.2123 725.027 29.2123C725.347 29.2123 725.608 29.2603 725.811 29.3563C726.013 29.447 726.171 29.5776 726.283 29.7483C726.4 29.919 726.477 30.1216 726.515 30.3563C726.557 30.591 726.579 30.847 726.579 31.1243V33.4603H725.835V31.2843C725.835 31.039 725.821 30.8283 725.795 30.6523C725.773 30.4763 725.728 30.3296 725.659 30.2123C725.595 30.095 725.504 30.0096 725.387 29.9563C725.275 29.8976 725.128 29.8683 724.947 29.8683C724.696 29.8683 724.488 29.903 724.323 29.9723C724.163 30.0363 724.053 30.095 723.995 30.1483C724.037 30.287 724.069 30.439 724.091 30.6043C724.112 30.7696 724.123 30.943 724.123 31.1243V33.4603H723.379V31.2843C723.379 31.039 723.365 30.8283 723.339 30.6523C723.312 30.4763 723.264 30.3296 723.195 30.2123C723.131 30.095 723.04 30.0096 722.923 29.9563C722.811 29.8976 722.667 29.8683 722.491 29.8683C722.416 29.8683 722.336 29.871 722.251 29.8763C722.165 29.8816 722.083 29.8896 722.003 29.9003C721.928 29.9056 721.859 29.9136 721.795 29.9243C721.731 29.935 721.688 29.943 721.667 29.9483V33.4603H720.923V29.4203ZM729.397 32.5483C729.403 32.591 729.405 32.6336 729.405 32.6763C729.405 32.7136 729.405 32.7536 729.405 32.7963C729.405 33.1323 729.355 33.463 729.253 33.7883C729.157 34.119 729.024 34.4336 728.853 34.7323L728.277 34.5483C728.411 34.2763 728.499 33.999 728.541 33.7163C728.584 33.439 728.605 33.1776 728.605 32.9323C728.605 32.863 728.603 32.7963 728.597 32.7323C728.597 32.6683 728.595 32.607 728.589 32.5483H729.397ZM729.493 29.8363C729.493 29.9803 729.445 30.1056 729.349 30.2123C729.253 30.319 729.123 30.3723 728.957 30.3723C728.792 30.3723 728.661 30.319 728.565 30.2123C728.469 30.1056 728.421 29.9803 728.421 29.8363C728.421 29.6923 728.469 29.567 728.565 29.4603C728.661 29.3536 728.792 29.3003 728.957 29.3003C729.123 29.3003 729.253 29.3536 729.349 29.4603C729.445 29.567 729.493 29.6923 729.493 29.8363ZM735.442 32.9243C735.618 32.9243 735.772 32.9216 735.906 32.9163C736.044 32.9056 736.159 32.8896 736.25 32.8683V31.6283C736.196 31.6016 736.108 31.5803 735.986 31.5643C735.868 31.543 735.724 31.5323 735.554 31.5323C735.442 31.5323 735.322 31.5403 735.194 31.5563C735.071 31.5723 734.956 31.607 734.85 31.6603C734.748 31.7083 734.663 31.7776 734.594 31.8683C734.524 31.9536 734.49 32.0683 734.49 32.2123C734.49 32.479 734.575 32.6656 734.746 32.7723C734.916 32.8736 735.148 32.9243 735.442 32.9243ZM735.378 29.1963C735.676 29.1963 735.927 29.2363 736.13 29.3163C736.338 29.391 736.503 29.5003 736.626 29.6443C736.754 29.783 736.844 29.951 736.898 30.1483C736.951 30.3403 736.978 30.5536 736.978 30.7883V33.3883C736.914 33.399 736.823 33.415 736.706 33.4363C736.594 33.4523 736.466 33.4683 736.322 33.4843C736.178 33.5003 736.02 33.5136 735.85 33.5243C735.684 33.5403 735.519 33.5483 735.354 33.5483C735.119 33.5483 734.903 33.5243 734.706 33.4763C734.508 33.4283 734.338 33.3536 734.194 33.2523C734.05 33.1456 733.938 33.007 733.858 32.8363C733.778 32.6656 733.738 32.4603 733.738 32.2203C733.738 31.991 733.783 31.7936 733.874 31.6283C733.97 31.463 734.098 31.3296 734.258 31.2283C734.418 31.127 734.604 31.0523 734.818 31.0043C735.031 30.9563 735.255 30.9323 735.49 30.9323C735.564 30.9323 735.642 30.9376 735.722 30.9483C735.802 30.9536 735.876 30.9643 735.946 30.9803C736.02 30.991 736.084 31.0016 736.138 31.0123C736.191 31.023 736.228 31.031 736.25 31.0363V30.8283C736.25 30.7056 736.236 30.5856 736.21 30.4683C736.183 30.3456 736.135 30.239 736.066 30.1483C735.996 30.0523 735.9 29.9776 735.778 29.9243C735.66 29.8656 735.506 29.8363 735.314 29.8363C735.068 29.8363 734.852 29.855 734.666 29.8923C734.484 29.9243 734.348 29.959 734.258 29.9963L734.17 29.3803C734.266 29.3376 734.426 29.2976 734.65 29.2603C734.874 29.2176 735.116 29.1963 735.378 29.1963ZM740.261 33.5403C739.803 33.5296 739.477 33.431 739.285 33.2443C739.093 33.0576 738.997 32.767 738.997 32.3723V27.3803L739.741 27.2523V32.2523C739.741 32.375 739.752 32.4763 739.773 32.5563C739.795 32.6363 739.829 32.7003 739.877 32.7483C739.925 32.7963 739.989 32.8336 740.069 32.8603C740.149 32.8816 740.248 32.9003 740.365 32.9163L740.261 33.5403ZM742.745 33.4603H742.001V29.3003H742.745V33.4603ZM742.369 28.5483C742.236 28.5483 742.121 28.5056 742.025 28.4203C741.934 28.3296 741.889 28.2096 741.889 28.0603C741.889 27.911 741.934 27.7936 742.025 27.7083C742.121 27.6176 742.236 27.5723 742.369 27.5723C742.502 27.5723 742.614 27.6176 742.705 27.7083C742.801 27.7936 742.849 27.911 742.849 28.0603C742.849 28.2096 742.801 28.3296 742.705 28.4203C742.614 28.5056 742.502 28.5483 742.369 28.5483ZM747.432 33.0443C747.368 33.087 747.243 33.143 747.056 33.2123C746.875 33.2763 746.662 33.3083 746.416 33.3083C746.166 33.3083 745.928 33.2683 745.704 33.1883C745.486 33.1083 745.294 32.9856 745.128 32.8203C744.963 32.6496 744.832 32.439 744.736 32.1883C744.64 31.9376 744.592 31.639 744.592 31.2923C744.592 30.9883 744.638 30.711 744.728 30.4603C744.819 30.2043 744.95 29.9856 745.12 29.8043C745.296 29.6176 745.51 29.4736 745.76 29.3723C746.011 29.2656 746.294 29.2123 746.608 29.2123C746.955 29.2123 747.256 29.239 747.512 29.2923C747.774 29.3403 747.992 29.3856 748.168 29.4283V33.1403C748.168 33.7803 748.003 34.2443 747.672 34.5323C747.342 34.8203 746.84 34.9643 746.168 34.9643C745.907 34.9643 745.659 34.943 745.424 34.9003C745.195 34.8576 744.995 34.807 744.824 34.7483L744.96 34.1003C745.11 34.159 745.291 34.2096 745.504 34.2523C745.723 34.3003 745.95 34.3243 746.184 34.3243C746.627 34.3243 746.944 34.2363 747.136 34.0603C747.334 33.8843 747.432 33.6043 747.432 33.2203V33.0443ZM747.424 29.9563C747.35 29.935 747.248 29.9163 747.12 29.9003C746.998 29.879 746.83 29.8683 746.616 29.8683C746.216 29.8683 745.907 29.999 745.688 30.2603C745.475 30.5216 745.368 30.8683 745.368 31.3003C745.368 31.5403 745.398 31.7456 745.456 31.9163C745.52 32.087 745.603 32.2283 745.704 32.3403C745.811 32.4523 745.931 32.535 746.064 32.5883C746.203 32.6416 746.344 32.6683 746.488 32.6683C746.686 32.6683 746.867 32.6416 747.032 32.5883C747.198 32.5296 747.328 32.463 747.424 32.3883V29.9563ZM750.249 29.4203C750.42 29.3776 750.647 29.3323 750.929 29.2843C751.212 29.2363 751.537 29.2123 751.905 29.2123C752.236 29.2123 752.511 29.2603 752.729 29.3563C752.948 29.447 753.121 29.5776 753.249 29.7483C753.383 29.9136 753.476 30.1136 753.529 30.3483C753.583 30.583 753.609 30.8416 753.609 31.1243V33.4603H752.865V31.2843C752.865 31.0283 752.847 30.8096 752.809 30.6283C752.777 30.447 752.721 30.3003 752.641 30.1883C752.561 30.0763 752.455 29.9963 752.321 29.9483C752.188 29.895 752.023 29.8683 751.825 29.8683C751.745 29.8683 751.663 29.871 751.577 29.8763C751.492 29.8816 751.409 29.8896 751.329 29.9003C751.255 29.9056 751.185 29.9136 751.121 29.9243C751.063 29.935 751.02 29.943 750.993 29.9483V33.4603H750.249V29.4203ZM759.019 33.4603C758.939 33.3003 758.843 33.1243 758.731 32.9323C758.619 32.735 758.496 32.5323 758.363 32.3243C758.23 32.111 758.091 31.9003 757.947 31.6923C757.803 31.479 757.664 31.279 757.531 31.0923C757.398 31.279 757.259 31.479 757.115 31.6923C756.971 31.9003 756.832 32.111 756.699 32.3243C756.571 32.5323 756.448 32.735 756.331 32.9323C756.219 33.1243 756.123 33.3003 756.043 33.4603H755.187C755.427 32.991 755.704 32.5136 756.019 32.0283C756.339 31.543 756.678 31.0443 757.035 30.5323L755.259 27.9163H756.155L757.523 29.9803L758.875 27.9163H759.763L758.019 30.5003C758.382 31.0176 758.723 31.5216 759.043 32.0123C759.363 32.503 759.646 32.9856 759.891 33.4603H759.019ZM762.37 33.0283C762.37 33.1723 762.322 33.2976 762.226 33.4043C762.13 33.511 761.999 33.5643 761.834 33.5643C761.669 33.5643 761.538 33.511 761.442 33.4043C761.346 33.2976 761.298 33.1723 761.298 33.0283C761.298 32.8843 761.346 32.759 761.442 32.6523C761.538 32.5456 761.669 32.4923 761.834 32.4923C761.999 32.4923 762.13 32.5456 762.226 32.6523C762.322 32.759 762.37 32.8843 762.37 33.0283ZM762.37 29.8363C762.37 29.9803 762.322 30.1056 762.226 30.2123C762.13 30.319 761.999 30.3723 761.834 30.3723C761.669 30.3723 761.538 30.319 761.442 30.2123C761.346 30.1056 761.298 29.9803 761.298 29.8363C761.298 29.6923 761.346 29.567 761.442 29.4603C761.538 29.3536 761.669 29.3003 761.834 29.3003C761.999 29.3003 762.13 29.3536 762.226 29.4603C762.322 29.567 762.37 29.6923 762.37 29.8363ZM768.446 29.2123C768.51 29.2123 768.582 29.2176 768.662 29.2283C768.748 29.2336 768.83 29.2443 768.91 29.2603C768.99 29.271 769.062 29.2843 769.126 29.3003C769.196 29.311 769.246 29.3216 769.278 29.3323L769.15 29.9803C769.092 29.959 768.993 29.935 768.854 29.9083C768.721 29.8763 768.548 29.8603 768.334 29.8603C768.196 29.8603 768.057 29.8763 767.918 29.9083C767.785 29.935 767.697 29.9536 767.654 29.9643V33.4603H766.91V29.4763C767.086 29.4123 767.305 29.3536 767.566 29.3003C767.828 29.2416 768.121 29.2123 768.446 29.2123ZM771.54 33.4603H770.796V29.3003H771.54V33.4603ZM771.164 28.5483C771.031 28.5483 770.916 28.5056 770.82 28.4203C770.73 28.3296 770.684 28.2096 770.684 28.0603C770.684 27.911 770.73 27.7936 770.82 27.7083C770.916 27.6176 771.031 27.5723 771.164 27.5723C771.298 27.5723 771.41 27.6176 771.5 27.7083C771.596 27.7936 771.644 27.911 771.644 28.0603C771.644 28.2096 771.596 28.3296 771.5 28.4203C771.41 28.5056 771.298 28.5483 771.164 28.5483ZM776.228 33.0443C776.164 33.087 776.038 33.143 775.852 33.2123C775.67 33.2763 775.457 33.3083 775.212 33.3083C774.961 33.3083 774.724 33.2683 774.5 33.1883C774.281 33.1083 774.089 32.9856 773.924 32.8203C773.758 32.6496 773.628 32.439 773.532 32.1883C773.436 31.9376 773.388 31.639 773.388 31.2923C773.388 30.9883 773.433 30.711 773.524 30.4603C773.614 30.2043 773.745 29.9856 773.916 29.8043C774.092 29.6176 774.305 29.4736 774.556 29.3723C774.806 29.2656 775.089 29.2123 775.404 29.2123C775.75 29.2123 776.052 29.239 776.308 29.2923C776.569 29.3403 776.788 29.3856 776.964 29.4283V33.1403C776.964 33.7803 776.798 34.2443 776.468 34.5323C776.137 34.8203 775.636 34.9643 774.964 34.9643C774.702 34.9643 774.454 34.943 774.22 34.9003C773.99 34.8576 773.79 34.807 773.62 34.7483L773.756 34.1003C773.905 34.159 774.086 34.2096 774.3 34.2523C774.518 34.3003 774.745 34.3243 774.98 34.3243C775.422 34.3243 775.74 34.2363 775.932 34.0603C776.129 33.8843 776.228 33.6043 776.228 33.2203V33.0443ZM776.22 29.9563C776.145 29.935 776.044 29.9163 775.916 29.9003C775.793 29.879 775.625 29.8683 775.412 29.8683C775.012 29.8683 774.702 29.999 774.484 30.2603C774.27 30.5216 774.164 30.8683 774.164 31.3003C774.164 31.5403 774.193 31.7456 774.252 31.9163C774.316 32.087 774.398 32.2283 774.5 32.3403C774.606 32.4523 774.726 32.535 774.86 32.5883C774.998 32.6416 775.14 32.6683 775.284 32.6683C775.481 32.6683 775.662 32.6416 775.828 32.5883C775.993 32.5296 776.124 32.463 776.22 32.3883V29.9563ZM779.045 33.4603V27.3803L779.789 27.2523V29.3803C779.927 29.327 780.074 29.287 780.229 29.2603C780.389 29.2283 780.546 29.2123 780.701 29.2123C781.031 29.2123 781.306 29.2603 781.525 29.3563C781.743 29.447 781.917 29.5776 782.045 29.7483C782.178 29.9136 782.271 30.1136 782.325 30.3483C782.378 30.583 782.405 30.8416 782.405 31.1243V33.4603H781.661V31.2843C781.661 31.0283 781.642 30.8096 781.605 30.6283C781.573 30.447 781.517 30.3003 781.437 30.1883C781.357 30.0763 781.25 29.9963 781.117 29.9483C780.983 29.895 780.818 29.8683 780.621 29.8683C780.541 29.8683 780.458 29.8736 780.373 29.8843C780.287 29.895 780.205 29.9083 780.125 29.9243C780.05 29.935 779.981 29.9483 779.917 29.9643C779.858 29.9803 779.815 29.9936 779.789 30.0043V33.4603H779.045ZM785.111 29.3003H786.687V29.9243H785.111V31.8443C785.111 32.0523 785.127 32.2256 785.159 32.3643C785.191 32.4976 785.239 32.6043 785.303 32.6843C785.367 32.759 785.447 32.8123 785.543 32.8443C785.639 32.8763 785.751 32.8923 785.879 32.8923C786.103 32.8923 786.282 32.8683 786.415 32.8203C786.554 32.767 786.65 32.7296 786.703 32.7083L786.847 33.3243C786.772 33.3616 786.642 33.407 786.455 33.4603C786.268 33.519 786.055 33.5483 785.815 33.5483C785.532 33.5483 785.298 33.5136 785.111 33.4443C784.93 33.3696 784.783 33.2603 784.671 33.1163C784.559 32.9723 784.479 32.7963 784.431 32.5883C784.388 32.375 784.367 32.1296 784.367 31.8523V28.1403L785.111 28.0123V29.3003ZM789.218 32.5483C789.223 32.591 789.226 32.6336 789.226 32.6763C789.226 32.7136 789.226 32.7536 789.226 32.7963C789.226 33.1323 789.175 33.463 789.074 33.7883C788.978 34.119 788.844 34.4336 788.674 34.7323L788.098 34.5483C788.231 34.2763 788.319 33.999 788.362 33.7163C788.404 33.439 788.426 33.1776 788.426 32.9323C788.426 32.863 788.423 32.7963 788.418 32.7323C788.418 32.6683 788.415 32.607 788.41 32.5483H789.218ZM789.314 29.8363C789.314 29.9803 789.266 30.1056 789.17 30.2123C789.074 30.319 788.943 30.3723 788.778 30.3723C788.612 30.3723 788.482 30.319 788.386 30.2123C788.29 30.1056 788.242 29.9803 788.242 29.8363C788.242 29.6923 788.29 29.567 788.386 29.4603C788.482 29.3536 788.612 29.3003 788.778 29.3003C788.943 29.3003 789.074 29.3536 789.17 29.4603C789.266 29.567 789.314 29.6923 789.314 29.8363Z" fill="white"/>
<rect x="707" y="69.5879" width="84.976" height="95.7721" stroke="#FF0000"/>
<path d="M722.827 165.86H710.824L745.54 71.3145H757.358L792.074 165.86H780.071L751.818 86.2719H751.08L722.827 165.86ZM727.259 128.928H775.639V139.084H727.259V128.928Z" fill="white"/>
<rect x="666" y="39.36" width="255" height="255" stroke="white"/>
<line x1="794" y1="38.86" x2="794" y2="295.043" stroke="#D6D6D6" stroke-dasharray="2 2"/>
<line x1="665.409" y1="166.451" x2="921.591" y2="166.451" stroke="#D6D6D6" stroke-dasharray="2 2"/>
<path d="M799.35 45.3989C799.306 45.3109 799.252 45.2129 799.188 45.1049C799.124 44.9969 799.054 44.8869 798.978 44.7749C798.902 44.6589 798.824 44.5449 798.744 44.4329C798.664 44.3209 798.586 44.2149 798.51 44.1149C798.434 44.2149 798.356 44.3229 798.276 44.4389C798.196 44.5509 798.118 44.6649 798.042 44.7809C797.97 44.8929 797.902 45.0029 797.838 45.1109C797.774 45.2189 797.72 45.3149 797.676 45.3989H797.1C797.24 45.1269 797.406 44.8509 797.598 44.5709C797.794 44.2869 797.988 44.0169 798.18 43.7609L797.148 42.2789H797.778L798.522 43.3709L799.272 42.2789H799.866L798.858 43.7249C799.05 43.9849 799.246 44.2609 799.446 44.5529C799.65 44.8409 799.822 45.1229 799.962 45.3989H799.35Z" fill="white"/>
<path d="M669.272 175.936C669.316 175.956 669.372 175.974 669.44 175.99C669.512 176.01 669.582 176.02 669.65 176.02C669.87 176.02 670.042 175.97 670.166 175.87C670.29 175.774 670.402 175.616 670.502 175.396C670.25 174.916 670.014 174.408 669.794 173.872C669.578 173.332 669.398 172.786 669.254 172.234H669.854C669.898 172.414 669.95 172.608 670.01 172.816C670.074 173.024 670.144 173.238 670.22 173.458C670.296 173.678 670.378 173.898 670.466 174.118C670.554 174.338 670.646 174.55 670.742 174.754C670.894 174.334 671.026 173.918 671.138 173.506C671.25 173.094 671.356 172.67 671.456 172.234H672.032C671.888 172.822 671.728 173.388 671.552 173.932C671.376 174.472 671.186 174.978 670.982 175.45C670.902 175.63 670.818 175.784 670.73 175.912C670.646 176.044 670.552 176.152 670.448 176.236C670.344 176.32 670.226 176.382 670.094 176.422C669.966 176.462 669.82 176.482 669.656 176.482C669.612 176.482 669.566 176.478 669.518 176.47C669.47 176.466 669.422 176.458 669.374 176.446C669.33 176.438 669.288 176.428 669.248 176.416C669.212 176.404 669.186 176.394 669.17 176.386L669.272 175.936Z" fill="white"/>
<line x1="707.375" y1="69.1069" x2="792.351" y2="165.178" stroke="#FF0000"/>
<line x1="706.626" y1="165.134" x2="791.602" y2="69.1069" stroke="#FF0000"/>
<path d="M799 167.037C799 164.275 796.761 162.037 794 162.037H791C788.239 162.037 786 164.275 786 167.037V168.037C786 170.798 788.239 173.037 791 173.037H794C796.761 173.037 799 170.798 799 168.037V167.037Z" fill="#FF0000"/>
<path d="M789.851 167.261C789.851 166.786 789.92 166.367 790.059 166.005C790.203 165.642 790.395 165.341 790.635 165.101C790.88 164.855 791.163 164.671 791.483 164.549C791.808 164.426 792.152 164.365 792.515 164.365C792.872 164.365 793.208 164.426 793.523 164.549C793.843 164.671 794.123 164.855 794.363 165.101C794.603 165.341 794.792 165.642 794.931 166.005C795.075 166.367 795.147 166.786 795.147 167.261C795.147 167.735 795.075 168.154 794.931 168.517C794.792 168.879 794.603 169.183 794.363 169.429C794.123 169.669 793.843 169.85 793.523 169.973C793.208 170.095 792.872 170.157 792.515 170.157C792.152 170.157 791.808 170.095 791.483 169.973C791.163 169.85 790.88 169.669 790.635 169.429C790.395 169.183 790.203 168.879 790.059 168.517C789.92 168.154 789.851 167.735 789.851 167.261ZM790.667 167.261C790.667 167.597 790.709 167.903 790.795 168.181C790.88 168.453 791 168.685 791.155 168.877C791.315 169.069 791.507 169.218 791.731 169.325C791.96 169.426 792.216 169.477 792.499 169.477C792.781 169.477 793.035 169.426 793.259 169.325C793.483 169.218 793.672 169.069 793.827 168.877C793.987 168.685 794.109 168.453 794.195 168.181C794.28 167.903 794.323 167.597 794.323 167.261C794.323 166.925 794.28 166.621 794.195 166.349C794.109 166.071 793.987 165.837 793.827 165.645C793.672 165.453 793.483 165.306 793.259 165.205C793.035 165.098 792.781 165.045 792.499 165.045C792.216 165.045 791.96 165.098 791.731 165.205C791.507 165.306 791.315 165.453 791.155 165.645C791 165.837 790.88 166.071 790.795 166.349C790.709 166.621 790.667 166.925 790.667 167.261Z" fill="black"/>
</svg>
