<svg width="959" height="411" viewBox="0 0 959 411" fill="none" xmlns="http://www.w3.org/2000/svg">
<g clip-path="url(#clip0_1_56)">
<rect width="959" height="411" fill="#121212"/>
<rect x="65" y="96" width="354" height="253" fill="url(#paint0_linear_1_56)" fill-opacity="0.5"/>
<line x1="87.625" y1="95.9996" x2="87.625" y2="349" stroke="black"/>
<line x1="131.875" y1="96.0961" x2="131.875" y2="349.097" stroke="black"/>
<line x1="176.125" y1="96.1927" x2="176.125" y2="349.194" stroke="black"/>
<line x1="220.375" y1="96.2894" x2="220.375" y2="349.29" stroke="black"/>
<line x1="264.625" y1="96.3859" x2="264.625" y2="349.387" stroke="black"/>
<line x1="308.875" y1="96.4825" x2="308.875" y2="349.483" stroke="black"/>
<line x1="353.125" y1="96.5792" x2="353.125" y2="349.58" stroke="black"/>
<line x1="397.375" y1="96.6758" x2="397.375" y2="349.677" stroke="black"/>
<line x1="109.75" y1="96.0961" x2="109.75" y2="349.097" stroke="black"/>
<line x1="154" y1="96.1927" x2="154" y2="349.194" stroke="black"/>
<line x1="198.25" y1="96.2894" x2="198.25" y2="349.29" stroke="black"/>
<line x1="242.5" y1="96.3859" x2="242.5" y2="349.387" stroke="black"/>
<line x1="286.75" y1="96.4825" x2="286.75" y2="349.483" stroke="black"/>
<line x1="331" y1="96.5792" x2="331" y2="349.58" stroke="black"/>
<line x1="375.25" y1="96.6758" x2="375.25" y2="349.677" stroke="black"/>
<line x1="64.5478" y1="333.026" x2="418.549" y2="333.026" stroke="black"/>
<line x1="64.6768" y1="301.401" x2="418.678" y2="301.401" stroke="black"/>
<line x1="64.8058" y1="269.776" x2="418.807" y2="269.776" stroke="black"/>
<line x1="64.9349" y1="238.151" x2="418.936" y2="238.151" stroke="black"/>
<line x1="65.0639" y1="206.526" x2="419.065" y2="206.526" stroke="black"/>
<line x1="65.1929" y1="174.901" x2="419.194" y2="174.901" stroke="black"/>
<line x1="65.3219" y1="143.276" x2="419.323" y2="143.276" stroke="black"/>
<line x1="65.451" y1="111.651" x2="419.452" y2="111.651" stroke="black"/>
<line x1="64.6799" y1="317.213" x2="418.681" y2="317.213" stroke="black"/>
<line x1="64.8089" y1="285.588" x2="418.81" y2="285.588" stroke="black"/>
<line x1="64.9379" y1="253.963" x2="418.939" y2="253.963" stroke="black"/>
<line x1="65.067" y1="222.338" x2="419.068" y2="222.338" stroke="black"/>
<line x1="65.196" y1="190.713" x2="419.197" y2="190.713" stroke="black"/>
<line x1="65.325" y1="159.088" x2="419.326" y2="159.088" stroke="black"/>
<line x1="65.454" y1="127.463" x2="419.455" y2="127.463" stroke="black"/>
<path d="M43.05 32.4175C42.8633 31.9375 42.6633 31.3908 42.45 30.7775C42.2433 30.1575 42.0533 29.5142 41.88 28.8475C41.7067 29.5142 41.5167 30.1575 41.31 30.7775C41.1033 31.3908 40.9067 31.9375 40.72 32.4175H39.91C39.6033 31.7308 39.3033 30.9475 39.01 30.0675C38.7167 29.1875 38.44 28.2375 38.18 27.2175H39.18C39.2467 27.5308 39.3267 27.8708 39.42 28.2375C39.5133 28.6042 39.61 28.9708 39.71 29.3375C39.8167 29.7042 39.9267 30.0575 40.04 30.3975C40.1533 30.7375 40.26 31.0342 40.36 31.2875C40.4733 30.9742 40.5833 30.6442 40.69 30.2975C40.8033 29.9442 40.91 29.5908 41.01 29.2375C41.11 28.8775 41.2033 28.5275 41.29 28.1875C41.3833 27.8408 41.4633 27.5175 41.53 27.2175H42.3C42.36 27.5175 42.4333 27.8408 42.52 28.1875C42.6067 28.5275 42.7 28.8775 42.8 29.2375C42.9 29.5908 43.0033 29.9442 43.11 30.2975C43.2233 30.6442 43.3367 30.9742 43.45 31.2875C43.55 31.0342 43.6533 30.7375 43.76 30.3975C43.8733 30.0575 43.9833 29.7042 44.09 29.3375C44.1967 28.9708 44.2967 28.6042 44.39 28.2375C44.4833 27.8708 44.5633 27.5308 44.63 27.2175H45.59C45.33 28.2375 45.0533 29.1875 44.76 30.0675C44.4667 30.9475 44.1667 31.7308 43.86 32.4175H43.05ZM48.5034 32.4175H47.5734V27.2175H48.5034V32.4175ZM48.0334 26.2775C47.8668 26.2775 47.7234 26.2242 47.6034 26.1175C47.4901 26.0042 47.4334 25.8542 47.4334 25.6675C47.4334 25.4808 47.4901 25.3342 47.6034 25.2275C47.7234 25.1142 47.8668 25.0575 48.0334 25.0575C48.2001 25.0575 48.3401 25.1142 48.4534 25.2275C48.5734 25.3342 48.6334 25.4808 48.6334 25.6675C48.6334 25.8542 48.5734 26.0042 48.4534 26.1175C48.3401 26.2242 48.2001 26.2775 48.0334 26.2775ZM54.4627 28.3175C54.3494 28.2242 54.1861 28.1342 53.9727 28.0475C53.7594 27.9608 53.5261 27.9175 53.2727 27.9175C53.0061 27.9175 52.7761 27.9675 52.5827 28.0675C52.3961 28.1608 52.2427 28.2942 52.1227 28.4675C52.0027 28.6342 51.9161 28.8342 51.8627 29.0675C51.8094 29.3008 51.7827 29.5508 51.7827 29.8175C51.7827 30.4242 51.9327 30.8942 52.2327 31.2275C52.5327 31.5542 52.9327 31.7175 53.4327 31.7175C53.6861 31.7175 53.8961 31.7075 54.0627 31.6875C54.2361 31.6608 54.3694 31.6342 54.4627 31.6075V28.3175ZM54.4627 24.8175L55.3927 24.6575V32.2675C55.1794 32.3275 54.9061 32.3875 54.5727 32.4475C54.2394 32.5075 53.8561 32.5375 53.4227 32.5375C53.0227 32.5375 52.6627 32.4742 52.3427 32.3475C52.0227 32.2208 51.7494 32.0408 51.5227 31.8075C51.2961 31.5742 51.1194 31.2908 50.9927 30.9575C50.8727 30.6175 50.8127 30.2375 50.8127 29.8175C50.8127 29.4175 50.8627 29.0508 50.9627 28.7175C51.0694 28.3842 51.2227 28.0975 51.4227 27.8575C51.6227 27.6175 51.8661 27.4308 52.1527 27.2975C52.4461 27.1642 52.7794 27.0975 53.1527 27.0975C53.4527 27.0975 53.7161 27.1375 53.9427 27.2175C54.1761 27.2975 54.3494 27.3742 54.4627 27.4475V24.8175ZM58.8614 27.2175H60.8314V27.9975H58.8614V30.3975C58.8614 30.6575 58.8814 30.8742 58.9214 31.0475C58.9614 31.2142 59.0214 31.3475 59.1014 31.4475C59.1814 31.5408 59.2814 31.6075 59.4014 31.6475C59.5214 31.6875 59.6614 31.7075 59.8214 31.7075C60.1014 31.7075 60.3247 31.6775 60.4914 31.6175C60.6647 31.5508 60.7847 31.5042 60.8514 31.4775L61.0314 32.2475C60.9381 32.2942 60.7747 32.3508 60.5414 32.4175C60.3081 32.4908 60.0414 32.5275 59.7414 32.5275C59.3881 32.5275 59.0947 32.4842 58.8614 32.3975C58.6347 32.3042 58.4514 32.1675 58.3114 31.9875C58.1714 31.8075 58.0714 31.5875 58.0114 31.3275C57.9581 31.0608 57.9314 30.7542 57.9314 30.4075V25.7675L58.8614 25.6075V27.2175ZM63.0148 32.4175V24.8175L63.9448 24.6575V27.3175C64.1182 27.2508 64.3015 27.2008 64.4948 27.1675C64.6948 27.1275 64.8915 27.1075 65.0848 27.1075C65.4982 27.1075 65.8415 27.1675 66.1148 27.2875C66.3882 27.4008 66.6048 27.5642 66.7648 27.7775C66.9315 27.9842 67.0482 28.2342 67.1148 28.5275C67.1815 28.8208 67.2148 29.1442 67.2148 29.4975V32.4175H66.2848V29.6975C66.2848 29.3775 66.2615 29.1042 66.2148 28.8775C66.1748 28.6508 66.1048 28.4675 66.0048 28.3275C65.9048 28.1875 65.7715 28.0875 65.6048 28.0275C65.4382 27.9608 65.2315 27.9275 64.9848 27.9275C64.8848 27.9275 64.7815 27.9342 64.6748 27.9475C64.5682 27.9608 64.4648 27.9775 64.3648 27.9975C64.2715 28.0108 64.1848 28.0275 64.1048 28.0475C64.0315 28.0675 63.9782 28.0842 63.9448 28.0975V32.4175H63.0148ZM70.8277 31.8775C70.8277 32.0575 70.7677 32.2142 70.6477 32.3475C70.5277 32.4808 70.3644 32.5475 70.1577 32.5475C69.9511 32.5475 69.7877 32.4808 69.6677 32.3475C69.5477 32.2142 69.4877 32.0575 69.4877 31.8775C69.4877 31.6975 69.5477 31.5408 69.6677 31.4075C69.7877 31.2742 69.9511 31.2075 70.1577 31.2075C70.3644 31.2075 70.5277 31.2742 70.6477 31.4075C70.7677 31.5408 70.8277 31.6975 70.8277 31.8775ZM70.8277 27.8875C70.8277 28.0675 70.7677 28.2242 70.6477 28.3575C70.5277 28.4908 70.3644 28.5575 70.1577 28.5575C69.9511 28.5575 69.7877 28.4908 69.6677 28.3575C69.5477 28.2242 69.4877 28.0675 69.4877 27.8875C69.4877 27.7075 69.5477 27.5508 69.6677 27.4175C69.7877 27.2842 69.9511 27.2175 70.1577 27.2175C70.3644 27.2175 70.5277 27.2842 70.6477 27.4175C70.7677 27.5508 70.8277 27.7075 70.8277 27.8875ZM76.3031 27.2175C76.3031 27.1442 76.3031 27.0742 76.3031 27.0075C76.3031 26.9342 76.3065 26.8642 76.3131 26.7975C76.3398 26.4508 76.4165 26.1075 76.5431 25.7675C76.6698 25.4275 76.8231 25.1108 77.0031 24.8175L77.7231 25.0475C77.5831 25.3408 77.4765 25.6375 77.4031 25.9375C77.3365 26.2375 77.3031 26.5175 77.3031 26.7775C77.3031 26.8442 77.3031 26.9175 77.3031 26.9975C77.3098 27.0708 77.3165 27.1442 77.3231 27.2175H76.3031ZM81.6166 31.7475C81.8366 31.7475 82.03 31.7442 82.1966 31.7375C82.37 31.7242 82.5133 31.7042 82.6266 31.6775V30.1275C82.56 30.0942 82.45 30.0675 82.2966 30.0475C82.15 30.0208 81.97 30.0075 81.7566 30.0075C81.6166 30.0075 81.4666 30.0175 81.3066 30.0375C81.1533 30.0575 81.01 30.1008 80.8766 30.1675C80.75 30.2275 80.6433 30.3142 80.5566 30.4275C80.47 30.5342 80.4266 30.6775 80.4266 30.8575C80.4266 31.1908 80.5333 31.4242 80.7466 31.5575C80.96 31.6842 81.25 31.7475 81.6166 31.7475ZM81.5366 27.0875C81.91 27.0875 82.2233 27.1375 82.4766 27.2375C82.7366 27.3308 82.9433 27.4675 83.0966 27.6475C83.2566 27.8208 83.37 28.0308 83.4366 28.2775C83.5033 28.5175 83.5366 28.7842 83.5366 29.0775V32.3275C83.4566 32.3408 83.3433 32.3608 83.1966 32.3875C83.0566 32.4075 82.8966 32.4275 82.7166 32.4475C82.5366 32.4675 82.34 32.4842 82.1266 32.4975C81.92 32.5175 81.7133 32.5275 81.5066 32.5275C81.2133 32.5275 80.9433 32.4975 80.6966 32.4375C80.45 32.3775 80.2366 32.2842 80.0566 32.1575C79.8766 32.0242 79.7366 31.8508 79.6366 31.6375C79.5366 31.4242 79.4866 31.1675 79.4866 30.8675C79.4866 30.5808 79.5433 30.3342 79.6566 30.1275C79.7766 29.9208 79.9366 29.7542 80.1366 29.6275C80.3366 29.5008 80.57 29.4075 80.8366 29.3475C81.1033 29.2875 81.3833 29.2575 81.6766 29.2575C81.77 29.2575 81.8666 29.2642 81.9666 29.2775C82.0666 29.2842 82.16 29.2975 82.2466 29.3175C82.34 29.3308 82.42 29.3442 82.4866 29.3575C82.5533 29.3708 82.6 29.3808 82.6266 29.3875V29.1275C82.6266 28.9742 82.61 28.8242 82.5766 28.6775C82.5433 28.5242 82.4833 28.3908 82.3966 28.2775C82.31 28.1575 82.19 28.0642 82.0366 27.9975C81.89 27.9242 81.6966 27.8875 81.4566 27.8875C81.15 27.8875 80.88 27.9108 80.6466 27.9575C80.42 27.9975 80.25 28.0408 80.1366 28.0875L80.0266 27.3175C80.1466 27.2642 80.3466 27.2142 80.6266 27.1675C80.9066 27.1142 81.21 27.0875 81.5366 27.0875ZM90.2213 32.2675C90.0079 32.3208 89.7246 32.3775 89.3713 32.4375C89.0246 32.4975 88.6213 32.5275 88.1613 32.5275C87.7613 32.5275 87.4246 32.4708 87.1513 32.3575C86.8779 32.2375 86.6579 32.0708 86.4913 31.8575C86.3246 31.6442 86.2046 31.3942 86.1313 31.1075C86.0579 30.8142 86.0213 30.4908 86.0213 30.1375V27.2175H86.9513V29.9375C86.9513 30.5708 87.0513 31.0242 87.2513 31.2975C87.4513 31.5708 87.7879 31.7075 88.2613 31.7075C88.3613 31.7075 88.4646 31.7042 88.5713 31.6975C88.6779 31.6908 88.7779 31.6842 88.8713 31.6775C88.9646 31.6642 89.0479 31.6542 89.1213 31.6475C89.2013 31.6342 89.2579 31.6208 89.2913 31.6075V27.2175H90.2213V32.2675ZM93.6934 27.2175H95.6634V27.9975H93.6934V30.3975C93.6934 30.6575 93.7134 30.8742 93.7534 31.0475C93.7934 31.2142 93.8534 31.3475 93.9334 31.4475C94.0134 31.5408 94.1134 31.6075 94.2334 31.6475C94.3534 31.6875 94.4934 31.7075 94.6534 31.7075C94.9334 31.7075 95.1568 31.6775 95.3234 31.6175C95.4968 31.5508 95.6168 31.5042 95.6834 31.4775L95.8634 32.2475C95.7701 32.2942 95.6068 32.3508 95.3734 32.4175C95.1401 32.4908 94.8734 32.5275 94.5734 32.5275C94.2201 32.5275 93.9268 32.4842 93.6934 32.3975C93.4668 32.3042 93.2834 32.1675 93.1434 31.9875C93.0034 31.8075 92.9034 31.5875 92.8434 31.3275C92.7901 31.0608 92.7634 30.7542 92.7634 30.4075V25.7675L93.6934 25.6075V27.2175ZM102.3 29.8175C102.3 30.2308 102.24 30.6042 102.12 30.9375C102 31.2708 101.83 31.5575 101.61 31.7975C101.397 32.0375 101.14 32.2242 100.84 32.3575C100.54 32.4842 100.213 32.5475 99.8602 32.5475C99.5068 32.5475 99.1802 32.4842 98.8802 32.3575C98.5802 32.2242 98.3202 32.0375 98.1002 31.7975C97.8868 31.5575 97.7202 31.2708 97.6002 30.9375C97.4802 30.6042 97.4202 30.2308 97.4202 29.8175C97.4202 29.4108 97.4802 29.0408 97.6002 28.7075C97.7202 28.3675 97.8868 28.0775 98.1002 27.8375C98.3202 27.5975 98.5802 27.4142 98.8802 27.2875C99.1802 27.1542 99.5068 27.0875 99.8602 27.0875C100.213 27.0875 100.54 27.1542 100.84 27.2875C101.14 27.4142 101.397 27.5975 101.61 27.8375C101.83 28.0775 102 28.3675 102.12 28.7075C102.24 29.0408 102.3 29.4108 102.3 29.8175ZM101.33 29.8175C101.33 29.2308 101.197 28.7675 100.93 28.4275C100.67 28.0808 100.313 27.9075 99.8602 27.9075C99.4068 27.9075 99.0468 28.0808 98.7802 28.4275C98.5202 28.7675 98.3902 29.2308 98.3902 29.8175C98.3902 30.4042 98.5202 30.8708 98.7802 31.2175C99.0468 31.5575 99.4068 31.7275 99.8602 31.7275C100.313 31.7275 100.67 31.5575 100.93 31.2175C101.197 30.8708 101.33 30.4042 101.33 29.8175ZM105.285 24.9175C105.285 24.9908 105.285 25.0642 105.285 25.1375C105.285 25.2042 105.282 25.2708 105.275 25.3375C105.248 25.6842 105.172 26.0275 105.045 26.3675C104.918 26.7008 104.765 27.0175 104.585 27.3175L103.865 27.0875C104.005 26.7875 104.108 26.4908 104.175 26.1975C104.248 25.8975 104.285 25.6175 104.285 25.3575C104.285 25.2908 104.282 25.2208 104.275 25.1475C104.275 25.0675 104.272 24.9908 104.265 24.9175H105.285ZM108.669 31.2775C108.675 31.3308 108.679 31.3842 108.679 31.4375C108.679 31.4842 108.679 31.5342 108.679 31.5875C108.679 32.0075 108.615 32.4208 108.489 32.8275C108.369 33.2408 108.202 33.6342 107.989 34.0075L107.269 33.7775C107.435 33.4375 107.545 33.0908 107.599 32.7375C107.652 32.3908 107.679 32.0642 107.679 31.7575C107.679 31.6708 107.675 31.5875 107.669 31.5075C107.669 31.4275 107.665 31.3508 107.659 31.2775H108.669ZM108.789 27.8875C108.789 28.0675 108.729 28.2242 108.609 28.3575C108.489 28.4908 108.325 28.5575 108.119 28.5575C107.912 28.5575 107.749 28.4908 107.629 28.3575C107.509 28.2242 107.449 28.0675 107.449 27.8875C107.449 27.7075 107.509 27.5508 107.629 27.4175C107.749 27.2842 107.912 27.2175 108.119 27.2175C108.325 27.2175 108.489 27.2842 108.609 27.4175C108.729 27.5508 108.789 27.7075 108.789 27.8875ZM114.464 32.4175V24.8175L115.394 24.6575V27.3175C115.567 27.2508 115.751 27.2008 115.944 27.1675C116.144 27.1275 116.341 27.1075 116.534 27.1075C116.947 27.1075 117.291 27.1675 117.564 27.2875C117.837 27.4008 118.054 27.5642 118.214 27.7775C118.381 27.9842 118.497 28.2342 118.564 28.5275C118.631 28.8208 118.664 29.1442 118.664 29.4975V32.4175H117.734V29.6975C117.734 29.3775 117.711 29.1042 117.664 28.8775C117.624 28.6508 117.554 28.4675 117.454 28.3275C117.354 28.1875 117.221 28.0875 117.054 28.0275C116.887 27.9608 116.681 27.9275 116.434 27.9275C116.334 27.9275 116.231 27.9342 116.124 27.9475C116.017 27.9608 115.914 27.9775 115.814 27.9975C115.721 28.0108 115.634 28.0275 115.554 28.0475C115.481 28.0675 115.427 28.0842 115.394 28.0975V32.4175H114.464ZM120.887 29.8275C120.887 29.3675 120.954 28.9675 121.087 28.6275C121.22 28.2808 121.397 27.9942 121.617 27.7675C121.837 27.5408 122.09 27.3708 122.377 27.2575C122.664 27.1442 122.957 27.0875 123.257 27.0875C123.957 27.0875 124.494 27.3075 124.867 27.7475C125.24 28.1808 125.427 28.8442 125.427 29.7375C125.427 29.7775 125.427 29.8308 125.427 29.8975C125.427 29.9575 125.424 30.0142 125.417 30.0675H121.857C121.897 30.6075 122.054 31.0175 122.327 31.2975C122.6 31.5775 123.027 31.7175 123.607 31.7175C123.934 31.7175 124.207 31.6908 124.427 31.6375C124.654 31.5775 124.824 31.5208 124.937 31.4675L125.067 32.2475C124.954 32.3075 124.754 32.3708 124.467 32.4375C124.187 32.5042 123.867 32.5375 123.507 32.5375C123.054 32.5375 122.66 32.4708 122.327 32.3375C122 32.1975 121.73 32.0075 121.517 31.7675C121.304 31.5275 121.144 31.2442 121.037 30.9175C120.937 30.5842 120.887 30.2208 120.887 29.8275ZM124.457 29.3175C124.464 28.8975 124.357 28.5542 124.137 28.2875C123.924 28.0142 123.627 27.8775 123.247 27.8775C123.034 27.8775 122.844 27.9208 122.677 28.0075C122.517 28.0875 122.38 28.1942 122.267 28.3275C122.154 28.4608 122.064 28.6142 121.997 28.7875C121.937 28.9608 121.897 29.1375 121.877 29.3175H124.457ZM128.693 32.4175H127.763V27.2175H128.693V32.4175ZM128.223 26.2775C128.056 26.2775 127.913 26.2242 127.793 26.1175C127.68 26.0042 127.623 25.8542 127.623 25.6675C127.623 25.4808 127.68 25.3342 127.793 25.2275C127.913 25.1142 128.056 25.0575 128.223 25.0575C128.39 25.0575 128.53 25.1142 128.643 25.2275C128.763 25.3342 128.823 25.4808 128.823 25.6675C128.823 25.8542 128.763 26.0042 128.643 26.1175C128.53 26.2242 128.39 26.2775 128.223 26.2775ZM134.552 31.8975C134.472 31.9508 134.316 32.0208 134.082 32.1075C133.856 32.1875 133.589 32.2275 133.282 32.2275C132.969 32.2275 132.672 32.1775 132.392 32.0775C132.119 31.9775 131.879 31.8242 131.672 31.6175C131.466 31.4042 131.302 31.1408 131.182 30.8275C131.062 30.5142 131.002 30.1408 131.002 29.7075C131.002 29.3275 131.059 28.9808 131.172 28.6675C131.286 28.3475 131.449 28.0742 131.662 27.8475C131.882 27.6142 132.149 27.4342 132.462 27.3075C132.776 27.1742 133.129 27.1075 133.522 27.1075C133.956 27.1075 134.332 27.1408 134.652 27.2075C134.979 27.2675 135.252 27.3242 135.472 27.3775V32.0175C135.472 32.8175 135.266 33.3975 134.852 33.7575C134.439 34.1175 133.812 34.2975 132.972 34.2975C132.646 34.2975 132.336 34.2708 132.042 34.2175C131.756 34.1642 131.506 34.1008 131.292 34.0275L131.462 33.2175C131.649 33.2908 131.876 33.3542 132.142 33.4075C132.416 33.4675 132.699 33.4975 132.992 33.4975C133.546 33.4975 133.942 33.3875 134.182 33.1675C134.429 32.9475 134.552 32.5975 134.552 32.1175V31.8975ZM134.542 28.0375C134.449 28.0108 134.322 27.9875 134.162 27.9675C134.009 27.9408 133.799 27.9275 133.532 27.9275C133.032 27.9275 132.646 28.0908 132.372 28.4175C132.106 28.7442 131.972 29.1775 131.972 29.7175C131.972 30.0175 132.009 30.2742 132.082 30.4875C132.162 30.7008 132.266 30.8775 132.392 31.0175C132.526 31.1575 132.676 31.2608 132.842 31.3275C133.016 31.3942 133.192 31.4275 133.372 31.4275C133.619 31.4275 133.846 31.3942 134.052 31.3275C134.259 31.2542 134.422 31.1708 134.542 31.0775V28.0375ZM138.073 32.4175V24.8175L139.003 24.6575V27.3175C139.177 27.2508 139.36 27.2008 139.553 27.1675C139.753 27.1275 139.95 27.1075 140.143 27.1075C140.557 27.1075 140.9 27.1675 141.173 27.2875C141.447 27.4008 141.663 27.5642 141.823 27.7775C141.99 27.9842 142.107 28.2342 142.173 28.5275C142.24 28.8208 142.273 29.1442 142.273 29.4975V32.4175H141.343V29.6975C141.343 29.3775 141.32 29.1042 141.273 28.8775C141.233 28.6508 141.163 28.4675 141.063 28.3275C140.963 28.1875 140.83 28.0875 140.663 28.0275C140.497 27.9608 140.29 27.9275 140.043 27.9275C139.943 27.9275 139.84 27.9342 139.733 27.9475C139.627 27.9608 139.523 27.9775 139.423 27.9975C139.33 28.0108 139.243 28.0275 139.163 28.0475C139.09 28.0675 139.037 28.0842 139.003 28.0975V32.4175H138.073ZM145.656 27.2175H147.626V27.9975H145.656V30.3975C145.656 30.6575 145.676 30.8742 145.716 31.0475C145.756 31.2142 145.816 31.3475 145.896 31.4475C145.976 31.5408 146.076 31.6075 146.196 31.6475C146.316 31.6875 146.456 31.7075 146.616 31.7075C146.896 31.7075 147.12 31.6775 147.286 31.6175C147.46 31.5508 147.58 31.5042 147.646 31.4775L147.826 32.2475C147.733 32.2942 147.57 32.3508 147.336 32.4175C147.103 32.4908 146.836 32.5275 146.536 32.5275C146.183 32.5275 145.89 32.4842 145.656 32.3975C145.43 32.3042 145.246 32.1675 145.106 31.9875C144.966 31.8075 144.866 31.5875 144.806 31.3275C144.753 31.0608 144.726 30.7542 144.726 30.4075V25.7675L145.656 25.6075V27.2175ZM150.91 31.8775C150.91 32.0575 150.85 32.2142 150.73 32.3475C150.61 32.4808 150.446 32.5475 150.24 32.5475C150.033 32.5475 149.87 32.4808 149.75 32.3475C149.63 32.2142 149.57 32.0575 149.57 31.8775C149.57 31.6975 149.63 31.5408 149.75 31.4075C149.87 31.2742 150.033 31.2075 150.24 31.2075C150.446 31.2075 150.61 31.2742 150.73 31.4075C150.85 31.5408 150.91 31.6975 150.91 31.8775ZM150.91 27.8875C150.91 28.0675 150.85 28.2242 150.73 28.3575C150.61 28.4908 150.446 28.5575 150.24 28.5575C150.033 28.5575 149.87 28.4908 149.75 28.3575C149.63 28.2242 149.57 28.0675 149.57 27.8875C149.57 27.7075 149.63 27.5508 149.75 27.4175C149.87 27.2842 150.033 27.2175 150.24 27.2175C150.446 27.2175 150.61 27.2842 150.73 27.4175C150.85 27.5508 150.91 27.7075 150.91 27.8875ZM156.385 27.2175C156.385 27.1442 156.385 27.0742 156.385 27.0075C156.385 26.9342 156.388 26.8642 156.395 26.7975C156.422 26.4508 156.498 26.1075 156.625 25.7675C156.752 25.4275 156.905 25.1108 157.085 24.8175L157.805 25.0475C157.665 25.3408 157.558 25.6375 157.485 25.9375C157.418 26.2375 157.385 26.5175 157.385 26.7775C157.385 26.8442 157.385 26.9175 157.385 26.9975C157.392 27.0708 157.398 27.1442 157.405 27.2175H156.385ZM161.699 31.7475C161.919 31.7475 162.112 31.7442 162.279 31.7375C162.452 31.7242 162.595 31.7042 162.709 31.6775V30.1275C162.642 30.0942 162.532 30.0675 162.379 30.0475C162.232 30.0208 162.052 30.0075 161.839 30.0075C161.699 30.0075 161.549 30.0175 161.389 30.0375C161.235 30.0575 161.092 30.1008 160.959 30.1675C160.832 30.2275 160.725 30.3142 160.639 30.4275C160.552 30.5342 160.509 30.6775 160.509 30.8575C160.509 31.1908 160.615 31.4242 160.829 31.5575C161.042 31.6842 161.332 31.7475 161.699 31.7475ZM161.619 27.0875C161.992 27.0875 162.305 27.1375 162.559 27.2375C162.819 27.3308 163.025 27.4675 163.179 27.6475C163.339 27.8208 163.452 28.0308 163.519 28.2775C163.585 28.5175 163.619 28.7842 163.619 29.0775V32.3275C163.539 32.3408 163.425 32.3608 163.279 32.3875C163.139 32.4075 162.979 32.4275 162.799 32.4475C162.619 32.4675 162.422 32.4842 162.209 32.4975C162.002 32.5175 161.795 32.5275 161.589 32.5275C161.295 32.5275 161.025 32.4975 160.779 32.4375C160.532 32.3775 160.319 32.2842 160.139 32.1575C159.959 32.0242 159.819 31.8508 159.719 31.6375C159.619 31.4242 159.569 31.1675 159.569 30.8675C159.569 30.5808 159.625 30.3342 159.739 30.1275C159.859 29.9208 160.019 29.7542 160.219 29.6275C160.419 29.5008 160.652 29.4075 160.919 29.3475C161.185 29.2875 161.465 29.2575 161.759 29.2575C161.852 29.2575 161.949 29.2642 162.049 29.2775C162.149 29.2842 162.242 29.2975 162.329 29.3175C162.422 29.3308 162.502 29.3442 162.569 29.3575C162.635 29.3708 162.682 29.3808 162.709 29.3875V29.1275C162.709 28.9742 162.692 28.8242 162.659 28.6775C162.625 28.5242 162.565 28.3908 162.479 28.2775C162.392 28.1575 162.272 28.0642 162.119 27.9975C161.972 27.9242 161.779 27.8875 161.539 27.8875C161.232 27.8875 160.962 27.9108 160.729 27.9575C160.502 27.9975 160.332 28.0408 160.219 28.0875L160.109 27.3175C160.229 27.2642 160.429 27.2142 160.709 27.1675C160.989 27.1142 161.292 27.0875 161.619 27.0875ZM170.303 32.2675C170.09 32.3208 169.807 32.3775 169.453 32.4375C169.107 32.4975 168.703 32.5275 168.243 32.5275C167.843 32.5275 167.507 32.4708 167.233 32.3575C166.96 32.2375 166.74 32.0708 166.573 31.8575C166.407 31.6442 166.287 31.3942 166.213 31.1075C166.14 30.8142 166.103 30.4908 166.103 30.1375V27.2175H167.033V29.9375C167.033 30.5708 167.133 31.0242 167.333 31.2975C167.533 31.5708 167.87 31.7075 168.343 31.7075C168.443 31.7075 168.547 31.7042 168.653 31.6975C168.76 31.6908 168.86 31.6842 168.953 31.6775C169.047 31.6642 169.13 31.6542 169.203 31.6475C169.283 31.6342 169.34 31.6208 169.373 31.6075V27.2175H170.303V32.2675ZM173.775 27.2175H175.745V27.9975H173.775V30.3975C173.775 30.6575 173.795 30.8742 173.835 31.0475C173.875 31.2142 173.935 31.3475 174.015 31.4475C174.095 31.5408 174.195 31.6075 174.315 31.6475C174.435 31.6875 174.575 31.7075 174.735 31.7075C175.015 31.7075 175.239 31.6775 175.405 31.6175C175.579 31.5508 175.699 31.5042 175.765 31.4775L175.945 32.2475C175.852 32.2942 175.689 32.3508 175.455 32.4175C175.222 32.4908 174.955 32.5275 174.655 32.5275C174.302 32.5275 174.009 32.4842 173.775 32.3975C173.549 32.3042 173.365 32.1675 173.225 31.9875C173.085 31.8075 172.985 31.5875 172.925 31.3275C172.872 31.0608 172.845 30.7542 172.845 30.4075V25.7675L173.775 25.6075V27.2175ZM182.382 29.8175C182.382 30.2308 182.322 30.6042 182.202 30.9375C182.082 31.2708 181.912 31.5575 181.692 31.7975C181.479 32.0375 181.222 32.2242 180.922 32.3575C180.622 32.4842 180.296 32.5475 179.942 32.5475C179.589 32.5475 179.262 32.4842 178.962 32.3575C178.662 32.2242 178.402 32.0375 178.182 31.7975C177.969 31.5575 177.802 31.2708 177.682 30.9375C177.562 30.6042 177.502 30.2308 177.502 29.8175C177.502 29.4108 177.562 29.0408 177.682 28.7075C177.802 28.3675 177.969 28.0775 178.182 27.8375C178.402 27.5975 178.662 27.4142 178.962 27.2875C179.262 27.1542 179.589 27.0875 179.942 27.0875C180.296 27.0875 180.622 27.1542 180.922 27.2875C181.222 27.4142 181.479 27.5975 181.692 27.8375C181.912 28.0775 182.082 28.3675 182.202 28.7075C182.322 29.0408 182.382 29.4108 182.382 29.8175ZM181.412 29.8175C181.412 29.2308 181.279 28.7675 181.012 28.4275C180.752 28.0808 180.396 27.9075 179.942 27.9075C179.489 27.9075 179.129 28.0808 178.862 28.4275C178.602 28.7675 178.472 29.2308 178.472 29.8175C178.472 30.4042 178.602 30.8708 178.862 31.2175C179.129 31.5575 179.489 31.7275 179.942 31.7275C180.396 31.7275 180.752 31.5575 181.012 31.2175C181.279 30.8708 181.412 30.4042 181.412 29.8175ZM185.367 24.9175C185.367 24.9908 185.367 25.0642 185.367 25.1375C185.367 25.2042 185.364 25.2708 185.357 25.3375C185.331 25.6842 185.254 26.0275 185.127 26.3675C185.001 26.7008 184.847 27.0175 184.667 27.3175L183.947 27.0875C184.087 26.7875 184.191 26.4908 184.257 26.1975C184.331 25.8975 184.367 25.6175 184.367 25.3575C184.367 25.2908 184.364 25.2208 184.357 25.1475C184.357 25.0675 184.354 24.9908 184.347 24.9175H185.367Z" fill="white"/>
<rect x="38.6502" y="39.5" width="419.7" height="339.587" stroke="white"/>
<line x1="64" y1="39.0004" x2="63.6961" y2="379.587" stroke="#D6D6D6" stroke-dasharray="2 2"/>
<line x1="38" y1="93" x2="459" y2="93" stroke="#D6D6D6" stroke-dasharray="2 2"/>
<path d="M57.7068 51C57.6335 50.8533 57.5435 50.69 57.4368 50.51C57.3302 50.33 57.2135 50.1467 57.0868 49.96C56.9602 49.7667 56.8302 49.5767 56.6968 49.39C56.5635 49.2033 56.4335 49.0267 56.3068 48.86C56.1802 49.0267 56.0502 49.2067 55.9168 49.4C55.7835 49.5867 55.6535 49.7767 55.5268 49.97C55.4068 50.1567 55.2935 50.34 55.1868 50.52C55.0802 50.7 54.9902 50.86 54.9168 51H53.9568C54.1902 50.5467 54.4668 50.0867 54.7868 49.62C55.1135 49.1467 55.4368 48.6967 55.7568 48.27L54.0368 45.8H55.0868L56.3268 47.62L57.5768 45.8H58.5668L56.8868 48.21C57.2068 48.6433 57.5335 49.1033 57.8668 49.59C58.2068 50.07 58.4935 50.54 58.7268 51H57.7068Z" fill="white"/>
<path d="M44.3762 105.791C44.4495 105.825 44.5428 105.855 44.6562 105.881C44.7762 105.915 44.8928 105.931 45.0062 105.931C45.3728 105.931 45.6595 105.848 45.8662 105.681C46.0728 105.521 46.2595 105.258 46.4262 104.891C46.0062 104.091 45.6128 103.245 45.2462 102.351C44.8862 101.451 44.5862 100.541 44.3462 99.6214H45.3462C45.4195 99.9214 45.5062 100.245 45.6062 100.591C45.7128 100.938 45.8295 101.295 45.9562 101.661C46.0828 102.028 46.2195 102.395 46.3662 102.761C46.5128 103.128 46.6662 103.481 46.8262 103.821C47.0795 103.121 47.2995 102.428 47.4862 101.741C47.6728 101.055 47.8495 100.348 48.0162 99.6214H48.9762C48.7362 100.601 48.4695 101.545 48.1762 102.451C47.8828 103.351 47.5662 104.195 47.2262 104.981C47.0928 105.281 46.9528 105.538 46.8062 105.751C46.6662 105.971 46.5095 106.151 46.3362 106.291C46.1628 106.431 45.9662 106.535 45.7462 106.601C45.5328 106.668 45.2895 106.701 45.0162 106.701C44.9428 106.701 44.8662 106.695 44.7862 106.681C44.7062 106.675 44.6262 106.661 44.5462 106.641C44.4728 106.628 44.4028 106.611 44.3362 106.591C44.2762 106.571 44.2328 106.555 44.2062 106.541L44.3762 105.791Z" fill="white"/>
<path d="M76.4489 194.5V99.9545H87.8977V142.057H138.31V99.9545H149.759V194.5H138.31V152.213H87.8977V194.5H76.4489ZM200.932 195.977C194.1 195.977 188.206 194.469 183.251 191.453C178.327 188.406 174.526 184.159 171.848 178.712C169.202 173.233 167.878 166.863 167.878 159.599C167.878 152.336 169.202 145.935 171.848 140.395C174.526 134.824 178.25 130.485 183.02 127.376C187.821 124.237 193.423 122.668 199.824 122.668C203.517 122.668 207.164 123.283 210.765 124.514C214.366 125.745 217.644 127.746 220.598 130.516C223.553 133.255 225.907 136.886 227.662 141.411C229.416 145.935 230.293 151.505 230.293 158.122V162.739H175.634V153.321H219.213C219.213 149.32 218.413 145.75 216.813 142.611C215.243 139.472 212.997 136.994 210.073 135.178C207.18 133.362 203.764 132.455 199.824 132.455C195.485 132.455 191.73 133.532 188.56 135.686C185.421 137.81 183.005 140.58 181.312 143.996C179.619 147.412 178.773 151.074 178.773 154.983V161.261C178.773 166.616 179.696 171.156 181.543 174.88C183.42 178.573 186.021 181.389 189.345 183.328C192.669 185.236 196.531 186.19 200.932 186.19C203.794 186.19 206.38 185.79 208.688 184.99C211.027 184.159 213.043 182.928 214.735 181.297C216.428 179.635 217.736 177.573 218.659 175.111L229.185 178.065C228.077 181.635 226.215 184.775 223.599 187.483C220.983 190.161 217.752 192.253 213.904 193.761C210.057 195.239 205.733 195.977 200.932 195.977ZM257.761 99.9545V194.5H246.866V99.9545H257.761ZM288.611 99.9545V194.5H277.716V99.9545H288.611ZM337.372 195.977C330.971 195.977 325.354 194.454 320.522 191.407C315.721 188.36 311.966 184.098 309.258 178.619C306.58 173.141 305.241 166.74 305.241 159.415C305.241 152.028 306.58 145.581 309.258 140.072C311.966 134.563 315.721 130.285 320.522 127.238C325.354 124.191 330.971 122.668 337.372 122.668C343.774 122.668 349.375 124.191 354.176 127.238C359.008 130.285 362.763 134.563 365.44 140.072C368.149 145.581 369.503 152.028 369.503 159.415C369.503 166.74 368.149 173.141 365.44 178.619C362.763 184.098 359.008 188.36 354.176 191.407C349.375 194.454 343.774 195.977 337.372 195.977ZM337.372 186.19C342.235 186.19 346.236 184.944 349.375 182.451C352.514 179.958 354.838 176.68 356.346 172.618C357.854 168.555 358.608 164.154 358.608 159.415C358.608 154.675 357.854 150.259 356.346 146.165C354.838 142.072 352.514 138.764 349.375 136.24C346.236 133.716 342.235 132.455 337.372 132.455C332.509 132.455 328.509 133.716 325.369 136.24C322.23 138.764 319.906 142.072 318.398 146.165C316.89 150.259 316.136 154.675 316.136 159.415C316.136 164.154 316.89 168.555 318.398 172.618C319.906 176.68 322.23 179.958 325.369 182.451C328.509 184.944 332.509 186.19 337.372 186.19ZM93.6222 344.5L67.7699 249.955H79.4034L99.1619 326.957H100.085L120.213 249.955H133.139L153.267 326.957H154.19L173.949 249.955H185.582L159.73 344.5H147.912L127.045 269.159H126.307L105.44 344.5H93.6222ZM220.575 345.977C214.174 345.977 208.557 344.454 203.725 341.407C198.924 338.36 195.169 334.098 192.461 328.619C189.783 323.141 188.445 316.74 188.445 309.415C188.445 302.028 189.783 295.581 192.461 290.072C195.169 284.563 198.924 280.285 203.725 277.238C208.557 274.191 214.174 272.668 220.575 272.668C226.977 272.668 232.578 274.191 237.379 277.238C242.211 280.285 245.966 284.563 248.643 290.072C251.352 295.581 252.706 302.028 252.706 309.415C252.706 316.74 251.352 323.141 248.643 328.619C245.966 334.098 242.211 338.36 237.379 341.407C232.578 344.454 226.977 345.977 220.575 345.977ZM220.575 336.19C225.438 336.19 229.439 334.944 232.578 332.451C235.717 329.958 238.041 326.68 239.549 322.618C241.057 318.555 241.811 314.154 241.811 309.415C241.811 304.675 241.057 300.259 239.549 296.165C238.041 292.072 235.717 288.764 232.578 286.24C229.439 283.716 225.438 282.455 220.575 282.455C215.713 282.455 211.712 283.716 208.572 286.24C205.433 288.764 203.11 292.072 201.602 296.165C200.094 300.259 199.339 304.675 199.339 309.415C199.339 314.154 200.094 318.555 201.602 322.618C203.11 326.68 205.433 329.958 208.572 332.451C211.712 334.944 215.713 336.19 220.575 336.19ZM269.337 344.5V273.591H279.862V284.301H280.601C281.894 280.793 284.233 277.946 287.618 275.761C291.003 273.576 294.82 272.483 299.067 272.483C299.867 272.483 300.867 272.498 302.068 272.529C303.268 272.56 304.176 272.606 304.791 272.668V283.747C304.422 283.655 303.576 283.516 302.252 283.332C300.96 283.116 299.59 283.009 298.144 283.009C294.697 283.009 291.619 283.732 288.911 285.178C286.233 286.594 284.11 288.564 282.54 291.087C281.001 293.58 280.232 296.427 280.232 299.628V344.5H269.337ZM328.601 249.955V344.5H317.706V249.955H328.601ZM375.331 345.977C369.422 345.977 364.205 344.485 359.681 341.499C355.157 338.483 351.618 334.236 349.063 328.758C346.509 323.249 345.232 316.74 345.232 309.23C345.232 301.782 346.509 295.319 349.063 289.841C351.618 284.363 355.173 280.131 359.727 277.146C364.282 274.16 369.545 272.668 375.516 272.668C380.132 272.668 383.779 273.437 386.457 274.976C389.165 276.484 391.227 278.207 392.643 280.146C394.089 282.054 395.213 283.624 396.013 284.855H396.936V249.955H407.831V344.5H397.306V333.605H396.013C395.213 334.898 394.074 336.529 392.597 338.499C391.119 340.437 389.011 342.176 386.272 343.715C383.533 345.223 379.886 345.977 375.331 345.977ZM376.808 336.19C381.179 336.19 384.872 335.052 387.888 332.774C390.904 330.466 393.197 327.281 394.767 323.218C396.336 319.125 397.121 314.401 397.121 309.045C397.121 303.752 396.352 299.12 394.813 295.15C393.274 291.149 390.996 288.04 387.98 285.825C384.964 283.578 381.24 282.455 376.808 282.455C372.192 282.455 368.345 283.639 365.267 286.009C362.22 288.348 359.927 291.534 358.389 295.565C356.881 299.566 356.127 304.06 356.127 309.045C356.127 314.093 356.896 318.679 358.435 322.803C360.004 326.896 362.313 330.158 365.36 332.589C368.437 334.99 372.253 336.19 376.808 336.19Z" fill="white"/>
<rect x="65.5" y="94.7103" width="353.326" height="255.355" stroke="#FF0000"/>
<path d="M45.235 362.862C44.9283 362.862 44.6317 362.802 44.345 362.682C44.0617 362.558 43.8083 362.36 43.585 362.087C43.3617 361.81 43.1833 361.442 43.05 360.982C42.92 360.522 42.855 359.952 42.855 359.272C42.855 358.595 42.92 358.028 43.05 357.572C43.1833 357.112 43.3617 356.743 43.585 356.467C43.8083 356.19 44.0617 355.992 44.345 355.872C44.6317 355.752 44.9283 355.692 45.235 355.692C45.5283 355.692 45.815 355.752 46.095 355.872C46.3783 355.992 46.6333 356.19 46.86 356.467C47.09 356.743 47.2717 357.112 47.405 357.572C47.5383 358.028 47.605 358.595 47.605 359.272C47.605 359.952 47.5383 360.522 47.405 360.982C47.2717 361.442 47.09 361.81 46.86 362.087C46.6333 362.36 46.3783 362.558 46.095 362.682C45.815 362.802 45.5283 362.862 45.235 362.862ZM45.235 362.112C45.4183 362.112 45.59 362.062 45.75 361.962C45.9133 361.862 46.0567 361.7 46.18 361.477C46.3067 361.253 46.405 360.96 46.475 360.597C46.5483 360.233 46.585 359.792 46.585 359.272C46.585 358.755 46.5483 358.317 46.475 357.957C46.405 357.593 46.3067 357.302 46.18 357.082C46.0567 356.858 45.9133 356.697 45.75 356.597C45.59 356.493 45.4183 356.442 45.235 356.442C45.0483 356.442 44.8717 356.493 44.705 356.597C44.5417 356.697 44.3983 356.858 44.275 357.082C44.1517 357.302 44.0533 357.593 43.98 357.957C43.91 358.317 43.875 358.755 43.875 359.272C43.875 359.792 43.91 360.233 43.98 360.597C44.0533 360.96 44.1517 361.253 44.275 361.477C44.3983 361.7 44.5417 361.862 44.705 361.962C44.8717 362.062 45.0483 362.112 45.235 362.112ZM50.6739 364.052L50.2589 363.512C50.3489 363.472 50.4356 363.422 50.5189 363.362C50.6022 363.305 50.6689 363.225 50.7189 363.122C50.7722 363.022 50.7989 362.89 50.7989 362.727L51.5089 362.752C51.5089 363.005 51.4622 363.218 51.3689 363.392C51.2789 363.568 51.1689 363.71 51.0389 363.817C50.9089 363.923 50.7872 364.002 50.6739 364.052ZM50.3589 362.752V361.617H51.5089V362.752H50.3589ZM56.7389 362.862C56.4322 362.862 56.1356 362.802 55.8489 362.682C55.5656 362.558 55.3122 362.36 55.0889 362.087C54.8656 361.81 54.6872 361.442 54.5539 360.982C54.4239 360.522 54.3589 359.952 54.3589 359.272C54.3589 358.595 54.4239 358.028 54.5539 357.572C54.6872 357.112 54.8656 356.743 55.0889 356.467C55.3122 356.19 55.5656 355.992 55.8489 355.872C56.1356 355.752 56.4322 355.692 56.7389 355.692C57.0322 355.692 57.3189 355.752 57.5989 355.872C57.8822 355.992 58.1372 356.19 58.3639 356.467C58.5939 356.743 58.7756 357.112 58.9089 357.572C59.0422 358.028 59.1089 358.595 59.1089 359.272C59.1089 359.952 59.0422 360.522 58.9089 360.982C58.7756 361.442 58.5939 361.81 58.3639 362.087C58.1372 362.36 57.8822 362.558 57.5989 362.682C57.3189 362.802 57.0322 362.862 56.7389 362.862ZM56.7389 362.112C56.9222 362.112 57.0939 362.062 57.2539 361.962C57.4172 361.862 57.5606 361.7 57.6839 361.477C57.8106 361.253 57.9089 360.96 57.9789 360.597C58.0522 360.233 58.0889 359.792 58.0889 359.272C58.0889 358.755 58.0522 358.317 57.9789 357.957C57.9089 357.593 57.8106 357.302 57.6839 357.082C57.5606 356.858 57.4172 356.697 57.2539 356.597C57.0939 356.493 56.9222 356.442 56.7389 356.442C56.5522 356.442 56.3756 356.493 56.2089 356.597C56.0456 356.697 55.9022 356.858 55.7789 357.082C55.6556 357.302 55.5572 357.593 55.4839 357.957C55.4139 358.317 55.3789 358.755 55.3789 359.272C55.3789 359.792 55.4139 360.233 55.4839 360.597C55.5572 360.96 55.6556 361.253 55.7789 361.477C55.9022 361.7 56.0456 361.862 56.2089 361.962C56.3756 362.062 56.5522 362.112 56.7389 362.112Z" fill="#FF0000"/>
<path d="M45.235 89.1344C44.9283 89.1344 44.6317 89.0744 44.345 88.9544C44.0617 88.831 43.8083 88.6327 43.585 88.3594C43.3617 88.0827 43.1833 87.7144 43.05 87.2544C42.92 86.7944 42.855 86.2244 42.855 85.5444C42.855 84.8677 42.92 84.301 43.05 83.8444C43.1833 83.3844 43.3617 83.016 43.585 82.7394C43.8083 82.4627 44.0617 82.2644 44.345 82.1444C44.6317 82.0244 44.9283 81.9644 45.235 81.9644C45.5283 81.9644 45.815 82.0244 46.095 82.1444C46.3783 82.2644 46.6333 82.4627 46.86 82.7394C47.09 83.016 47.2717 83.3844 47.405 83.8444C47.5383 84.301 47.605 84.8677 47.605 85.5444C47.605 86.2244 47.5383 86.7944 47.405 87.2544C47.2717 87.7144 47.09 88.0827 46.86 88.3594C46.6333 88.6327 46.3783 88.831 46.095 88.9544C45.815 89.0744 45.5283 89.1344 45.235 89.1344ZM45.235 88.3844C45.4183 88.3844 45.59 88.3344 45.75 88.2344C45.9133 88.1344 46.0567 87.9727 46.18 87.7494C46.3067 87.526 46.405 87.2327 46.475 86.8694C46.5483 86.506 46.585 86.0644 46.585 85.5444C46.585 85.0277 46.5483 84.5894 46.475 84.2294C46.405 83.866 46.3067 83.5744 46.18 83.3544C46.0567 83.131 45.9133 82.9694 45.75 82.8694C45.59 82.766 45.4183 82.7144 45.235 82.7144C45.0483 82.7144 44.8717 82.766 44.705 82.8694C44.5417 82.9694 44.3983 83.131 44.275 83.3544C44.1517 83.5744 44.0533 83.866 43.98 84.2294C43.91 84.5894 43.875 85.0277 43.875 85.5444C43.875 86.0644 43.91 86.506 43.98 86.8694C44.0533 87.2327 44.1517 87.526 44.275 87.7494C44.3983 87.9727 44.5417 88.1344 44.705 88.2344C44.8717 88.3344 45.0483 88.3844 45.235 88.3844ZM50.6739 90.3244L50.2589 89.7844C50.3489 89.7444 50.4356 89.6944 50.5189 89.6344C50.6022 89.5777 50.6689 89.4977 50.7189 89.3944C50.7722 89.2944 50.7989 89.1627 50.7989 88.9994L51.5089 89.0244C51.5089 89.2777 51.4622 89.491 51.3689 89.6644C51.2789 89.841 51.1689 89.9827 51.0389 90.0894C50.9089 90.196 50.7872 90.2744 50.6739 90.3244ZM50.3589 89.0244V87.8894H51.5089V89.0244H50.3589ZM54.6889 89.0244V88.2644H56.2789V82.9344L54.7139 83.3594V82.4994L56.4139 82.0244H57.2689V88.2644H58.8589V89.0244H54.6889Z" fill="#FF0000"/>
<path d="M427.185 91.0244V90.2644H428.775V84.9344L427.21 85.3594V84.4994L428.91 84.0244H429.765V90.2644H431.355V91.0244H427.185ZM434.674 92.3244L434.259 91.7844C434.349 91.7444 434.436 91.6944 434.519 91.6344C434.602 91.5777 434.669 91.4977 434.719 91.3944C434.772 91.2944 434.799 91.1627 434.799 90.9994L435.509 91.0244C435.509 91.2777 435.462 91.491 435.369 91.6644C435.279 91.841 435.169 91.9827 435.039 92.0894C434.909 92.196 434.787 92.2744 434.674 92.3244ZM434.359 91.0244V89.8894H435.509V91.0244H434.359ZM438.689 91.0244V90.2644H440.279V84.9344L438.714 85.3594V84.4994L440.414 84.0244H441.269V90.2644H442.859V91.0244H438.689Z" fill="#FF0000"/>
<path d="M427.185 360.252V359.492H428.775V354.162L427.21 354.587V353.727L428.91 353.252H429.765V359.492H431.355V360.252H427.185ZM434.674 361.552L434.259 361.012C434.349 360.972 434.436 360.922 434.519 360.862C434.602 360.805 434.669 360.725 434.719 360.622C434.772 360.522 434.799 360.39 434.799 360.227L435.509 360.252C435.509 360.505 435.462 360.718 435.369 360.892C435.279 361.068 435.169 361.21 435.039 361.317C434.909 361.423 434.787 361.502 434.674 361.552ZM434.359 360.252V359.117H435.509V360.252H434.359ZM440.739 360.362C440.432 360.362 440.136 360.302 439.849 360.182C439.566 360.058 439.312 359.86 439.089 359.587C438.866 359.31 438.687 358.942 438.554 358.482C438.424 358.022 438.359 357.452 438.359 356.772C438.359 356.095 438.424 355.528 438.554 355.072C438.687 354.612 438.866 354.243 439.089 353.967C439.312 353.69 439.566 353.492 439.849 353.372C440.136 353.252 440.432 353.192 440.739 353.192C441.032 353.192 441.319 353.252 441.599 353.372C441.882 353.492 442.137 353.69 442.364 353.967C442.594 354.243 442.776 354.612 442.909 355.072C443.042 355.528 443.109 356.095 443.109 356.772C443.109 357.452 443.042 358.022 442.909 358.482C442.776 358.942 442.594 359.31 442.364 359.587C442.137 359.86 441.882 360.058 441.599 360.182C441.319 360.302 441.032 360.362 440.739 360.362ZM440.739 359.612C440.922 359.612 441.094 359.562 441.254 359.462C441.417 359.362 441.561 359.2 441.684 358.977C441.811 358.753 441.909 358.46 441.979 358.097C442.052 357.733 442.089 357.292 442.089 356.772C442.089 356.255 442.052 355.817 441.979 355.457C441.909 355.093 441.811 354.802 441.684 354.582C441.561 354.358 441.417 354.197 441.254 354.097C441.094 353.993 440.922 353.942 440.739 353.942C440.552 353.942 440.376 353.993 440.209 354.097C440.046 354.197 439.902 354.358 439.779 354.582C439.656 354.802 439.557 355.093 439.484 355.457C439.414 355.817 439.379 356.255 439.379 356.772C439.379 357.292 439.414 357.733 439.484 358.097C439.557 358.46 439.656 358.753 439.779 358.977C439.902 359.2 440.046 359.362 440.209 359.462C440.376 359.562 440.552 359.612 440.739 359.612Z" fill="#FF0000"/>
<path d="M72.5636 88.1394C72.307 88.1394 72.072 88.0994 71.8586 88.0194C71.6486 87.9394 71.4686 87.8144 71.3186 87.6444C71.172 87.471 71.0586 87.2494 70.9786 86.9794C70.8986 86.706 70.8586 86.3794 70.8586 85.9994V83.0244H71.8486V85.8494C71.8486 86.2027 71.8853 86.4894 71.9586 86.7094C72.0353 86.926 72.1486 87.086 72.2986 87.1894C72.452 87.2894 72.647 87.3394 72.8836 87.3394C73.0536 87.3394 73.2136 87.306 73.3636 87.2394C73.517 87.1727 73.652 87.0794 73.7686 86.9594C73.8886 86.8394 73.9853 86.701 74.0586 86.5444C74.132 86.3877 74.1736 86.221 74.1836 86.0444L74.4636 86.1344C74.4636 86.3844 74.422 86.6294 74.3386 86.8694C74.2586 87.106 74.1386 87.321 73.9786 87.5144C73.822 87.7044 73.6253 87.856 73.3886 87.9694C73.152 88.0827 72.877 88.1394 72.5636 88.1394ZM74.3436 88.0244L74.1586 86.9544V83.0244H75.1486V87.4994L74.9536 87.2644H75.7386V88.0244H74.3436ZM78.8325 88.0244L77.1125 83.0244H78.1625L79.5625 87.2094H79.6525L81.0525 83.0244H82.1025L80.3825 88.0244H78.8325Z" fill="#FF0000"/>
<rect x="544" y="95" width="249" height="249" fill="url(#paint1_linear_1_56)" fill-opacity="0.5"/>
<line x1="560.062" y1="94.9996" x2="560.062" y2="344" stroke="black"/>
<line x1="591.188" y1="95.0946" x2="591.188" y2="344.095" stroke="black"/>
<line x1="622.312" y1="95.1897" x2="622.312" y2="344.191" stroke="black"/>
<line x1="653.438" y1="95.2848" x2="653.438" y2="344.286" stroke="black"/>
<line x1="684.562" y1="95.3798" x2="684.562" y2="344.381" stroke="black"/>
<line x1="715.688" y1="95.4749" x2="715.688" y2="344.476" stroke="black"/>
<line x1="746.812" y1="95.57" x2="746.812" y2="344.571" stroke="black"/>
<line x1="777.938" y1="95.665" x2="777.938" y2="344.666" stroke="black"/>
<line x1="575.625" y1="95.0946" x2="575.625" y2="344.095" stroke="black"/>
<line x1="606.75" y1="95.1897" x2="606.75" y2="344.191" stroke="black"/>
<line x1="637.875" y1="95.2848" x2="637.875" y2="344.286" stroke="black"/>
<line x1="669" y1="95.3798" x2="669" y2="344.381" stroke="black"/>
<line x1="700.125" y1="95.4749" x2="700.125" y2="344.476" stroke="black"/>
<line x1="731.25" y1="95.57" x2="731.25" y2="344.571" stroke="black"/>
<line x1="762.375" y1="95.665" x2="762.375" y2="344.666" stroke="black"/>
<line x1="543.682" y1="328.27" x2="792.683" y2="328.27" stroke="black"/>
<line x1="543.773" y1="297.145" x2="792.774" y2="297.145" stroke="black"/>
<line x1="543.863" y1="266.02" x2="792.864" y2="266.02" stroke="black"/>
<line x1="543.954" y1="234.895" x2="792.955" y2="234.895" stroke="black"/>
<line x1="544.045" y1="203.77" x2="793.046" y2="203.77" stroke="black"/>
<line x1="544.136" y1="172.645" x2="793.137" y2="172.645" stroke="black"/>
<line x1="544.226" y1="141.52" x2="793.227" y2="141.52" stroke="black"/>
<line x1="544.317" y1="110.395" x2="793.318" y2="110.395" stroke="black"/>
<line x1="543.775" y1="312.708" x2="792.776" y2="312.708" stroke="black"/>
<line x1="543.866" y1="281.583" x2="792.866" y2="281.583" stroke="black"/>
<line x1="543.956" y1="250.458" x2="792.957" y2="250.458" stroke="black"/>
<line x1="544.047" y1="219.333" x2="793.048" y2="219.333" stroke="black"/>
<line x1="544.138" y1="188.208" x2="793.139" y2="188.208" stroke="black"/>
<line x1="544.229" y1="157.083" x2="793.229" y2="157.083" stroke="black"/>
<line x1="544.319" y1="125.958" x2="793.32" y2="125.958" stroke="black"/>
<rect x="792.895" y="94.95" width="249" height="249" fill="url(#paint2_linear_1_56)" fill-opacity="0.5"/>
<line x1="808.958" y1="94.9495" x2="808.958" y2="343.95" stroke="black"/>
<line x1="840.083" y1="95.0446" x2="840.083" y2="344.045" stroke="black"/>
<line x1="871.208" y1="95.1396" x2="871.208" y2="344.141" stroke="black"/>
<line x1="902.333" y1="95.2347" x2="902.333" y2="344.236" stroke="black"/>
<line x1="933.458" y1="95.3298" x2="933.458" y2="344.331" stroke="black"/>
<line x1="824.52" y1="95.0446" x2="824.52" y2="344.045" stroke="black"/>
<line x1="855.645" y1="95.1396" x2="855.645" y2="344.141" stroke="black"/>
<line x1="886.77" y1="95.2347" x2="886.77" y2="344.236" stroke="black"/>
<line x1="917.895" y1="95.3298" x2="917.895" y2="344.331" stroke="black"/>
<line x1="949.02" y1="95.4249" x2="949.02" y2="344.426" stroke="black"/>
<line x1="792.577" y1="328.22" x2="1041.58" y2="328.22" stroke="black"/>
<line x1="792.668" y1="297.095" x2="1041.67" y2="297.095" stroke="black"/>
<line x1="792.759" y1="265.97" x2="1041.76" y2="265.97" stroke="black"/>
<line x1="792.85" y1="234.845" x2="1041.85" y2="234.845" stroke="black"/>
<line x1="792.94" y1="203.72" x2="1041.94" y2="203.72" stroke="black"/>
<line x1="793.031" y1="172.595" x2="1042.03" y2="172.595" stroke="black"/>
<line x1="793.122" y1="141.47" x2="1042.12" y2="141.47" stroke="black"/>
<line x1="793.213" y1="110.345" x2="1042.21" y2="110.345" stroke="black"/>
<line x1="792.67" y1="312.658" x2="1041.67" y2="312.658" stroke="black"/>
<line x1="792.761" y1="281.533" x2="1041.76" y2="281.533" stroke="black"/>
<line x1="792.852" y1="250.408" x2="1041.85" y2="250.408" stroke="black"/>
<line x1="792.942" y1="219.283" x2="1041.94" y2="219.283" stroke="black"/>
<line x1="793.033" y1="188.158" x2="1042.03" y2="188.158" stroke="black"/>
<line x1="793.124" y1="157.033" x2="1042.12" y2="157.033" stroke="black"/>
<line x1="793.215" y1="125.908" x2="1042.22" y2="125.908" stroke="black"/>
<path d="M521.05 32.1571C520.863 31.6771 520.663 31.1304 520.45 30.5171C520.243 29.8971 520.053 29.2537 519.88 28.5871C519.707 29.2537 519.517 29.8971 519.31 30.5171C519.103 31.1304 518.907 31.6771 518.72 32.1571H517.91C517.603 31.4704 517.303 30.6871 517.01 29.8071C516.717 28.9271 516.44 27.9771 516.18 26.9571H517.18C517.247 27.2704 517.327 27.6104 517.42 27.9771C517.513 28.3437 517.61 28.7104 517.71 29.0771C517.817 29.4437 517.927 29.7971 518.04 30.1371C518.153 30.4771 518.26 30.7737 518.36 31.0271C518.473 30.7137 518.583 30.3837 518.69 30.0371C518.803 29.6837 518.91 29.3304 519.01 28.9771C519.11 28.6171 519.203 28.2671 519.29 27.9271C519.383 27.5804 519.463 27.2571 519.53 26.9571H520.3C520.36 27.2571 520.433 27.5804 520.52 27.9271C520.607 28.2671 520.7 28.6171 520.8 28.9771C520.9 29.3304 521.003 29.6837 521.11 30.0371C521.223 30.3837 521.337 30.7137 521.45 31.0271C521.55 30.7737 521.653 30.4771 521.76 30.1371C521.873 29.7971 521.983 29.4437 522.09 29.0771C522.197 28.7104 522.297 28.3437 522.39 27.9771C522.483 27.6104 522.563 27.2704 522.63 26.9571H523.59C523.33 27.9771 523.053 28.9271 522.76 29.8071C522.467 30.6871 522.167 31.4704 521.86 32.1571H521.05ZM526.503 32.1571H525.573V26.9571H526.503V32.1571ZM526.033 26.0171C525.867 26.0171 525.723 25.9637 525.603 25.8571C525.49 25.7437 525.433 25.5937 525.433 25.4071C525.433 25.2204 525.49 25.0737 525.603 24.9671C525.723 24.8537 525.867 24.7971 526.033 24.7971C526.2 24.7971 526.34 24.8537 526.453 24.9671C526.573 25.0737 526.633 25.2204 526.633 25.4071C526.633 25.5937 526.573 25.7437 526.453 25.8571C526.34 25.9637 526.2 26.0171 526.033 26.0171ZM532.463 28.0571C532.349 27.9637 532.186 27.8737 531.973 27.7871C531.759 27.7004 531.526 27.6571 531.273 27.6571C531.006 27.6571 530.776 27.7071 530.583 27.8071C530.396 27.9004 530.243 28.0337 530.123 28.2071C530.003 28.3737 529.916 28.5737 529.863 28.8071C529.809 29.0404 529.783 29.2904 529.783 29.5571C529.783 30.1637 529.933 30.6337 530.233 30.9671C530.533 31.2937 530.933 31.4571 531.433 31.4571C531.686 31.4571 531.896 31.4471 532.063 31.4271C532.236 31.4004 532.369 31.3737 532.463 31.3471V28.0571ZM532.463 24.5571L533.393 24.3971V32.0071C533.179 32.0671 532.906 32.1271 532.573 32.1871C532.239 32.2471 531.856 32.2771 531.423 32.2771C531.023 32.2771 530.663 32.2137 530.343 32.0871C530.023 31.9604 529.749 31.7804 529.523 31.5471C529.296 31.3137 529.119 31.0304 528.993 30.6971C528.873 30.3571 528.813 29.9771 528.813 29.5571C528.813 29.1571 528.863 28.7904 528.963 28.4571C529.069 28.1237 529.223 27.8371 529.423 27.5971C529.623 27.3571 529.866 27.1704 530.153 27.0371C530.446 26.9037 530.779 26.8371 531.153 26.8371C531.453 26.8371 531.716 26.8771 531.943 26.9571C532.176 27.0371 532.349 27.1137 532.463 27.1871V24.5571ZM536.861 26.9571H538.831V27.7371H536.861V30.1371C536.861 30.3971 536.881 30.6137 536.921 30.7871C536.961 30.9537 537.021 31.0871 537.101 31.1871C537.181 31.2804 537.281 31.3471 537.401 31.3871C537.521 31.4271 537.661 31.4471 537.821 31.4471C538.101 31.4471 538.325 31.4171 538.491 31.3571C538.665 31.2904 538.785 31.2437 538.851 31.2171L539.031 31.9871C538.938 32.0337 538.775 32.0904 538.541 32.1571C538.308 32.2304 538.041 32.2671 537.741 32.2671C537.388 32.2671 537.095 32.2237 536.861 32.1371C536.635 32.0437 536.451 31.9071 536.311 31.7271C536.171 31.5471 536.071 31.3271 536.011 31.0671C535.958 30.8004 535.931 30.4937 535.931 30.1471V25.5071L536.861 25.3471V26.9571ZM541.015 32.1571V24.5571L541.945 24.3971V27.0571C542.118 26.9904 542.302 26.9404 542.495 26.9071C542.695 26.8671 542.892 26.8471 543.085 26.8471C543.498 26.8471 543.842 26.9071 544.115 27.0271C544.388 27.1404 544.605 27.3037 544.765 27.5171C544.932 27.7237 545.048 27.9737 545.115 28.2671C545.182 28.5604 545.215 28.8837 545.215 29.2371V32.1571H544.285V29.4371C544.285 29.1171 544.262 28.8437 544.215 28.6171C544.175 28.3904 544.105 28.2071 544.005 28.0671C543.905 27.9271 543.772 27.8271 543.605 27.7671C543.438 27.7004 543.232 27.6671 542.985 27.6671C542.885 27.6671 542.782 27.6737 542.675 27.6871C542.568 27.7004 542.465 27.7171 542.365 27.7371C542.272 27.7504 542.185 27.7671 542.105 27.7871C542.032 27.8071 541.978 27.8237 541.945 27.8371V32.1571H541.015ZM548.828 31.6171C548.828 31.7971 548.768 31.9537 548.648 32.0871C548.528 32.2204 548.364 32.2871 548.158 32.2871C547.951 32.2871 547.788 32.2204 547.668 32.0871C547.548 31.9537 547.488 31.7971 547.488 31.6171C547.488 31.4371 547.548 31.2804 547.668 31.1471C547.788 31.0137 547.951 30.9471 548.158 30.9471C548.364 30.9471 548.528 31.0137 548.648 31.1471C548.768 31.2804 548.828 31.4371 548.828 31.6171ZM548.828 27.6271C548.828 27.8071 548.768 27.9637 548.648 28.0971C548.528 28.2304 548.364 28.2971 548.158 28.2971C547.951 28.2971 547.788 28.2304 547.668 28.0971C547.548 27.9637 547.488 27.8071 547.488 27.6271C547.488 27.4471 547.548 27.2904 547.668 27.1571C547.788 27.0237 547.951 26.9571 548.158 26.9571C548.364 26.9571 548.528 27.0237 548.648 27.1571C548.768 27.2904 548.828 27.4471 548.828 27.6271ZM554.633 26.6571C555.013 26.5104 555.383 26.3237 555.743 26.0971C556.103 25.8637 556.433 25.5737 556.733 25.2271H557.393V32.1571H556.463V26.5171C556.383 26.5904 556.283 26.6671 556.163 26.7471C556.05 26.8271 555.923 26.9037 555.783 26.9771C555.65 27.0504 555.506 27.1204 555.353 27.1871C555.206 27.2537 555.063 27.3104 554.923 27.3571L554.633 26.6571ZM562.128 31.0171C562.134 31.0704 562.138 31.1237 562.138 31.1771C562.138 31.2237 562.138 31.2737 562.138 31.3271C562.138 31.7471 562.074 32.1604 561.948 32.5671C561.828 32.9804 561.661 33.3737 561.448 33.7471L560.728 33.5171C560.894 33.1771 561.004 32.8304 561.058 32.4771C561.111 32.1304 561.138 31.8037 561.138 31.4971C561.138 31.4104 561.134 31.3271 561.128 31.2471C561.128 31.1671 561.124 31.0904 561.118 31.0171H562.128ZM562.248 27.6271C562.248 27.8071 562.188 27.9637 562.068 28.0971C561.948 28.2304 561.784 28.2971 561.578 28.2971C561.371 28.2971 561.208 28.2304 561.088 28.0971C560.968 27.9637 560.908 27.8071 560.908 27.6271C560.908 27.4471 560.968 27.2904 561.088 27.1571C561.208 27.0237 561.371 26.9571 561.578 26.9571C561.784 26.9571 561.948 27.0237 562.068 27.1571C562.188 27.2904 562.248 27.4471 562.248 27.6271ZM567.923 32.1571V24.5571L568.853 24.3971V27.0571C569.026 26.9904 569.21 26.9404 569.403 26.9071C569.603 26.8671 569.8 26.8471 569.993 26.8471C570.406 26.8471 570.75 26.9071 571.023 27.0271C571.296 27.1404 571.513 27.3037 571.673 27.5171C571.84 27.7237 571.956 27.9737 572.023 28.2671C572.09 28.5604 572.123 28.8837 572.123 29.2371V32.1571H571.193V29.4371C571.193 29.1171 571.17 28.8437 571.123 28.6171C571.083 28.3904 571.013 28.2071 570.913 28.0671C570.813 27.9271 570.68 27.8271 570.513 27.7671C570.346 27.7004 570.14 27.6671 569.893 27.6671C569.793 27.6671 569.69 27.6737 569.583 27.6871C569.476 27.7004 569.373 27.7171 569.273 27.7371C569.18 27.7504 569.093 27.7671 569.013 27.7871C568.94 27.8071 568.886 27.8237 568.853 27.8371V32.1571H567.923ZM574.346 29.5671C574.346 29.1071 574.413 28.7071 574.546 28.3671C574.679 28.0204 574.856 27.7337 575.076 27.5071C575.296 27.2804 575.549 27.1104 575.836 26.9971C576.123 26.8837 576.416 26.8271 576.716 26.8271C577.416 26.8271 577.953 27.0471 578.326 27.4871C578.699 27.9204 578.886 28.5837 578.886 29.4771C578.886 29.5171 578.886 29.5704 578.886 29.6371C578.886 29.6971 578.883 29.7537 578.876 29.8071H575.316C575.356 30.3471 575.513 30.7571 575.786 31.0371C576.059 31.3171 576.486 31.4571 577.066 31.4571C577.393 31.4571 577.666 31.4304 577.886 31.3771C578.113 31.3171 578.283 31.2604 578.396 31.2071L578.526 31.9871C578.413 32.0471 578.213 32.1104 577.926 32.1771C577.646 32.2437 577.326 32.2771 576.966 32.2771C576.513 32.2771 576.119 32.2104 575.786 32.0771C575.459 31.9371 575.189 31.7471 574.976 31.5071C574.763 31.2671 574.603 30.9837 574.496 30.6571C574.396 30.3237 574.346 29.9604 574.346 29.5671ZM577.916 29.0571C577.923 28.6371 577.816 28.2937 577.596 28.0271C577.383 27.7537 577.086 27.6171 576.706 27.6171C576.493 27.6171 576.303 27.6604 576.136 27.7471C575.976 27.8271 575.839 27.9337 575.726 28.0671C575.613 28.2004 575.523 28.3537 575.456 28.5271C575.396 28.7004 575.356 28.8771 575.336 29.0571H577.916ZM582.152 32.1571H581.222V26.9571H582.152V32.1571ZM581.682 26.0171C581.515 26.0171 581.372 25.9637 581.252 25.8571C581.139 25.7437 581.082 25.5937 581.082 25.4071C581.082 25.2204 581.139 25.0737 581.252 24.9671C581.372 24.8537 581.515 24.7971 581.682 24.7971C581.849 24.7971 581.989 24.8537 582.102 24.9671C582.222 25.0737 582.282 25.2204 582.282 25.4071C582.282 25.5937 582.222 25.7437 582.102 25.8571C581.989 25.9637 581.849 26.0171 581.682 26.0171ZM588.011 31.6371C587.931 31.6904 587.775 31.7604 587.541 31.8471C587.315 31.9271 587.048 31.9671 586.741 31.9671C586.428 31.9671 586.131 31.9171 585.851 31.8171C585.578 31.7171 585.338 31.5637 585.131 31.3571C584.925 31.1437 584.761 30.8804 584.641 30.5671C584.521 30.2537 584.461 29.8804 584.461 29.4471C584.461 29.0671 584.518 28.7204 584.631 28.4071C584.745 28.0871 584.908 27.8137 585.121 27.5871C585.341 27.3537 585.608 27.1737 585.921 27.0471C586.235 26.9137 586.588 26.8471 586.981 26.8471C587.415 26.8471 587.791 26.8804 588.111 26.9471C588.438 27.0071 588.711 27.0637 588.931 27.1171V31.7571C588.931 32.5571 588.725 33.1371 588.311 33.4971C587.898 33.8571 587.271 34.0371 586.431 34.0371C586.105 34.0371 585.795 34.0104 585.501 33.9571C585.215 33.9037 584.965 33.8404 584.751 33.7671L584.921 32.9571C585.108 33.0304 585.335 33.0937 585.601 33.1471C585.875 33.2071 586.158 33.2371 586.451 33.2371C587.005 33.2371 587.401 33.1271 587.641 32.9071C587.888 32.6871 588.011 32.3371 588.011 31.8571V31.6371ZM588.001 27.7771C587.908 27.7504 587.781 27.7271 587.621 27.7071C587.468 27.6804 587.258 27.6671 586.991 27.6671C586.491 27.6671 586.105 27.8304 585.831 28.1571C585.565 28.4837 585.431 28.9171 585.431 29.4571C585.431 29.7571 585.468 30.0137 585.541 30.2271C585.621 30.4404 585.725 30.6171 585.851 30.7571C585.985 30.8971 586.135 31.0004 586.301 31.0671C586.475 31.1337 586.651 31.1671 586.831 31.1671C587.078 31.1671 587.305 31.1337 587.511 31.0671C587.718 30.9937 587.881 30.9104 588.001 30.8171V27.7771ZM591.532 32.1571V24.5571L592.462 24.3971V27.0571C592.636 26.9904 592.819 26.9404 593.012 26.9071C593.212 26.8671 593.409 26.8471 593.602 26.8471C594.016 26.8471 594.359 26.9071 594.632 27.0271C594.906 27.1404 595.122 27.3037 595.282 27.5171C595.449 27.7237 595.566 27.9737 595.632 28.2671C595.699 28.5604 595.732 28.8837 595.732 29.2371V32.1571H594.802V29.4371C594.802 29.1171 594.779 28.8437 594.732 28.6171C594.692 28.3904 594.622 28.2071 594.522 28.0671C594.422 27.9271 594.289 27.8271 594.122 27.7671C593.956 27.7004 593.749 27.6671 593.502 27.6671C593.402 27.6671 593.299 27.6737 593.192 27.6871C593.086 27.7004 592.982 27.7171 592.882 27.7371C592.789 27.7504 592.702 27.7671 592.622 27.7871C592.549 27.8071 592.496 27.8237 592.462 27.8371V32.1571H591.532ZM599.115 26.9571H601.085V27.7371H599.115V30.1371C599.115 30.3971 599.135 30.6137 599.175 30.7871C599.215 30.9537 599.275 31.0871 599.355 31.1871C599.435 31.2804 599.535 31.3471 599.655 31.3871C599.775 31.4271 599.915 31.4471 600.075 31.4471C600.355 31.4471 600.579 31.4171 600.745 31.3571C600.919 31.2904 601.039 31.2437 601.105 31.2171L601.285 31.9871C601.192 32.0337 601.029 32.0904 600.795 32.1571C600.562 32.2304 600.295 32.2671 599.995 32.2671C599.642 32.2671 599.349 32.2237 599.115 32.1371C598.889 32.0437 598.705 31.9071 598.565 31.7271C598.425 31.5471 598.325 31.3271 598.265 31.0671C598.212 30.8004 598.185 30.4937 598.185 30.1471V25.5071L599.115 25.3471V26.9571ZM604.369 31.6171C604.369 31.7971 604.309 31.9537 604.189 32.0871C604.069 32.2204 603.905 32.2871 603.699 32.2871C603.492 32.2871 603.329 32.2204 603.209 32.0871C603.089 31.9537 603.029 31.7971 603.029 31.6171C603.029 31.4371 603.089 31.2804 603.209 31.1471C603.329 31.0137 603.492 30.9471 603.699 30.9471C603.905 30.9471 604.069 31.0137 604.189 31.1471C604.309 31.2804 604.369 31.4371 604.369 31.6171ZM604.369 27.6271C604.369 27.8071 604.309 27.9637 604.189 28.0971C604.069 28.2304 603.905 28.2971 603.699 28.2971C603.492 28.2971 603.329 28.2304 603.209 28.0971C603.089 27.9637 603.029 27.8071 603.029 27.6271C603.029 27.4471 603.089 27.2904 603.209 27.1571C603.329 27.0237 603.492 26.9571 603.699 26.9571C603.905 26.9571 604.069 27.0237 604.189 27.1571C604.309 27.2904 604.369 27.4471 604.369 27.6271ZM610.174 26.6571C610.554 26.5104 610.924 26.3237 611.284 26.0971C611.644 25.8637 611.974 25.5737 612.274 25.2271H612.934V32.1571H612.004V26.5171C611.924 26.5904 611.824 26.6671 611.704 26.7471C611.591 26.8271 611.464 26.9037 611.324 26.9771C611.191 27.0504 611.047 27.1204 610.894 27.1871C610.747 27.2537 610.604 27.3104 610.464 27.3571L610.174 26.6571Z" fill="white"/>
<path d="M554.449 194.24V99.6941H565.898V141.796H616.31V99.6941H627.759V194.24H616.31V151.953H565.898V194.24H554.449ZM678.932 195.717C672.1 195.717 666.206 194.209 661.251 191.193C656.327 188.146 652.526 183.899 649.848 178.451C647.202 172.973 645.878 166.602 645.878 159.339C645.878 152.076 647.202 145.674 649.848 140.134C652.526 134.564 656.25 130.224 661.02 127.116C665.821 123.977 671.423 122.407 677.824 122.407C681.517 122.407 685.164 123.023 688.765 124.254C692.366 125.485 695.644 127.485 698.598 130.255C701.553 132.994 703.907 136.626 705.662 141.15C707.416 145.674 708.293 151.245 708.293 157.862V162.478H653.634V153.061H697.213C697.213 149.06 696.413 145.49 694.813 142.35C693.243 139.211 690.997 136.734 688.073 134.918C685.18 133.102 681.764 132.194 677.824 132.194C673.485 132.194 669.73 133.271 666.56 135.426C663.421 137.549 661.005 140.319 659.312 143.735C657.619 147.151 656.773 150.814 656.773 154.723V161.001C656.773 166.356 657.696 170.896 659.543 174.62C661.42 178.313 664.021 181.129 667.345 183.068C670.669 184.976 674.531 185.93 678.932 185.93C681.794 185.93 684.38 185.53 686.688 184.73C689.027 183.899 691.043 182.668 692.735 181.036C694.428 179.375 695.736 177.312 696.659 174.85L707.185 177.805C706.077 181.375 704.215 184.514 701.599 187.223C698.983 189.9 695.752 191.993 691.904 193.501C688.057 194.978 683.733 195.717 678.932 195.717ZM735.761 99.6941V194.24H724.866V99.6941H735.761ZM766.611 99.6941V194.24H755.716V99.6941H766.611ZM815.372 195.717C808.971 195.717 803.354 194.193 798.522 191.147C793.721 188.1 789.966 183.837 787.258 178.359C784.58 172.881 783.241 166.479 783.241 159.154C783.241 151.768 784.58 145.32 787.258 139.811C789.966 134.302 793.721 130.024 798.522 126.977C803.354 123.931 808.971 122.407 815.372 122.407C821.774 122.407 827.375 123.931 832.176 126.977C837.008 130.024 840.763 134.302 843.44 139.811C846.149 145.32 847.503 151.768 847.503 159.154C847.503 166.479 846.149 172.881 843.44 178.359C840.763 183.837 837.008 188.1 832.176 191.147C827.375 194.193 821.774 195.717 815.372 195.717ZM815.372 185.93C820.235 185.93 824.236 184.683 827.375 182.191C830.514 179.698 832.838 176.42 834.346 172.357C835.854 168.295 836.608 163.894 836.608 159.154C836.608 154.415 835.854 149.998 834.346 145.905C832.838 141.812 830.514 138.503 827.375 135.98C824.236 133.456 820.235 132.194 815.372 132.194C810.509 132.194 806.509 133.456 803.369 135.98C800.23 138.503 797.906 141.812 796.398 145.905C794.89 149.998 794.136 154.415 794.136 159.154C794.136 163.894 794.89 168.295 796.398 172.357C797.906 176.42 800.23 179.698 803.369 182.191C806.509 184.683 810.509 185.93 815.372 185.93ZM571.622 344.24L545.77 249.694H557.403L577.162 326.697H578.085L598.213 249.694H611.139L631.267 326.697H632.19L651.949 249.694H663.582L637.73 344.24H625.912L605.045 268.899H604.307L583.44 344.24H571.622ZM698.575 345.717C692.174 345.717 686.557 344.193 681.725 341.147C676.924 338.1 673.169 333.837 670.461 328.359C667.783 322.881 666.445 316.479 666.445 309.154C666.445 301.768 667.783 295.32 670.461 289.811C673.169 284.302 676.924 280.024 681.725 276.977C686.557 273.931 692.174 272.407 698.575 272.407C704.977 272.407 710.578 273.931 715.379 276.977C720.211 280.024 723.966 284.302 726.643 289.811C729.352 295.32 730.706 301.768 730.706 309.154C730.706 316.479 729.352 322.881 726.643 328.359C723.966 333.837 720.211 338.1 715.379 341.147C710.578 344.193 704.977 345.717 698.575 345.717ZM698.575 335.93C703.438 335.93 707.439 334.683 710.578 332.191C713.717 329.698 716.041 326.42 717.549 322.357C719.057 318.295 719.811 313.894 719.811 309.154C719.811 304.415 719.057 299.998 717.549 295.905C716.041 291.812 713.717 288.503 710.578 285.98C707.439 283.456 703.438 282.194 698.575 282.194C693.713 282.194 689.712 283.456 686.572 285.98C683.433 288.503 681.11 291.812 679.602 295.905C678.094 299.998 677.339 304.415 677.339 309.154C677.339 313.894 678.094 318.295 679.602 322.357C681.11 326.42 683.433 329.698 686.572 332.191C689.712 334.683 693.713 335.93 698.575 335.93ZM747.337 344.24V273.33H757.862V284.041H758.601C759.894 280.532 762.233 277.685 765.618 275.5C769.003 273.315 772.82 272.223 777.067 272.223C777.867 272.223 778.867 272.238 780.068 272.269C781.268 272.299 782.176 272.346 782.791 272.407V283.487C782.422 283.394 781.576 283.256 780.252 283.071C778.96 282.856 777.59 282.748 776.144 282.748C772.697 282.748 769.619 283.471 766.911 284.918C764.233 286.334 762.11 288.303 760.54 290.827C759.001 293.32 758.232 296.167 758.232 299.367V344.24H747.337ZM806.601 249.694V344.24H795.706V249.694H806.601ZM853.331 345.717C847.422 345.717 842.205 344.224 837.681 341.239C833.157 338.223 829.618 333.976 827.063 328.497C824.509 322.988 823.232 316.479 823.232 308.97C823.232 301.522 824.509 295.059 827.063 289.58C829.618 284.102 833.173 279.87 837.727 276.885C842.282 273.9 847.545 272.407 853.516 272.407C858.132 272.407 861.779 273.177 864.457 274.715C867.165 276.223 869.227 277.947 870.643 279.886C872.089 281.794 873.213 283.364 874.013 284.595H874.936V249.694H885.831V344.24H875.306V333.345H874.013C873.213 334.637 872.074 336.268 870.597 338.238C869.119 340.177 867.011 341.916 864.272 343.455C861.533 344.963 857.886 345.717 853.331 345.717ZM854.808 335.93C859.179 335.93 862.872 334.791 865.888 332.514C868.904 330.205 871.197 327.02 872.767 322.958C874.336 318.864 875.121 314.14 875.121 308.785C875.121 303.491 874.352 298.86 872.813 294.889C871.274 290.888 868.996 287.78 865.98 285.564C862.964 283.317 859.24 282.194 854.808 282.194C850.192 282.194 846.345 283.379 843.267 285.749C840.22 288.088 837.927 291.273 836.389 295.305C834.881 299.306 834.127 303.799 834.127 308.785C834.127 313.832 834.896 318.418 836.435 322.542C838.004 326.635 840.313 329.898 843.36 332.329C846.437 334.73 850.253 335.93 854.808 335.93Z" fill="white"/>
<rect x="543.5" y="94.45" width="250.73" height="250.728" stroke="#FF0000"/>
<path d="M523.235 359.601C522.928 359.601 522.632 359.541 522.345 359.421C522.062 359.298 521.808 359.1 521.585 358.826C521.362 358.55 521.183 358.181 521.05 357.721C520.92 357.261 520.855 356.691 520.855 356.011C520.855 355.335 520.92 354.768 521.05 354.311C521.183 353.851 521.362 353.483 521.585 353.206C521.808 352.93 522.062 352.731 522.345 352.611C522.632 352.491 522.928 352.431 523.235 352.431C523.528 352.431 523.815 352.491 524.095 352.611C524.378 352.731 524.633 352.93 524.86 353.206C525.09 353.483 525.272 353.851 525.405 354.311C525.538 354.768 525.605 355.335 525.605 356.011C525.605 356.691 525.538 357.261 525.405 357.721C525.272 358.181 525.09 358.55 524.86 358.826C524.633 359.1 524.378 359.298 524.095 359.421C523.815 359.541 523.528 359.601 523.235 359.601ZM523.235 358.851C523.418 358.851 523.59 358.801 523.75 358.701C523.913 358.601 524.057 358.44 524.18 358.216C524.307 357.993 524.405 357.7 524.475 357.336C524.548 356.973 524.585 356.531 524.585 356.011C524.585 355.495 524.548 355.056 524.475 354.696C524.405 354.333 524.307 354.041 524.18 353.821C524.057 353.598 523.913 353.436 523.75 353.336C523.59 353.233 523.418 353.181 523.235 353.181C523.048 353.181 522.872 353.233 522.705 353.336C522.542 353.436 522.398 353.598 522.275 353.821C522.152 354.041 522.053 354.333 521.98 354.696C521.91 355.056 521.875 355.495 521.875 356.011C521.875 356.531 521.91 356.973 521.98 357.336C522.053 357.7 522.152 357.993 522.275 358.216C522.398 358.44 522.542 358.601 522.705 358.701C522.872 358.801 523.048 358.851 523.235 358.851ZM528.674 360.791L528.259 360.251C528.349 360.211 528.436 360.161 528.519 360.101C528.602 360.045 528.669 359.965 528.719 359.861C528.772 359.761 528.799 359.63 528.799 359.466L529.509 359.491C529.509 359.745 529.462 359.958 529.369 360.131C529.279 360.308 529.169 360.45 529.039 360.556C528.909 360.663 528.787 360.741 528.674 360.791ZM528.359 359.491V358.356H529.509V359.491H528.359ZM534.739 359.601C534.432 359.601 534.136 359.541 533.849 359.421C533.566 359.298 533.312 359.1 533.089 358.826C532.866 358.55 532.687 358.181 532.554 357.721C532.424 357.261 532.359 356.691 532.359 356.011C532.359 355.335 532.424 354.768 532.554 354.311C532.687 353.851 532.866 353.483 533.089 353.206C533.312 352.93 533.566 352.731 533.849 352.611C534.136 352.491 534.432 352.431 534.739 352.431C535.032 352.431 535.319 352.491 535.599 352.611C535.882 352.731 536.137 352.93 536.364 353.206C536.594 353.483 536.776 353.851 536.909 354.311C537.042 354.768 537.109 355.335 537.109 356.011C537.109 356.691 537.042 357.261 536.909 357.721C536.776 358.181 536.594 358.55 536.364 358.826C536.137 359.1 535.882 359.298 535.599 359.421C535.319 359.541 535.032 359.601 534.739 359.601ZM534.739 358.851C534.922 358.851 535.094 358.801 535.254 358.701C535.417 358.601 535.561 358.44 535.684 358.216C535.811 357.993 535.909 357.7 535.979 357.336C536.052 356.973 536.089 356.531 536.089 356.011C536.089 355.495 536.052 355.056 535.979 354.696C535.909 354.333 535.811 354.041 535.684 353.821C535.561 353.598 535.417 353.436 535.254 353.336C535.094 353.233 534.922 353.181 534.739 353.181C534.552 353.181 534.376 353.233 534.209 353.336C534.046 353.436 533.902 353.598 533.779 353.821C533.656 354.041 533.557 354.333 533.484 354.696C533.414 355.056 533.379 355.495 533.379 356.011C533.379 356.531 533.414 356.973 533.484 357.336C533.557 357.7 533.656 357.993 533.779 358.216C533.902 358.44 534.046 358.601 534.209 358.701C534.376 358.801 534.552 358.851 534.739 358.851Z" fill="#FF0000"/>
<path d="M524.235 89.8739C523.928 89.8739 523.632 89.8139 523.345 89.6939C523.062 89.5706 522.808 89.3722 522.585 89.0989C522.362 88.8222 522.183 88.4539 522.05 87.9939C521.92 87.5339 521.855 86.9639 521.855 86.2839C521.855 85.6072 521.92 85.0406 522.05 84.5839C522.183 84.1239 522.362 83.7556 522.585 83.4789C522.808 83.2022 523.062 83.0039 523.345 82.8839C523.632 82.7639 523.928 82.7039 524.235 82.7039C524.528 82.7039 524.815 82.7639 525.095 82.8839C525.378 83.0039 525.633 83.2022 525.86 83.4789C526.09 83.7556 526.272 84.1239 526.405 84.5839C526.538 85.0406 526.605 85.6072 526.605 86.2839C526.605 86.9639 526.538 87.5339 526.405 87.9939C526.272 88.4539 526.09 88.8222 525.86 89.0989C525.633 89.3722 525.378 89.5706 525.095 89.6939C524.815 89.8139 524.528 89.8739 524.235 89.8739ZM524.235 89.1239C524.418 89.1239 524.59 89.0739 524.75 88.9739C524.913 88.8739 525.057 88.7122 525.18 88.4889C525.307 88.2656 525.405 87.9722 525.475 87.6089C525.548 87.2456 525.585 86.8039 525.585 86.2839C525.585 85.7672 525.548 85.3289 525.475 84.9689C525.405 84.6056 525.307 84.3139 525.18 84.0939C525.057 83.8706 524.913 83.7089 524.75 83.6089C524.59 83.5056 524.418 83.4539 524.235 83.4539C524.048 83.4539 523.872 83.5056 523.705 83.6089C523.542 83.7089 523.398 83.8706 523.275 84.0939C523.152 84.3139 523.053 84.6056 522.98 84.9689C522.91 85.3289 522.875 85.7672 522.875 86.2839C522.875 86.8039 522.91 87.2456 522.98 87.6089C523.053 87.9722 523.152 88.2656 523.275 88.4889C523.398 88.7122 523.542 88.8739 523.705 88.9739C523.872 89.0739 524.048 89.1239 524.235 89.1239ZM529.674 91.0639L529.259 90.5239C529.349 90.4839 529.436 90.4339 529.519 90.3739C529.602 90.3172 529.669 90.2372 529.719 90.1339C529.772 90.0339 529.799 89.9022 529.799 89.7389L530.509 89.7639C530.509 90.0172 530.462 90.2306 530.369 90.4039C530.279 90.5806 530.169 90.7222 530.039 90.8289C529.909 90.9356 529.787 91.0139 529.674 91.0639ZM529.359 89.7639V88.6289H530.509V89.7639H529.359ZM533.689 89.7639V89.0039H535.279V83.6739L533.714 84.0989V83.2389L535.414 82.7639H536.269V89.0039H537.859V89.7639H533.689Z" fill="#FF0000"/>
<path d="M800.185 87.7639V87.0039H801.775V81.6739L800.21 82.0989V81.2389L801.91 80.7639H802.765V87.0039H804.355V87.7639H800.185ZM807.674 89.0639L807.259 88.5239C807.349 88.4839 807.436 88.4339 807.519 88.3739C807.602 88.3172 807.669 88.2372 807.719 88.1339C807.772 88.0339 807.799 87.9022 807.799 87.7389L808.509 87.7639C808.509 88.0172 808.462 88.2306 808.369 88.4039C808.279 88.5806 808.169 88.7222 808.039 88.8289C807.909 88.9356 807.787 89.0139 807.674 89.0639ZM807.359 87.7639V86.6289H808.509V87.7639H807.359ZM811.689 87.7639V87.0039H813.279V81.6739L811.714 82.0989V81.2389L813.414 80.7639H814.269V87.0039H815.859V87.7639H811.689Z" fill="#FF0000"/>
<path d="M799.185 355.991V355.231H800.775V349.901L799.21 350.326V349.466L800.91 348.991H801.765V355.231H803.355V355.991H799.185ZM806.674 357.291L806.259 356.751C806.349 356.711 806.436 356.661 806.519 356.601C806.602 356.545 806.669 356.465 806.719 356.361C806.772 356.261 806.799 356.13 806.799 355.966L807.509 355.991C807.509 356.245 807.462 356.458 807.369 356.631C807.279 356.808 807.169 356.95 807.039 357.056C806.909 357.163 806.787 357.241 806.674 357.291ZM806.359 355.991V354.856H807.509V355.991H806.359ZM812.739 356.101C812.432 356.101 812.136 356.041 811.849 355.921C811.566 355.798 811.312 355.6 811.089 355.326C810.866 355.05 810.687 354.681 810.554 354.221C810.424 353.761 810.359 353.191 810.359 352.511C810.359 351.835 810.424 351.268 810.554 350.811C810.687 350.351 810.866 349.983 811.089 349.706C811.312 349.43 811.566 349.231 811.849 349.111C812.136 348.991 812.432 348.931 812.739 348.931C813.032 348.931 813.319 348.991 813.599 349.111C813.882 349.231 814.137 349.43 814.364 349.706C814.594 349.983 814.776 350.351 814.909 350.811C815.042 351.268 815.109 351.835 815.109 352.511C815.109 353.191 815.042 353.761 814.909 354.221C814.776 354.681 814.594 355.05 814.364 355.326C814.137 355.6 813.882 355.798 813.599 355.921C813.319 356.041 813.032 356.101 812.739 356.101ZM812.739 355.351C812.922 355.351 813.094 355.301 813.254 355.201C813.417 355.101 813.561 354.94 813.684 354.716C813.811 354.493 813.909 354.2 813.979 353.836C814.052 353.473 814.089 353.031 814.089 352.511C814.089 351.995 814.052 351.556 813.979 351.196C813.909 350.833 813.811 350.541 813.684 350.321C813.561 350.098 813.417 349.936 813.254 349.836C813.094 349.733 812.922 349.681 812.739 349.681C812.552 349.681 812.376 349.733 812.209 349.836C812.046 349.936 811.902 350.098 811.779 350.321C811.656 350.541 811.557 350.833 811.484 351.196C811.414 351.556 811.379 351.995 811.379 352.511C811.379 353.031 811.414 353.473 811.484 353.836C811.557 354.2 811.656 354.493 811.779 354.716C811.902 354.94 812.046 355.101 812.209 355.201C812.376 355.301 812.552 355.351 812.739 355.351Z" fill="#FF0000"/>
<path d="M549.564 88.8789C549.307 88.8789 549.072 88.8389 548.859 88.7589C548.649 88.6789 548.469 88.5539 548.319 88.3839C548.172 88.2106 548.059 87.9889 547.979 87.7189C547.899 87.4456 547.859 87.1189 547.859 86.7389V83.7639H548.849V86.5889C548.849 86.9422 548.885 87.2289 548.959 87.4489C549.035 87.6656 549.149 87.8256 549.299 87.9289C549.452 88.0289 549.647 88.0789 549.884 88.0789C550.054 88.0789 550.214 88.0456 550.364 87.9789C550.517 87.9122 550.652 87.8189 550.769 87.6989C550.889 87.5789 550.985 87.4406 551.059 87.2839C551.132 87.1272 551.174 86.9606 551.184 86.7839L551.464 86.8739C551.464 87.1239 551.422 87.3689 551.339 87.6089C551.259 87.8456 551.139 88.0606 550.979 88.2539C550.822 88.4439 550.625 88.5956 550.389 88.7089C550.152 88.8222 549.877 88.8789 549.564 88.8789ZM551.344 88.7639L551.159 87.6939V83.7639H552.149V88.2389L551.954 88.0039H552.739V88.7639H551.344ZM555.833 88.7639L554.113 83.7639H555.163L556.563 87.9489H556.653L558.053 83.7639H559.103L557.383 88.7639H555.833Z" fill="#FF0000"/>
<rect x="516.647" y="39.5" width="410.706" height="339.757" stroke="white"/>
<line x1="542" y1="38.9989" x2="542.782" y2="379.756" stroke="#D6D6D6" stroke-dasharray="2 2"/>
<line x1="516" y1="93" x2="928" y2="93" stroke="#D6D6D6" stroke-dasharray="2 2"/>
<path d="M535.369 51C535.296 50.8533 535.206 50.69 535.099 50.51C534.992 50.33 534.876 50.1467 534.749 49.96C534.622 49.7667 534.492 49.5767 534.359 49.39C534.226 49.2033 534.096 49.0267 533.969 48.86C533.842 49.0267 533.712 49.2067 533.579 49.4C533.446 49.5867 533.316 49.7767 533.189 49.97C533.069 50.1567 532.956 50.34 532.849 50.52C532.742 50.7 532.652 50.86 532.579 51H531.619C531.852 50.5467 532.129 50.0867 532.449 49.62C532.776 49.1467 533.099 48.6967 533.419 48.27L531.699 45.8H532.749L533.989 47.62L535.239 45.8H536.229L534.549 48.21C534.869 48.6433 535.196 49.1033 535.529 49.59C535.869 50.07 536.156 50.54 536.389 51H535.369Z" fill="white"/>
<path d="M522.376 105.791C522.449 105.825 522.543 105.855 522.656 105.881C522.776 105.915 522.893 105.931 523.006 105.931C523.373 105.931 523.659 105.848 523.866 105.681C524.073 105.521 524.259 105.258 524.426 104.891C524.006 104.091 523.613 103.245 523.246 102.351C522.886 101.451 522.586 100.541 522.346 99.6214H523.346C523.419 99.9214 523.506 100.245 523.606 100.591C523.713 100.938 523.829 101.295 523.956 101.661C524.083 102.028 524.219 102.395 524.366 102.761C524.513 103.128 524.666 103.481 524.826 103.821C525.079 103.121 525.299 102.428 525.486 101.741C525.673 101.055 525.849 100.348 526.016 99.6214H526.976C526.736 100.601 526.469 101.545 526.176 102.451C525.883 103.351 525.566 104.195 525.226 104.981C525.093 105.281 524.953 105.538 524.806 105.751C524.666 105.971 524.509 106.151 524.336 106.291C524.163 106.431 523.966 106.535 523.746 106.601C523.533 106.668 523.289 106.701 523.016 106.701C522.943 106.701 522.866 106.695 522.786 106.681C522.706 106.675 522.626 106.661 522.546 106.641C522.473 106.628 522.403 106.611 522.336 106.591C522.276 106.571 522.233 106.555 522.206 106.541L522.376 105.791Z" fill="white"/>
<line x1="793.782" y1="88.1037" x2="793.782" y2="95.8214" stroke="white"/>
<line x1="538.423" y1="345.463" x2="546.141" y2="345.463" stroke="white"/>
<path d="M528.333 343.963C528.713 343.816 529.083 343.629 529.443 343.403C529.803 343.169 530.133 342.879 530.433 342.533H531.093V349.463H530.163V343.823C530.083 343.896 529.983 343.973 529.863 344.053C529.75 344.133 529.623 344.209 529.483 344.283C529.35 344.356 529.206 344.426 529.053 344.493C528.906 344.559 528.763 344.616 528.623 344.663L528.333 343.963Z" fill="white"/>
<path d="M791.825 79.9191C792.205 79.7725 792.575 79.5858 792.935 79.3591C793.295 79.1258 793.625 78.8358 793.925 78.4891H794.585V85.4191H793.655V79.7791C793.575 79.8525 793.475 79.9291 793.355 80.0091C793.242 80.0891 793.115 80.1658 792.975 80.2391C792.842 80.3125 792.699 80.3825 792.545 80.4491C792.399 80.5158 792.255 80.5725 792.115 80.6191L791.825 79.9191Z" fill="white"/>
<rect x="888" y="79.4191" width="39" height="282.072" fill="#121212"/>
<rect x="928" y="79.4191" width="31.2228" height="282.072" fill="#121212"/>
</g>
<defs>
<linearGradient id="paint0_linear_1_56" x1="65" y1="96" x2="304.368" y2="430.926" gradientUnits="userSpaceOnUse">
<stop stop-color="#FF0000"/>
<stop offset="1" stop-color="#2400FF"/>
</linearGradient>
<linearGradient id="paint1_linear_1_56" x1="544" y1="95" x2="793" y2="344" gradientUnits="userSpaceOnUse">
<stop stop-color="#FF0000"/>
<stop offset="1" stop-color="#2400FF"/>
</linearGradient>
<linearGradient id="paint2_linear_1_56" x1="792.895" y1="94.95" x2="1041.9" y2="343.95" gradientUnits="userSpaceOnUse">
<stop stop-color="#FF0000"/>
<stop offset="1" stop-color="#2400FF"/>
</linearGradient>
<clipPath id="clip0_1_56">
<rect width="959" height="411" fill="white"/>
</clipPath>
</defs>
</svg>
